<?xml version="1.0" encoding="UTF-8"?>
<svg width="52px" height="52px" viewBox="0 0 52 52" version="1.1" xmlns="http://www.w3.org/2000/svg" xmlns:xlink="http://www.w3.org/1999/xlink">
    <!-- Generator: sketchtool 51.2 (57519) - http://www.bohemiancoding.com/sketch -->
    <title>F80B5E21-F32E-4B41-88BA-D898D5312197</title>
    <desc>Created with sketchtool.</desc>
    <defs></defs>
    <g id="01-HomePage" stroke="none" stroke-width="1" fill="none" fill-rule="evenodd">
        <g id="homepage-mobile-en" transform="translate(-67.000000, -2113.000000)">
            <g id="03-Workflow" transform="translate(0.000000, 1915.000000)">
                <g id="process" transform="translate(68.000000, 91.000000)">
                    <g id="icon-copy-5" transform="translate(0.000000, 89.000000)">
                        <g id="icon/reserch" transform="translate(0.000000, 19.000000)">
                            <g id="icon/workflow/design">
                                <rect id="Rectangle" x="0" y="0" width="50.2873563" height="50.2873563"></rect>
                                <g id="graphic-design-(1)" stroke-width="1" fill-rule="evenodd" fill="#FFFFFF">
                                    <path d="M25.0845565,12.9500136 C19.7313315,12.9500136 15.3765484,17.3047967 15.3765484,22.6580217 C15.3765484,26.1480662 17.2234195,29.3226254 20.2304675,31.057879 L20.2304675,31.9720556 C19.7418647,32.3417356 19.4214527,32.9217391 19.4214527,33.5804015 C19.4214527,34.0374049 19.5792803,34.4549938 19.8356438,34.7939238 C19.5791104,35.1320043 19.4214527,35.5495932 19.4214527,36.0065966 C19.4214527,37.1222623 20.328324,38.0291337 21.4439898,38.0291337 L28.7249534,38.0291337 C29.8406192,38.0291337 30.7474905,37.1222623 30.7474905,36.0065966 C30.7474905,35.5495932 30.5896629,35.1320043 30.3332994,34.7930743 C30.5898328,34.4541443 30.7474905,34.0367253 30.7474905,33.5795521 C30.7474905,32.9210595 30.4270785,32.341056 29.9384757,31.9712061 L29.9384757,31.0570296 C32.9455236,29.321776 34.7923948,26.1480662 34.7923948,22.6571723 C34.7925647,17.3047967 30.4377815,12.9500136 25.0845565,12.9500136 Z M28.7251233,36.4109341 L21.4441597,36.4109341 C21.2216041,36.4109341 21.0396523,36.2289822 21.0396523,36.0064267 C21.0396523,35.7838712 21.2216041,35.6019193 21.4441597,35.6019193 L28.7251233,35.6019193 C28.9476788,35.6019193 29.1296307,35.7838712 29.1296307,36.0064267 C29.1298006,36.2289822 28.9476788,36.4109341 28.7251233,36.4109341 Z M28.7251233,33.9840595 L21.4441597,33.9840595 C21.2216041,33.9840595 21.0396523,33.8021076 21.0396523,33.5795521 C21.0396523,33.3569965 21.2216041,33.1750447 21.4441597,33.1750447 L28.7251233,33.1750447 C28.9476788,33.1750447 29.1296307,33.3569965 29.1296307,33.5795521 C29.1296307,33.8021076 28.9476788,33.9840595 28.7251233,33.9840595 Z M28.7606302,29.8564189 L28.3206159,30.0828819 L28.3206159,31.5568451 L25.8935714,31.5568451 L25.8935714,25.7788958 C27.2858176,25.4172006 28.3206159,24.1608661 28.3206159,22.6578518 C28.3206159,20.8731603 26.869248,19.4217925 25.0845565,19.4217925 C23.2998651,19.4217925 21.8484972,20.8731603 21.8484972,22.6578518 C21.8484972,24.161036 22.8831256,25.4173705 24.2755417,25.7788958 L24.2755417,31.5568451 L21.8484972,31.5568451 L21.8484972,30.0828819 L21.4084828,29.8570985 C18.68617,28.4640028 16.9945781,25.7053336 16.9945781,22.6578518 C16.9945781,18.1970575 20.6237622,14.5678734 25.0845565,14.5678734 C29.5453508,14.5678734 33.174535,18.1970575 33.174535,22.6578518 C33.174535,25.7055035 31.483113,28.4641727 28.7606302,29.8564189 Z M25.0845565,24.2760514 C24.1922957,24.2760514 23.4665269,23.5504524 23.4665269,22.6580217 C23.4665269,21.7657609 24.1921259,21.039992 25.0845565,21.039992 C25.9769872,21.039992 26.7025862,21.765591 26.7025862,22.6580217 C26.7027561,23.5502825 25.9771571,24.2760514 25.0845565,24.2760514 Z" id="Shape" fill-rule="nonzero"></path>
                                    <path d="M49.5812947,30.0983419 C49.0142028,27.5071839 48.0531366,24.8924113 46.755519,22.3311539 C48.6421443,15.8736457 47.8047579,9.88639232 44.0437393,6.12605332 C40.693684,2.77684743 35.5606361,1.65149794 29.5796686,2.95964877 C28.9979662,3.08672627 28.4155842,3.24200548 27.8321829,3.41189519 C25.271775,2.11580654 22.6593808,1.15558986 20.0699218,0.589347429 C13.459343,-0.857943072 7.7817985,0.382931423 4.08228002,4.0826198 C0.382591643,7.78230817 -0.857433403,13.4605322 0.588158201,20.0709411 C1.15525008,22.6620991 2.11546676,25.2768717 3.41325431,27.8381291 C1.49180161,34.385339 2.40444917,40.3233244 6.12503398,44.0439092 C8.56414065,46.4830159 11.9490234,47.7418987 15.9171375,47.7418987 C17.3992554,47.7418987 18.9630902,47.5655532 20.5882553,47.2103138 C21.1699577,47.0832363 21.7523396,46.9279571 22.3357409,46.7580673 C24.8961488,48.054156 27.508543,49.0143727 30.0980021,49.5806151 C31.8979837,49.9737399 33.6284803,50.1687733 35.2691053,50.1687733 C39.6539589,50.1687733 43.3939112,48.7789055 46.0861535,46.0864933 C49.7865214,42.3878242 51.0267164,36.7094303 49.5812947,30.0983419 Z M42.899702,7.27009067 C45.9301947,10.3005834 46.7884776,15.0226681 45.6316985,20.2658046 C43.8098012,17.1551239 41.4904668,14.1562306 38.751165,11.4177782 C36.0127126,8.67847643 33.0138193,6.35914201 29.9031386,4.53724468 C35.0993855,3.39252776 39.8382893,4.20884786 42.899702,7.27009067 Z M2.16881213,19.7253854 C0.844521785,13.6723847 1.93011708,8.52319723 5.22597759,5.22648726 C7.60613253,2.84633232 10.9512611,1.6192189 14.907313,1.6192189 C16.4290152,1.6192189 18.0421181,1.80117078 19.7248757,2.1693218 C21.6906697,2.59965245 23.6744719,3.2679986 25.6361885,4.14887679 C21.0945266,5.878524 16.6199713,8.83290618 12.7262688,12.7266086 C11.3178831,14.1349944 10.0241729,15.6414065 8.85923909,17.2043919 C8.49108807,17.0781638 8.10204062,16.9949179 7.69107739,16.9949179 C5.68400027,16.9949179 4.05051064,18.6282376 4.05051064,20.6354846 C4.05051064,21.670113 4.488996,22.5997495 5.18384494,23.2631689 C4.80193286,24.0608011 4.45331916,24.8552054 4.15159502,25.6433238 C3.26918783,23.678889 2.59931267,21.6937277 2.16881213,19.7253854 Z M9.71378437,20.6354846 C9.71378437,21.7503009 8.80691306,22.6580217 7.69124728,22.6580217 C6.57558151,22.6580217 5.6687102,21.7503009 5.6687102,20.6354846 C5.6687102,19.5206683 6.57558151,18.6129475 7.69124728,18.6129475 C8.80691306,18.6129475 9.71378437,19.5206683 9.71378437,20.6354846 Z M7.269581,42.8998719 C4.28037143,39.9106623 3.37417968,35.2232351 4.54573917,29.917919 C6.3659376,33.0236729 8.68289356,36.0169598 11.418118,38.7513348 C14.1574198,41.4914861 17.1563131,43.81167 20.2685228,45.6335673 C15.0707469,46.7791337 10.3318432,45.9628136 7.269581,42.8998719 Z M12.5618156,37.6074674 C9.50549957,34.5511514 6.99351021,31.1669482 5.14646921,27.6753747 C5.52515339,26.4975293 6.01052831,25.2969187 6.58407599,24.0850953 C6.93523804,24.1984118 7.30253961,24.2760514 7.69073761,24.2760514 C9.69781473,24.2760514 11.3313044,22.6427316 11.3313044,20.6354846 C11.3313044,19.624301 10.9154143,18.7101245 10.2480875,18.0490836 C11.3435364,16.5929588 12.5545103,15.1876311 13.8708159,13.870646 C18.1399746,9.60148726 23.0125815,6.63096556 27.6658609,5.1415424 C31.1615117,6.98841352 34.5480934,9.50210178 37.6076373,12.5616457 C40.6665016,15.6205101 43.18002,19.0077712 45.0277406,22.5025726 C44.1251165,25.3091507 42.6713702,28.2108671 40.6868884,31.0505737 C40.2434762,30.8572392 39.7557229,30.7480002 39.2419764,30.7480002 C37.2348992,30.7480002 35.6014096,32.3813199 35.6014096,34.3885669 C35.6014096,35.127927 35.8254941,35.8139416 36.2057073,36.3883388 C31.9593138,40.6080596 27.1247622,43.5495301 22.5052909,45.0284201 C19.00964,43.1806996 15.6215294,40.6671812 12.5618156,37.6074674 Z M41.2646833,34.388397 C41.2646833,35.5040628 40.357812,36.4109341 39.2421462,36.4109341 C38.1264805,36.4109341 37.2196092,35.5040628 37.2196092,34.388397 C37.2196092,33.2727312 38.1264805,32.3658599 39.2421462,32.3658599 C40.357812,32.3658599 41.2646833,33.2727312 41.2646833,34.388397 Z M44.9433054,44.9434753 C41.6482943,48.2393358 36.5014853,49.32663 30.4444072,48.0006407 C28.4786133,47.5703101 26.4956605,46.9019639 24.5330945,46.0210857 C29.0513115,44.3002728 33.5032716,41.3661075 37.3823635,37.5014562 C37.9283891,37.8291735 38.5602089,38.0289638 39.2423161,38.0289638 C41.2493933,38.0289638 42.8828829,36.395644 42.8828829,34.388397 C42.8828829,33.4798268 42.5366476,32.6579004 41.9841663,32.0196247 C43.7178908,29.5448412 45.065626,27.0175617 46.0178578,24.5266387 C46.9004349,26.4917531 47.5703101,28.4769144 48.0006407,30.4452567 C49.3245913,36.4975779 48.238996,41.6476147 44.9433054,44.9434753 Z" id="Shape" stroke="#FFFFFF" stroke-width="0.502873563" fill-rule="nonzero"></path>
                                </g>
                            </g>
                        </g>
                    </g>
                </g>
            </g>
        </g>
    </g>
</svg>