<?xml version="1.0" encoding="UTF-8"?>
<svg width="70px" height="70px" viewBox="0 0 70 70" version="1.1" xmlns="http://www.w3.org/2000/svg" xmlns:xlink="http://www.w3.org/1999/xlink">
    <!-- Generator: Sketch 48.2 (47327) - http://www.bohemiancoding.com/sketch -->
    <title>icon_development</title>
    <desc>Created with Sketch.</desc>
    <defs>
        <polygon id="path-1" points="32.2138413 0.733460317 0.000507936508 0.733460317 0.000507936508 54.8564317 32.2138413 54.8564317 32.2138413 0.733460317"></polygon>
    </defs>
    <g id="homepage-desktop-en" stroke="none" stroke-width="1" fill="none" fill-rule="evenodd" transform="translate(-807.000000, -1933.000000)">
        <g id="Workflow" transform="translate(1.000000, 1698.000000)">
            <g id="icon/development" transform="translate(806.000000, 235.000000)">
                <g id="icon/develop/hover">
                    <rect id="Rectangle" x="0" y="0" width="70" height="70"></rect>
                    <g id="development" stroke-width="1" fill-rule="evenodd" transform="translate(3.000000, 7.000000)">
                        <g id="Group-3" transform="translate(0.000000, 0.282819)">
                            <mask id="mask-2" fill="white">
                                <use xlink:href="#path-1"></use>
                            </mask>
                            <g id="Clip-2"></g>
                            <path d="M3.16596825,5.49109841 C3.16190476,4.61744762 3.86590476,3.90430476 4.74057143,3.8992254 L4.75784127,3.8992254 L20.2915556,3.8992254 L20.2915556,7.07484444 L3.16595075,7.07484444 L3.16596825,5.49109841 Z M3.17511111,50.0818286 L3.17511111,10.2403048 L32.2138413,10.2403048 L32.2138413,7.07484444 L23.4671746,7.07484444 L23.4671746,3.8992254 L32.2138413,3.8992254 L32.2138413,0.732749206 L4.75784127,0.732749206 C2.12977778,0.732749206 0.000507936508,2.86405079 0.000507936508,5.49109841 L0.000507936508,50.0990984 C0.000507936508,52.7271619 2.12977778,54.8564317 4.75784127,54.8564317 L32.2138413,54.8564317 L32.2138413,51.6645587 L4.75784127,51.6645587 C3.88419048,51.6645587 3.17511111,50.9554794 3.17511111,50.0818286 Z" id="Fill-1" fill="#FFFFFF" mask="url(#mask-2)"></path>
                        </g>
                        <path d="M31.0587937,38.5908825 C29.7320635,39.9257397 28.0660317,40.8725333 26.2405079,41.3286603 C25.5852698,41.4962794 25.128127,42.0875175 25.1291429,42.763073 L25.1291429,44.6617397 L22.1638095,44.6617397 L22.1638095,42.763073 C22.1648254,42.0875175 21.7076825,41.4962794 21.0524444,41.3286603 C19.240127,40.8786286 17.5832381,39.9440254 16.2605714,38.6264381 C15.7881905,38.1459302 15.0506667,38.0453587 14.4665397,38.3816127 L12.848254,39.3172317 L11.3701587,36.7196444 L13.024,35.7667556 C13.608127,35.4284698 13.8895238,34.7366603 13.7056508,34.0865016 C13.4405079,33.1945651 13.3003175,32.2701206 13.2860952,31.3405968 C13.3003175,30.4100571 13.4405079,29.4856127 13.7056508,28.5936762 C13.8895238,27.9445333 13.608127,27.2527238 13.024,26.9144381 L11.3701587,25.9696762 L12.848254,23.4076444 L14.4665397,24.3432635 C15.0506667,24.6795175 15.7881905,24.578946 16.2605714,24.0984381 C17.5791746,22.7676444 19.2360635,21.8218667 21.0524444,21.3606603 C21.7076825,21.1930413 22.1648254,20.6018032 22.1638095,19.9262476 L22.1638095,18.027581 L25.12,18.027581 L25.12,19.9262476 C25.12,20.6038349 25.5812063,21.1960889 26.2405079,21.3606603 C28.0568889,21.8218667 29.7137778,22.7676444 31.0333968,24.0984381 C31.3452698,24.411327 31.7820952,24.5687873 32.2229841,24.5271365 L32.2229841,21.1331048 C30.9978413,20.1111365 29.5989841,19.3167238 28.0944762,18.7884698 L28.0853333,16.5494857 C28.0853333,15.7337397 27.424,15.0713905 26.6072381,15.0713905 L20.6857143,15.0713905 C19.8831746,15.0906921 19.2421587,15.746946 19.2421587,16.5494857 L19.2421587,18.8331683 C17.7051429,19.3675175 16.2788571,20.1792 15.0354286,21.2296127 L13.0849524,20.1009778 C12.3779048,19.6925968 11.4737778,19.9343746 11.0653968,20.6414222 C11.064381,20.6424381 11.064381,20.6424381 11.064381,20.6424381 L8.07263492,25.7685333 C7.66526984,26.475581 7.90704762,27.3797079 8.61307937,27.7880889 C8.61409524,27.7880889 8.61409524,27.7891048 8.61511111,27.7891048 L10.5930159,28.9258667 C10.2496508,30.5177397 10.2496508,32.163454 10.5930159,33.7543111 L8.61511111,34.891073 C7.92533333,35.2953905 7.68050794,36.1751365 8.06450794,36.8771048 L11.0206984,42.0021841 C11.4280635,42.7102476 12.3311746,42.9530413 13.0392381,42.5466921 C13.040254,42.5456762 13.0412698,42.5456762 13.0412698,42.5456762 L14.991746,41.4160254 C16.2433016,42.4928508 17.6858413,43.3258667 19.2421587,43.8744381 L19.2421587,46.1571048 C19.2421587,46.9738667 19.9045079,47.6352 20.720254,47.6352 L26.6417778,47.6352 C27.4585397,47.6352 28.119873,46.9738667 28.119873,46.1571048 L28.119873,43.8744381 C29.6264127,43.3472 31.024254,42.5527873 32.2493968,41.530819 L32.2493968,38.1621841 C31.8074921,38.1205333 31.3716825,38.2769778 31.0587937,38.5908825" id="Fill-4" fill="#FFFFFF"></path>
                        <path d="M28.0507937,31.3488254 C28.0457143,33.7960635 26.0627302,35.7790476 23.6165079,35.7831111 C21.1672381,35.7831111 19.1822222,33.7980952 19.1822222,31.3488254 C19.1822222,28.8995556 21.1672381,26.9145397 23.6165079,26.9145397 C26.0647619,26.9145397 28.0507937,28.8995556 28.0507937,31.3488254 M16.2168889,31.3488254 C16.2168889,35.4356825 19.5286349,38.7484444 23.6165079,38.7484444 C27.7023492,38.7484444 31.0151111,35.4356825 31.0151111,31.3488254 C31.0110476,27.264 27.7003175,23.9542857 23.6165079,23.9492063 C19.5286349,23.9492063 16.2168889,27.2629841 16.2168889,31.3488254" id="Fill-6" fill="#FFFFFF"></path>
                        <path d="M22.1639111,31.3409016 C22.1639111,32.1566476 22.8252444,32.8189968 23.6420063,32.8189968 C24.4587683,32.8189968 25.1201016,32.1566476 25.1201016,31.3409016 C25.1201016,30.5241397 24.4587683,29.8628063 23.6420063,29.8628063 C22.8252444,29.8628063 22.1639111,30.5241397 22.1639111,31.3409016" id="Fill-8" fill="#FFFFFF"></path>
                        <path d="M58.9963175,18.6053079 L55.4275556,21.0373079 C55.0120635,21.3197206 54.4462222,21.2120381 54.1638095,20.796546 C53.8813968,20.381054 53.9880635,19.8152127 54.4035556,19.5328 L56.8538413,17.8535619 L54.4035556,16.1733079 C53.9880635,15.8908952 53.8813968,15.325054 54.1638095,14.9095619 C54.4462222,14.4950857 55.0120635,14.3863873 55.4275556,14.6688 L58.9963175,17.1008 C59.1222857,17.1759746 59.2279365,17.2806095 59.3020952,17.4065778 C59.5489524,17.8220698 59.4107937,18.3584508 58.9963175,18.6053079 Z M59.0491429,28.5070222 C59.0491429,29.1683556 58.511746,29.7047365 57.8504127,29.7047365 L41.3892063,29.7047365 C40.727873,29.7047365 40.1904762,29.1683556 40.1904762,28.5070222 L40.1904762,28.445054 C40.1904762,27.7837206 40.727873,27.2473397 41.3892063,27.2473397 L57.8504127,27.2473397 C58.511746,27.2473397 59.0491429,27.7837206 59.0491429,28.445054 L59.0491429,28.5070222 Z M59.0491429,34.244673 C59.0491429,34.9060063 58.511746,35.4423873 57.8504127,35.4423873 L41.3892063,35.4423873 C40.727873,35.4423873 40.1904762,34.9060063 40.1904762,34.244673 L40.1904762,34.1827048 C40.1904762,33.5213714 40.727873,32.9849905 41.3892063,32.9849905 L57.8504127,32.9849905 C58.511746,32.9849905 59.0491429,33.5213714 59.0491429,34.1827048 L59.0491429,34.244673 Z M59.0491429,39.9813079 C59.0491429,40.6436571 58.511746,41.1800381 57.8504127,41.1800381 L41.3892063,41.1800381 C40.727873,41.1800381 40.1904762,40.6436571 40.1904762,39.9813079 L40.1904762,39.9213714 C40.1904762,39.2600381 40.727873,38.7226413 41.3892063,38.7226413 L57.8504127,38.7226413 C58.511746,38.7226413 59.0491429,39.2600381 59.0491429,39.9213714 L59.0491429,39.9813079 Z M40.8904127,17.092673 L44.4591746,14.660673 C44.8746667,14.3782603 45.4405079,14.4859429 45.7239365,14.9014349 C46.0053333,15.316927 45.8976508,15.8827683 45.4821587,16.165181 L43.0166349,17.844419 L45.4821587,19.5328 C45.8976508,19.8243556 45.9972063,20.3983238 45.7056508,20.8138159 C45.4130794,21.2293079 44.8391111,21.3288635 44.423619,21.0373079 L40.855873,18.6053079 L40.8904127,18.597181 C40.7644444,18.5220063 40.6587937,18.4163556 40.5846349,18.2903873 C40.3387937,17.8748952 40.4759365,17.3385143 40.8904127,17.092673 Z M47.3107302,20.6350222 L50.9668571,14.1364825 C51.207619,13.6986413 51.7582222,13.5401651 52.1960635,13.780927 C52.631873,14.0227048 52.7913651,14.5733079 52.5495873,15.0101333 L48.8944762,21.5442286 C48.8822857,21.5675937 48.8690794,21.5899429 48.855873,21.6112762 C48.6019048,22.0216889 48.0614603,22.148673 47.6520635,21.8936889 C47.6226032,21.8794667 47.5931429,21.8632127 47.5657143,21.844927 C47.1613968,21.5808 47.0466032,21.0393397 47.3107302,20.6350222 Z M60.8848254,1.01648254 L38.2755556,1.01648254 C37.048381,1.01648254 36.0538413,2.01102222 36.0538413,3.23819683 L36.0538413,52.9001651 C36.0538413,54.1273397 37.048381,55.1228952 38.2755556,55.1228952 L60.8848254,55.1228952 C62.112,55.1228952 63.1065397,54.1273397 63.1065397,52.9001651 L63.1065397,3.23819683 C63.1065397,2.01102222 62.112,1.01648254 60.8848254,1.01648254 Z" id="Fill-10" fill="#FFFFFF"></path>
                    </g>
                </g>
            </g>
        </g>
    </g>
</svg>