<?xml version="1.0" encoding="UTF-8"?>
<svg width="24px" height="24px" viewBox="0 0 24 24" version="1.1" xmlns="http://www.w3.org/2000/svg" xmlns:xlink="http://www.w3.org/1999/xlink">
    <!-- Generator: Sketch 48.2 (47327) - http://www.bohemiancoding.com/sketch -->
    <title>post-facebook-blue</title>
    <desc>Created with Sketch.</desc>
    <defs></defs>
    <g id="Artboard" stroke="none" stroke-width="1" fill="none" fill-rule="evenodd" transform="translate(-229.000000, -204.000000)">
        <g id="post-facebook-blue" transform="translate(229.000000, 204.000000)" fill="#254B6D">
            <path d="M21.6,0 L2.4,0 C1.08,0 0,1.08 0,2.4 L0,21.6 C0,22.92 1.08,24 2.4,24 L21.6,24 C22.92,24 24,22.92 24,21.6 L24,2.4 C24,1.08 22.92,0 21.6,0 L21.6,0 Z M20.4,2.4 L20.4,6 L18,6 C17.28,6 16.8,6.48 16.8,7.2 L16.8,9.6 L20.4,9.6 L20.4,13.2 L16.8,13.2 L16.8,21.6 L13.2,21.6 L13.2,13.2 L10.8,13.2 L10.8,9.6 L13.2,9.6 L13.2,6.6 C13.2,4.32 15.12,2.4 17.4,2.4 L20.4,2.4 L20.4,2.4 Z" id="Shape"></path>
        </g>
    </g>
</svg>