<?xml version="1.0" encoding="UTF-8"?>
<svg width="25px" height="24px" viewBox="0 0 25 24" version="1.1" xmlns="http://www.w3.org/2000/svg" xmlns:xlink="http://www.w3.org/1999/xlink">
    <!-- Generator: Sketch 48.2 (47327) - http://www.bohemiancoding.com/sketch -->
    <title>post-linkedin-blue</title>
    <desc>Created with Sketch.</desc>
    <defs></defs>
    <g id="Artboard" stroke="none" stroke-width="1" fill="none" fill-rule="evenodd" transform="translate(-273.000000, -204.000000)">
        <g id="post-linkedin-blue" transform="translate(273.000000, 204.000000)" fill="#254B6D">
            <path d="M21.7278107,0 L2.41420118,0 C1.08639053,0 0,1.08 0,2.4 L0,21.6 C0,22.92 1.08639053,24 2.41420118,24 L21.7278107,24 C23.0556213,24 24.1420118,22.92 24.1420118,21.6 L24.1420118,2.4 C24.1420118,1.08 23.0556213,0 21.7278107,0 L21.7278107,0 Z M7.24260355,20.4 L3.62130178,20.4 L3.62130178,9.6 L7.24260355,9.6 L7.24260355,20.4 L7.24260355,20.4 Z M5.43195266,7.56 C4.22485207,7.56 3.2591716,6.6 3.2591716,5.4 C3.2591716,4.2 4.22485207,3.24 5.43195266,3.24 C6.63905325,3.24 7.60473373,4.2 7.60473373,5.4 C7.60473373,6.6 6.63905325,7.56 5.43195266,7.56 L5.43195266,7.56 Z M20.5207101,20.4 L16.8994083,20.4 L16.8994083,14.04 C16.8994083,13.08 16.0544379,12.24 15.0887574,12.24 C14.1230769,12.24 13.2781065,13.08 13.2781065,14.04 L13.2781065,20.4 L9.65680473,20.4 L9.65680473,9.6 L13.2781065,9.6 L13.2781065,11.04 C13.8816568,10.08 15.2094675,9.36 16.295858,9.36 C18.5893491,9.36 20.5207101,11.28 20.5207101,13.56 L20.5207101,20.4 L20.5207101,20.4 Z" id="Shape"></path>
        </g>
    </g>
</svg>