<svg xmlns="http://www.w3.org/2000/svg" xmlns:xlink="http://www.w3.org/1999/xlink" viewBox="0 0 114 92.5"><defs><style>.cls-1{fill:#9ebcca;opacity:0.2;}.cls-2{fill:#fff;}.cls-3{fill:url(#linear-gradient);}.cls-4{fill:#586faf;}</style><linearGradient id="linear-gradient" x1="105.69" y1="87.66" x2="52.19" y2="6.66" gradientUnits="userSpaceOnUse"><stop offset="0" stop-color="#52c2b8"/><stop offset="0.51" stop-color="#559ab4"/><stop offset="1" stop-color="#586faf"/></linearGradient></defs><title>Asset 24</title><g id="Layer_2" data-name="Layer 2"><g id="Layer_1-2" data-name="Layer 1"><path class="cls-1" d="M113.25,15.27a2.44,2.44,0,0,0,.56-2.7A2.51,2.51,0,0,0,111.49,11h-7.7V3.47a2.47,2.47,0,0,0-1.56-2.29,2.54,2.54,0,0,0-2.74.55l-10,10,0,0A40.36,40.36,0,0,0,68.61,6.1c-22.26,0-40.37,17.73-40.37,39.52,0,.13,0,.26,0,.39A11.35,11.35,0,0,0,6.14,49.38,11,11,0,0,0,9,56.78a13.57,13.57,0,0,0-9,12.7v8.88a2.5,2.5,0,0,0,0,.39l0,.14A2.59,2.59,0,0,0,1.86,81l.63.19a56.26,56.26,0,0,0,12.8,2.41V87.2a2.49,2.49,0,0,0,0,.45l0,.14a2.58,2.58,0,0,0,1.79,2l.63.19A54.46,54.46,0,0,0,33.7,92.5c8.79,0,13.88-2.45,14.42-2.72l.28-.14a2.58,2.58,0,0,0,1.79-2.44V83.62a41.22,41.22,0,0,0,5.11-.55A40.68,40.68,0,0,0,68.61,85.3c22.17,0,40.2-17.8,40.2-39.68A38.66,38.66,0,0,0,103,25.17l0,0Zm-22,30.35A22.45,22.45,0,0,1,68.61,67.85a23,23,0,0,1-4.16-.38,13.62,13.62,0,0,0-8.85-10.68A11.21,11.21,0,0,0,56.92,55a15.15,15.15,0,0,0,11.68,5.47A15,15,0,0,0,83.68,45.62,14.57,14.57,0,0,0,80.89,37l5.38-5.28A21.89,21.89,0,0,1,91.22,45.62ZM66.83,47.37a2.54,2.54,0,0,0,3.55,0l6.88-6.76a9.69,9.69,0,0,1,1.4,5,10.05,10.05,0,1,1-10-9.88,10.12,10.12,0,0,1,5.1,1.37l-6.88,6.76A2.44,2.44,0,0,0,66.83,47.37ZM77.34,33.55a15.18,15.18,0,0,0-23,7.27,11.39,11.39,0,0,0-7.09-2.56,22.78,22.78,0,0,1,35.44-10ZM68.61,11a35.27,35.27,0,0,1,20.1,6.2v5.13l-2.42,2.38A27.8,27.8,0,0,0,41.65,39.67,11.21,11.21,0,0,0,36,47.55a11.33,11.33,0,0,0-2.68-.43c0-.5,0-1,0-1.49C33.27,26.56,49.12,11,68.61,11Zm35.17,34.58A35,35,0,0,1,68.61,80.36a36.06,36.06,0,0,1-4.66-.31,2.53,2.53,0,0,0,.65-1.69V72.5a28.2,28.2,0,0,0,4,.29A27.44,27.44,0,0,0,96.25,45.62a26.77,26.77,0,0,0-6.41-17.38l2.42-2.38h5.22A33.86,33.86,0,0,1,103.78,45.62Zm-3.54-24.7H93.73v-6.4l5-5v4A2.49,2.49,0,0,0,101.27,16h4.08Z"/><path class="cls-2" d="M103.23,18.79l4.12-5.15-7.2-1V9.53L97.06,5.41l-9.24,8.32a37.09,37.09,0,1,0,9.31,8.95Z"/><path class="cls-3" d="M100.91.18a2.47,2.47,0,0,0-2.7.55l-9.88,10,0,0A39.16,39.16,0,0,0,67.87,5.1a39.6,39.6,0,1,0,39.52,39.52,39.16,39.16,0,0,0-5.7-20.45l0,0,10-9.88A2.47,2.47,0,0,0,110,10h-7.57V2.47A2.47,2.47,0,0,0,100.91.18ZM77.75,44.62a9.89,9.89,0,1,1-4.86-8.51l-6.76,6.76a2.47,2.47,0,0,0,3.49,3.49l6.76-6.76A9.82,9.82,0,0,1,77.75,44.62Zm-1.3-12.07A14.83,14.83,0,1,0,79.94,36l5.28-5.28a22.25,22.25,0,1,1-3.49-3.49ZM67.87,79.36a34.66,34.66,0,1,1,0-69.32,34.26,34.26,0,0,1,19.76,6.2v5.13l-2.38,2.38a27.2,27.2,0,1,0,3.49,3.49l2.38-2.38h5.13a34.26,34.26,0,0,1,6.2,19.76A34.7,34.7,0,0,1,67.87,79.36ZM104,15l-5,4.94h-6.4v-6.4l4.94-5v4A2.47,2.47,0,0,0,100,15h4Z"/><path class="cls-2" d="M55.08,55.78A11.13,11.13,0,1,0,35.8,46.55a11.46,11.46,0,0,0-7.18.28,11.13,11.13,0,1,0-19.33,9A13.55,13.55,0,0,0,.43,68.48v8.88a2.55,2.55,0,0,0,0,.39l0,.14A2.57,2.57,0,0,0,2.25,80l.62.19a54.47,54.47,0,0,0,12.58,2.41V86.2a2.54,2.54,0,0,0,0,.45l0,.14a2.57,2.57,0,0,0,1.76,2l.62.19A52.7,52.7,0,0,0,33.55,91.5c8.64,0,13.65-2.45,14.17-2.72l.28-.14a2.57,2.57,0,0,0,1.76-2.44V82.62A31.79,31.79,0,0,0,61.9,79.94l.27-.14a2.58,2.58,0,0,0,1.76-2.44V68.48A13.55,13.55,0,0,0,55.08,55.78Z"/><path class="cls-4" d="M38.22,48.25a10.61,10.61,0,0,1,4.94,7.88,8.56,8.56,0,1,0-4.94-7.88ZM32.61,65.77A8.56,8.56,0,1,0,24,57.22a8.56,8.56,0,0,0,8.56,8.56Zm3.63.58H29a11,11,0,0,0-11,11V86.2l0,.14.61.19a49.92,49.92,0,0,0,14.9,2.4c8.06,0,12.72-2.29,13-2.44l.57-.29h.06V77.32a11,11,0,0,0-11-11ZM50.4,57.52H43.2a10.55,10.55,0,0,1-3.26,7.35,13,13,0,0,1,9.3,12.46v2.73c7.12-.26,11.22-2.28,11.49-2.41l.57-.29h.06V68.48a11,11,0,0,0-11-11Zm-32.81-.58a8.5,8.5,0,0,0,4.55-1.32,10.61,10.61,0,0,1,4-6.76c0-.16,0-.32,0-.48a8.56,8.56,0,1,0-8.56,8.56Zm7.69,7.93A10.56,10.56,0,0,1,22,57.56c-.27,0-.53,0-.8,0H14a11,11,0,0,0-11,11v8.88l0,.14.61.19A51.38,51.38,0,0,0,16,80V77.33a13,13,0,0,1,9.3-12.46Zm0,0"/></g></g></svg>