<svg xmlns="http://www.w3.org/2000/svg" width="79" height="79" viewBox="0 0 79 79">
    <g fill="none" fill-rule="nonzero">
        <g fill="#E1EAEF" opacity=".3">
            <path d="M29.544 50.428c-1.843-.455-3.21-2.11-3.21-4.083 0-2.326 1.898-4.207 4.235-4.207 2.337 0 4.235 1.881 4.235 4.207a4.213 4.213 0 0 1-3.06 4.043l.117 4.809a4.954 4.954 0 0 1-1.43 3.586 5.014 5.014 0 0 1-3.57 1.49h-7.05c-2.691 0-4.9-2.12-4.98-4.711a4.508 4.508 0 0 1 .012-1.064c.41-2.213.078-3.648-.726-4.538a2.88 2.88 0 0 0-1.467-.886h-.056c-2.602-.16-4.146-1.184-4.579-2.849-.242-.93-.096-1.854.2-2.593v-.123l.135-.246 6.101-11.148c.01-.023.018-.048.016-.01.495-9.508 4.158-15.918 10.226-19.608C29.12 9.806 34.386 8.79 39.77 8.91c2.69.085 4.832 2.273 4.84 4.955v9.363a4.21 4.21 0 0 1 2.86 3.98c0 2.325-1.898 4.207-4.235 4.207-2.337 0-4.235-1.882-4.235-4.207 0-2.044 1.467-3.746 3.41-4.127v-9.213a2.781 2.781 0 0 0-2.7-2.759c-4.99-.11-9.862.83-13.874 3.269-5.434 3.304-8.716 9.049-9.179 17.922-.03.249-.097.49-.238.795l-6.004 10.978v.032l-.104.221c-.165.353-.28.912-.167 1.346.168.644.857 1.1 2.517 1.205h.11l.21.02c.909.175 1.915.642 2.77 1.59 1.29 1.43 1.784 3.561 1.267 6.335-.019.165-.019.332.006.584.048 1.485 1.28 2.668 2.786 2.667h7.052c.755 0 1.477-.3 2.004-.834.525-.533.811-1.251.795-1.99l-.117-4.82zM47.599 49.52h12.466a5.08 5.08 0 0 1 3.827 1.708 4.799 4.799 0 0 1 1.139 3.99c-.817 4.677-2.883 7.974-6.626 8.66V72a1.1 1.1 0 0 1-1.1 1.1H30.57a1.1 1.1 0 0 1-1.1-1.1v-9.099h2.2V70.9h24.536v-7.999a1.1 1.1 0 0 1 1.043-1.099c3.099-.161 4.882-2.76 5.615-6.96a2.598 2.598 0 0 0-.622-2.16 2.881 2.881 0 0 0-2.173-.961h-12.47a4.233 4.233 0 0 1-4.088 3.107c-2.337 0-4.235-1.882-4.235-4.207 0-2.326 1.898-4.207 4.235-4.207a4.233 4.233 0 0 1 4.089 3.107zM57.53 35.586c-2.338 0-4.236-1.881-4.236-4.207 0-2.325 1.898-4.207 4.235-4.207 2.338 0 4.236 1.882 4.236 4.207 0 2.326-1.898 4.207-4.236 4.207z"/>
            <path d="M28.39 34.493v-2.045h2.2v2.031a2.292 2.292 0 0 1-.598 1.58 2.133 2.133 0 0 1-1.57.696h-5.398c-1.224 0-2.183-1.03-2.183-2.262v-2.045h2.2v2.045c0 .051.01.062-.017.062h5.357a.163.163 0 0 0 .01-.062zM51.876 43.562a2.354 2.354 0 0 1-3.129-.154l-2.135-2.078a2.36 2.36 0 0 1-.22-3.132l1.203-1.566a1.1 1.1 0 0 1 1.744 1.34l-1.206 1.57a.161.161 0 0 0 .015.213l2.139 2.082a.155.155 0 0 0 .204.016l1.477-1.203a1.1 1.1 0 0 1 1.242-.102c.753.432 1.558.765 2.395.991a1.1 1.1 0 0 1 .804.92l.24 1.844c.013.078.079.136.123.137l2.968-.029c.078 0 .144-.06.152-.143l.2-1.845a1.1 1.1 0 0 1 .802-.943 9.818 9.818 0 0 0 2.355-.993 1.1 1.1 0 0 1 1.23.081l1.41 1.097c.063.05.152.043.205-.012l2.074-2.139c.056-.056.06-.148.032-.185l-1.147-1.335a1.1 1.1 0 0 1-.115-1.272c.433-.74.769-1.533.998-2.359a1.1 1.1 0 0 1 .923-.797l1.711-.216a.155.155 0 0 0 .134-.154l-.03-2.963a.162.162 0 0 0-.144-.16l-1.669-.18a1.1 1.1 0 0 1-.944-.807 10.007 10.007 0 0 0-1.034-2.465 1.1 1.1 0 0 1 .077-1.228L68 24.042a.161.161 0 0 0-.015-.213l-2.14-2.083a.156.156 0 0 0-.207-.012l-1.337 1.08a1.1 1.1 0 0 1-1.23.102 9.93 9.93 0 0 0-2.565-1.002 1.1 1.1 0 0 1-.84-.956l-.178-1.716a.161.161 0 0 0-.16-.142l-2.958.025a.155.155 0 0 0-.152.14l-.194 1.832a1.1 1.1 0 0 1-.764.933 9.681 9.681 0 0 0-2.294 1.07 1.1 1.1 0 0 1-1.278-.068l-1.468-1.174a1.1 1.1 0 0 1 1.374-1.718l.875.7a11.88 11.88 0 0 1 1.44-.667l.121-1.138a2.355 2.355 0 0 1 2.32-2.11l2.958-.025a2.366 2.366 0 0 1 2.365 2.092l.104.99c.583.179 1.152.402 1.702.667l.778-.627a2.354 2.354 0 0 1 3.129.153l2.135 2.08a2.36 2.36 0 0 1 .22 3.132l-.6.78c.265.522.492 1.063.68 1.618l.944.102a2.362 2.362 0 0 1 2.108 2.321l.031 2.967a2.357 2.357 0 0 1-2.054 2.358l-1.014.127c-.174.505-.382.998-.62 1.475l.676.788c.75.933.684 2.28-.15 3.129l-2.07 2.134a2.355 2.355 0 0 1-3.135.214l-.84-.653c-.484.243-.984.454-1.496.63l-.121 1.124a2.355 2.355 0 0 1-2.318 2.11l-3.001.029a2.368 2.368 0 0 1-2.29-2.024l-.151-1.169a12.323 12.323 0 0 1-1.529-.63l-.915.745z"/>
        </g>
        <path fill="#FFF" d="M55.205 60.901a1.1 1.1 0 0 1 1.043-1.099c3.099-.161 4.882-2.76 5.615-6.96a2.598 2.598 0 0 0-.622-2.16 2.881 2.881 0 0 0-2.173-.961H46.161v-2.2h12.904a5.08 5.08 0 0 1 3.827 1.707 4.799 4.799 0 0 1 1.139 3.99c-.817 4.677-2.883 7.974-6.626 8.66V70a1.1 1.1 0 0 1-1.1 1.1H29.57a1.1 1.1 0 0 1-1.1-1.1v-9.099h2.2V68.9h24.536v-7.999zM13.467 30.105c.495-9.508 4.158-15.918 10.226-19.608C28.12 7.806 33.386 6.79 38.77 6.91c2.69.085 4.832 2.273 4.84 4.955v14.22h-2.2V11.867a2.781 2.781 0 0 0-2.7-2.759c-4.99-.11-9.862.83-13.874 3.269-5.434 3.304-8.716 9.049-9.179 17.922-.03.249-.097.49-.238.795L9.415 42.072v.032l-.104.221c-.165.353-.28.912-.167 1.346.168.644.857 1.1 2.517 1.205h.11l.21.02c.909.175 1.915.642 2.77 1.59 1.29 1.43 1.784 3.561 1.267 6.335-.019.165-.019.332.006.584.048 1.485 1.28 2.668 2.786 2.667h7.052c.755 0 1.477-.3 2.004-.834.525-.533.811-1.251.795-1.99l-.152-6.258 2.2-.053.152 6.26a4.954 4.954 0 0 1-1.43 3.586 5.014 5.014 0 0 1-3.57 1.49h-7.05c-2.691 0-4.9-2.12-4.98-4.711a4.508 4.508 0 0 1 .012-1.064c.41-2.213.078-3.648-.726-4.538a2.88 2.88 0 0 0-1.467-.886h-.056c-2.602-.16-4.146-1.184-4.579-2.849-.242-.93-.096-1.854.2-2.593v-.123l.135-.246 6.101-11.148c.01-.023.018-.048.016-.01z"/>
        <path fill="#FFF" d="M42.235 29.414c-2.337 0-4.235-1.882-4.235-4.207S39.898 21 42.235 21c2.337 0 4.236 1.882 4.236 4.207s-1.899 4.207-4.236 4.207zM56.53 33.586c-2.338 0-4.236-1.881-4.236-4.207 0-2.325 1.898-4.207 4.235-4.207 2.338 0 4.236 1.882 4.236 4.207 0 2.326-1.898 4.207-4.236 4.207zM42.51 52.828c-2.337 0-4.235-1.882-4.235-4.207 0-2.326 1.898-4.207 4.235-4.207 2.337 0 4.235 1.881 4.235 4.207 0 2.325-1.898 4.207-4.235 4.207zM29.569 48.552c-2.337 0-4.236-1.882-4.236-4.207 0-2.326 1.899-4.207 4.236-4.207 2.337 0 4.235 1.881 4.235 4.207 0 2.325-1.898 4.207-4.235 4.207zM27.39 32.493v-2.045h2.2v2.031a2.292 2.292 0 0 1-.598 1.58 2.133 2.133 0 0 1-1.57.696h-5.398c-1.224 0-2.183-1.03-2.183-2.262v-2.045h2.2v2.045c0 .051.01.062-.017.062h5.357a.163.163 0 0 0 .01-.062z"/>
        <path fill="#4EBEBC" d="M50.876 41.562a2.354 2.354 0 0 1-3.129-.154l-2.135-2.078a2.36 2.36 0 0 1-.22-3.132l1.203-1.566a1.1 1.1 0 0 1 1.744 1.34l-1.206 1.57a.161.161 0 0 0 .015.213l2.139 2.082a.155.155 0 0 0 .204.016l1.477-1.203a1.1 1.1 0 0 1 1.242-.102c.753.432 1.558.765 2.395.991a1.1 1.1 0 0 1 .804.92l.24 1.844c.013.078.079.136.123.137l2.968-.029c.078 0 .144-.06.152-.143l.2-1.845a1.1 1.1 0 0 1 .802-.943 9.818 9.818 0 0 0 2.355-.993 1.1 1.1 0 0 1 1.23.081l1.41 1.097c.063.05.152.043.205-.012l2.074-2.139c.056-.056.06-.148.032-.185l-1.147-1.335a1.1 1.1 0 0 1-.115-1.272c.433-.74.769-1.533.998-2.359a1.1 1.1 0 0 1 .923-.797l1.711-.216a.155.155 0 0 0 .134-.154l-.03-2.963a.162.162 0 0 0-.144-.16l-1.669-.18a1.1 1.1 0 0 1-.944-.807 10.007 10.007 0 0 0-1.034-2.465 1.1 1.1 0 0 1 .077-1.228L67 22.042a.161.161 0 0 0-.015-.213l-2.14-2.083a.156.156 0 0 0-.207-.012l-1.337 1.08a1.1 1.1 0 0 1-1.23.102 9.93 9.93 0 0 0-2.565-1.002 1.1 1.1 0 0 1-.84-.956l-.178-1.716a.161.161 0 0 0-.16-.142l-2.958.025a.155.155 0 0 0-.152.14l-.194 1.832a1.1 1.1 0 0 1-.764.933 9.681 9.681 0 0 0-2.294 1.07 1.1 1.1 0 0 1-1.278-.068l-1.468-1.174a1.1 1.1 0 0 1 1.374-1.718l.875.7a11.88 11.88 0 0 1 1.44-.667l.121-1.138a2.355 2.355 0 0 1 2.32-2.11l2.958-.025a2.366 2.366 0 0 1 2.365 2.092l.104.99c.583.179 1.152.402 1.702.667l.778-.627a2.354 2.354 0 0 1 3.129.153l2.135 2.08a2.36 2.36 0 0 1 .22 3.132l-.6.78c.265.522.492 1.063.68 1.618l.944.102a2.362 2.362 0 0 1 2.108 2.321l.031 2.967a2.357 2.357 0 0 1-2.054 2.358l-1.014.127c-.174.505-.382.998-.62 1.475l.676.788c.75.933.684 2.28-.15 3.129l-2.07 2.134a2.355 2.355 0 0 1-3.135.214l-.84-.653c-.484.243-.984.454-1.496.63l-.121 1.124a2.355 2.355 0 0 1-2.318 2.11l-3.001.029a2.368 2.368 0 0 1-2.29-2.024l-.151-1.169a12.323 12.323 0 0 1-1.529-.63l-.915.745z"/>
    </g>
</svg>
