<svg xmlns="http://www.w3.org/2000/svg" width="79" height="79" viewBox="0 0 79 79">
    <defs>
        <linearGradient id="a" x1="-8.056%" x2="92.887%" y1="-15.1%" y2="96.378%">
            <stop offset="0%" stop-color="#4FA4BD"/>
            <stop offset="57%" stop-color="#51B3BA"/>
            <stop offset="100%" stop-color="#52C2B8"/>
        </linearGradient>
    </defs>
    <g fill="none" fill-rule="nonzero">
        <g fill="#E1EAEF">
            <path d="M21.9 45.4v2.2h-1.786c-1.505 0-2.714-1.24-2.714-2.755V15.5h2.2v29.345c0 .313.236.555.514.555H21.9zM53.4 46.316l.002-23.614a.098.098 0 0 0-.036-.068.151.151 0 0 0-.108-.034 1.1 1.1 0 1 1-.132-2.196 2.351 2.351 0 0 1 1.682.569c.468.406.753.981.792 1.664v44.577l-.001 2.19c-.024.486-.247.945-.631 1.452a1.1 1.1 0 0 1-.33.29c-.55.314-1.032.478-1.446.451l-27.318-.002a2.35 2.35 0 0 1-1.69-.577 2.297 2.297 0 0 1-.783-1.614 1.1 1.1 0 1 1 2.198-.108.098.098 0 0 0 .035.068c.028.024.067.038.174.033l27.45.002c-.026-.001.01-.018.094-.06.027-.034.042-.045.046-.023l.002-23zM35.6 18.898h-2.2V14.17a2.766 2.766 0 0 1 2.762-2.769H56.5v2.2H36.162a.566.566 0 0 0-.562.57v4.728z"/>
            <path d="M54.5 26.6v-2.2h13.309c1.548 0 2.791 1.277 2.791 2.838V48.5h-2.2V27.238c0-.359-.272-.638-.591-.638H54.5z"/>
            <path d="M62.5 44.1v-2.2h7v2.2zM12.5 22.1v-2.2h4.9v2.2zM69.5 53.6a3.1 3.1 0 1 1 0-6.2 3.1 3.1 0 0 1 0 6.2zM69.5 40.6a3.1 3.1 0 1 1 0-6.2 3.1 3.1 0 0 1 0 6.2zM18.5 16.6a3.1 3.1 0 1 1 0-6.2 3.1 3.1 0 0 1 0 6.2z"/>
            <path d="M60.5 46.6a3.1 3.1 0 1 1 0-6.2 3.1 3.1 0 0 1 0 6.2zM18.5 39.6a3.1 3.1 0 1 1 0-6.2 3.1 3.1 0 0 1 0 6.2zM10.5 24.1a3.1 3.1 0 1 1 0-6.2 3.1 3.1 0 0 1 0 6.2zM58.5 15.6a3.1 3.1 0 1 1 0-6.2 3.1 3.1 0 0 1 0 6.2zM45.5 15.6a3.1 3.1 0 1 1 0-6.2 3.1 3.1 0 0 1 0 6.2z"/>
        </g>
        <path fill="url(#a)" d="M18 36.9v2.2h-4.386c-1.505 0-2.714-1.24-2.714-2.755V7h2.2v29.345c0 .313.236.555.514.555H18z" transform="translate(5 7)"/>
        <path fill="#4DA2BE" d="M51.9 62.876l.001-41.673a.098.098 0 0 0-.035-.068c-.028-.024-.067-.037-.174-.033l-27.45-.002a.151.151 0 0 0-.108.035c-.022.02-.034.044-.034.015l-.002 46.647a.098.098 0 0 0 .036.068c.028.024.067.037.174.033l27.45.002c.041.002.08-.011.108-.035.022-.019.034-.042.034-.007v-4.982zm2.198 5.052a2.298 2.298 0 0 1-.79 1.599c-.464.402-1.069.606-1.616.57l-27.318-.001a2.351 2.351 0 0 1-1.682-.57c-.468-.405-.753-.98-.792-1.663l.001-46.768c.03-.621.314-1.203.783-1.614.464-.407 1.072-.614 1.624-.579l27.318.002a2.35 2.35 0 0 1 1.69.577c.47.411.752.993.784 1.668v41.727l-.002 5.052z"/>
        <path fill="url(#a)" d="M22 35.6v-2.2h21v2.2zM24.42 28.935l1.16-1.87c.074.046.24.14.489.265.428.216.924.434 1.479.637 3.804 1.397 7.916 1.397 11.9-.918l1.105 1.902c-4.62 2.685-9.396 2.685-13.764 1.082-1.096-.403-1.906-.811-2.369-1.098zM26.028 42.566l-1.576-1.536c.428-.439 1.182-1.06 2.22-1.677 3.806-2.263 8.154-2.464 12.523.74.366.27.73.56 1.092.876l-1.446 1.658c-.315-.275-.631-.528-.947-.76-3.582-2.627-6.993-2.47-10.099-.623-.5.297-.947.616-1.331.933a6.141 6.141 0 0 0-.436.389z" transform="translate(5 7)"/>
        <path fill="url(#a)" d="M33.6 45c0 .97-1.166 1.466-1.864.791-6.672-6.444-6.672-13.248-2.655-19.365a19.56 19.56 0 0 1 1.821-2.362c.378-.42.679-.716.862-.881.708-.638 1.836-.136 1.836.817v21zm-2.2-18.061c-.163.223-.323.455-.48.694-3.062 4.663-3.433 9.586.48 14.532V26.939z" transform="translate(5 7)"/>
        <path fill="url(#a)" d="M34.08 27.633c-.157-.239-.317-.47-.48-.694v15.226c3.913-4.946 3.542-9.869.48-14.532zM31.4 45V24c0-.953 1.128-1.455 1.836-.817.183.165.484.462.862.88a19.56 19.56 0 0 1 1.821 2.363c4.017 6.117 4.017 12.92-2.655 19.365-.698.675-1.864.18-1.864-.791zM29.1 13h-2.2V5.67a2.766 2.766 0 0 1 2.762-2.77H50v2.2H29.662a.566.566 0 0 0-.562.57V13zM48 18.1v-2.2h13.309c1.548 0 2.791 1.277 2.791 2.838V40h-2.2V18.738c0-.359-.272-.638-.591-.638H48z" transform="translate(5 7)"/>
        <path fill="url(#a)" d="M56 35.6v-2.2h7v2.2zM6 13.6v-2.2h4.9v2.2z" transform="translate(5 7)"/>
        <path fill="#4DA2BE" d="M23 24.6v-2.2h30v2.2zM23 61.6v-2.2h30v2.2z"/>
        <path fill="#586FAF" d="M68 39.1a3.1 3.1 0 1 1 0-6.2 3.1 3.1 0 0 1 0 6.2zM68 52.1a3.1 3.1 0 1 1 0-6.2 3.1 3.1 0 0 1 0 6.2zM17 15.1a3.1 3.1 0 1 1 0-6.2 3.1 3.1 0 0 1 0 6.2zM59 45.1a3.1 3.1 0 1 1 0-6.2 3.1 3.1 0 0 1 0 6.2zM9 22.6a3.1 3.1 0 1 1 0-6.2 3.1 3.1 0 0 1 0 6.2zM57 14.1a3.1 3.1 0 1 1 0-6.2 3.1 3.1 0 0 1 0 6.2zM17 38.1a3.1 3.1 0 1 1 0-6.2 3.1 3.1 0 0 1 0 6.2zM44 14.1a3.1 3.1 0 1 1 0-6.2 3.1 3.1 0 0 1 0 6.2z"/>
        <path fill="url(#a)" d="M32.5 46.1c-6.407 0-11.6-5.193-11.6-11.6s5.193-11.6 11.6-11.6 11.6 5.193 11.6 11.6-5.193 11.6-11.6 11.6zm0-2.2a9.4 9.4 0 1 0 0-18.8 9.4 9.4 0 0 0 0 18.8z" transform="translate(5 7)"/>
        <path fill="#4DA2BE" d="M36 66.6a1.1 1.1 0 0 1 0-2.2h4a1.1 1.1 0 0 1 0 2.2h-4z"/>
    </g>
</svg>
