<svg xmlns="http://www.w3.org/2000/svg" width="79" height="79" viewBox="0 0 79 79">
    <defs>
        <linearGradient id="a" x1="-8.056%" x2="92.887%" y1="-15.1%" y2="96.378%">
            <stop offset="0%" stop-color="#4FA4BD"/>
            <stop offset="57%" stop-color="#51B3BA"/>
            <stop offset="100%" stop-color="#52C2B8"/>
        </linearGradient>
    </defs>
    <g fill="none" fill-rule="evenodd">
        <g fill="#E1EAEF">
            <path fill-rule="nonzero" stroke="#E1EAEF" stroke-width=".5" d="M12.005 10.483c-.043-.662.181-1.316.636-1.857.306-.378.808-.611 1.352-.626.545.011 1.049.245 1.352.626.464.542.693 1.201.65 1.868.045.67-.184 1.334-.65 1.88-.308.377-.81.61-1.352.626-.541-.022-1.04-.253-1.352-.626-.455-.554-.678-1.219-.636-1.891zm.852 0c-.02.46.092.916.325 1.332.137.3.47.506.851.524.378-.02.706-.225.839-.524a2.31 2.31 0 0 0 .338-1.31 2.31 2.31 0 0 0-.338-1.31c-.115-.307-.455-.517-.839-.517-.383 0-.723.21-.838.518-.242.397-.359.84-.338 1.287z"/>
            <path stroke="#E1EAEF" stroke-width=".5" d="M19.096 8.706H18L18.519 8H20v5h-.948zM9.096 8.706H8L8.519 8H10v5h-.948z"/>
            <path fill-rule="nonzero" stroke="#E1EAEF" stroke-width=".5" d="M22.005 10.483c-.043-.662.181-1.316.636-1.857.307-.377.809-.61 1.352-.626.545.011 1.049.245 1.352.626.464.542.693 1.201.65 1.868.045.67-.184 1.334-.65 1.88-.308.377-.81.61-1.352.626-.541-.022-1.04-.253-1.352-.626-.455-.554-.678-1.219-.636-1.891zm.852 0c-.02.46.092.916.325 1.332.14.299.471.503.851.524.368-.028.683-.232.812-.524a2.31 2.31 0 0 0 .338-1.31 2.31 2.31 0 0 0-.338-1.31c-.115-.307-.455-.517-.839-.517-.383 0-.723.21-.838.518-.233.4-.34.843-.311 1.287z"/>
            <path stroke="#E1EAEF" stroke-width=".5" d="M28.081 8.706H27L27.519 8H29v5h-.948z"/>
            <path fill-rule="nonzero" stroke="#E1EAEF" stroke-width=".5" d="M31.005 10.483a2.644 2.644 0 0 1 .625-1.857C31.936 8.235 32.45 8 33 8c.55 0 1.064.235 1.37.626.446.546.666 1.203.625 1.868a2.693 2.693 0 0 1-.625 1.88c-.306.391-.82.626-1.37.626-.55 0-1.064-.235-1.37-.626a2.732 2.732 0 0 1-.625-1.891zm.838 0c-.005.465.127.924.386 1.333.113.308.447.518.824.518.378 0 .711-.21.825-.518.24-.405.354-.856.332-1.31a2.342 2.342 0 0 0-.332-1.31c-.114-.309-.447-.518-.825-.518-.377 0-.711.21-.824.518-.257.393-.39.836-.386 1.287z"/>
            <path stroke="#E1EAEF" stroke-width=".5" d="M37.081 8.706H36L36.519 8H38v5h-.948zM46.081 8.706H45L45.519 8H47v5h-.948z"/>
            <path fill-rule="nonzero" stroke="#E1EAEF" stroke-width=".5" d="M40.006 10.483c-.046-.664.184-1.32.649-1.857.303-.381.807-.615 1.352-.626.544.015 1.046.248 1.352.626.453.546.677 1.203.636 1.868.043.669-.18 1.33-.636 1.88-.308.377-.81.61-1.352.626-.543-.019-1.043-.25-1.352-.626-.465-.55-.694-1.217-.65-1.891zm.852 0c-.016.46.1.917.338 1.332.132.299.46.504.838.524.38-.021.712-.225.852-.524.45-.831.45-1.787 0-2.62-.14-.298-.472-.502-.852-.523-.376.023-.703.227-.838.524-.237.4-.353.841-.338 1.287z"/>
            <path stroke="#E1EAEF" stroke-width=".5" d="M14.088 16.706H13l.53-.706H15v5h-.941z"/>
            <path fill-rule="nonzero" stroke="#E1EAEF" stroke-width=".5" d="M17.006 18.472a2.645 2.645 0 0 1 .625-1.846c.306-.391.82-.626 1.37-.626.549 0 1.063.235 1.369.626.448.55.668 1.21.625 1.88.04.665-.18 1.322-.625 1.868-.306.391-.82.626-1.37.626-.55 0-1.063-.235-1.37-.626a2.731 2.731 0 0 1-.624-1.902zm.837 0c-.017.463.092.923.32 1.344.144.292.468.49.837.512.368-.018.69-.218.825-.512.24-.41.354-.864.332-1.322a2.342 2.342 0 0 0-.332-1.31c-.114-.308-.447-.518-.825-.518-.377 0-.71.21-.824.518-.238.398-.353.841-.333 1.288zM7.006 18.472a2.645 2.645 0 0 1 .625-1.846C7.937 16.235 8.45 16 9 16c.549 0 1.063.235 1.369.626.448.55.668 1.21.625 1.88.04.665-.18 1.322-.625 1.868-.306.391-.82.626-1.37.626-.55 0-1.063-.235-1.37-.626a2.731 2.731 0 0 1-.624-1.902zm.837 0c-.017.463.092.923.32 1.344.144.292.468.49.837.512.368-.018.69-.218.825-.512.24-.41.354-.864.332-1.322a2.342 2.342 0 0 0-.332-1.31c-.114-.308-.447-.518-.825-.518-.377 0-.71.21-.824.518-.238.398-.353.841-.333 1.288z"/>
            <path stroke="#E1EAEF" stroke-width=".5" d="M24.081 16.706H23l.519-.706H25v5h-.948z"/>
            <path fill-rule="nonzero" stroke="#E1EAEF" stroke-width=".5" d="M27.006 18.472c-.042-.66.187-1.312.65-1.846.302-.381.806-.615 1.351-.626.544.015 1.046.248 1.352.626.455.55.68 1.211.636 1.88.041.665-.183 1.322-.636 1.868-.306.378-.808.611-1.352.626-.545-.011-1.049-.245-1.352-.626-.468-.553-.697-1.225-.649-1.902zm.852 0c-.02.464.096.926.338 1.343.137.295.464.495.838.513.376-.022.705-.22.852-.513.233-.412.344-.865.325-1.32a2.424 2.424 0 0 0-.325-1.31c-.14-.299-.472-.503-.852-.524-.376.023-.703.227-.838.524-.236.399-.352.84-.338 1.287zM12.006 26.472c-.04-.658.184-1.308.635-1.846.306-.378.809-.611 1.352-.626.545.011 1.05.245 1.352.626.466.546.695 1.21.65 1.88.043.667-.186 1.326-.65 1.868-.303.381-.807.615-1.352.626-.543-.017-1.044-.25-1.352-.626-.457-.557-.68-1.227-.635-1.902zm.852 0c-.018.463.093.923.324 1.343.143.297.473.5.852.524.376-.023.703-.227.838-.524.244-.409.36-.863.338-1.32a2.31 2.31 0 0 0-.338-1.333c-.115-.309-.455-.518-.838-.518-.384 0-.723.21-.838.518a2.262 2.262 0 0 0-.338 1.31zM12.006 42.472c-.04-.658.184-1.308.635-1.846.306-.378.809-.611 1.352-.626.545.011 1.05.245 1.352.626.466.546.695 1.21.65 1.88.043.667-.186 1.326-.65 1.868-.303.381-.807.615-1.352.626-.543-.017-1.044-.25-1.352-.626-.457-.557-.68-1.227-.635-1.902zm.852 0c-.018.463.093.923.324 1.343.143.297.473.5.852.524.376-.023.703-.227.838-.524.244-.409.36-.863.338-1.32a2.31 2.31 0 0 0-.338-1.333c-.115-.309-.455-.518-.838-.518-.384 0-.723.21-.838.518a2.262 2.262 0 0 0-.338 1.31z"/>
            <path stroke="#E1EAEF" stroke-width=".5" d="M19.096 24.706H18l.519-.706H20v5h-.948zM19.096 40.706H18l.519-.706H20v5h-.948zM9.096 24.706H8L8.519 24H10v5h-.948zM9.096 40.706H8L8.519 40H10v5h-.948z"/>
            <path fill-rule="nonzero" stroke="#E1EAEF" stroke-width=".5" d="M22.641 24.626c.308-.377.81-.61 1.352-.626.545.011 1.05.245 1.352.626.466.546-2.396 4.125-2.704 3.748-.457-.557-.68-1.227-.635-1.902-.04-.658.184-1.308.635-1.846zm.217 1.846c-.018.463.093.923.324 1.343.145.296 1.92-2.244 1.663-2.653-.115-.309-.455-.518-.838-.518-.384 0-.723.21-.839.518"/>
            <path stroke="#E1EAEF" stroke-width=".5" d="M14.088 32.706H13l.53-.706H15v5h-.941z"/>
            <path fill-rule="nonzero" stroke="#E1EAEF" stroke-width=".5" d="M17.006 34.472a2.643 2.643 0 0 1 .625-1.846c.307-.391.821-.626 1.371-.626s1.065.235 1.371.626c.836 1.147.836 2.6 0 3.748-.306.391-.82.626-1.37.626-.551 0-1.065-.235-1.372-.626a2.73 2.73 0 0 1-.625-1.902zm.838 0c-.019.463.09.924.32 1.344.143.295.466.497.838.524.37-.023.693-.227.826-.524a2.765 2.765 0 0 0 0-2.632c-.114-.308-.448-.518-.826-.518-.377 0-.711.21-.825.518-.238.398-.353.841-.333 1.288zM7.006 34.472a2.643 2.643 0 0 1 .625-1.846c.307-.391.821-.626 1.371-.626s1.065.235 1.371.626c.836 1.147.836 2.6 0 3.748-.306.391-.82.626-1.37.626-.551 0-1.065-.235-1.372-.626a2.73 2.73 0 0 1-.625-1.902zm.838 0c-.019.463.09.924.32 1.344.143.295.466.497.838.524.37-.023.693-.227.826-.524a2.765 2.765 0 0 0 0-2.632c-.114-.308-.448-.518-.826-.518-.377 0-.711.21-.825.518-.238.398-.353.841-.333 1.288z"/>
            <path fill-rule="nonzero" d="M68.98 70.085l.123-2.197c2.655.15 4.105-.799 3.741-3.817a1.934 1.934 0 0 0-.554-1.188L60.914 51.787l1.536-1.574 11.383 11.102a4.119 4.119 0 0 1 1.198 2.522c.562 4.65-2.21 6.464-6.052 6.248z"/>
            <path fill-rule="nonzero" d="M61.997 53.644l-1.619-1.49a21.002 21.002 0 0 0 1.86-2.334A20.795 20.795 0 0 0 65.9 38c0-11.543-9.357-20.9-20.9-20.9v-2.2c12.758 0 23.1 10.342 23.1 23.1 0 4.73-1.426 9.25-4.048 13.066a23.202 23.202 0 0 1-2.055 2.578z"/>
        </g>
        <path fill="#586FAF" fill-rule="nonzero" stroke="#586FAF" stroke-width=".5" d="M10.005 10.483c-.043-.662.181-1.316.636-1.857.306-.378.808-.611 1.352-.626.545.011 1.049.245 1.352.626.464.542.693 1.201.65 1.868.045.67-.184 1.334-.65 1.88-.308.377-.81.61-1.352.626-.541-.022-1.04-.253-1.352-.626-.455-.554-.678-1.219-.636-1.891zm.852 0c-.02.46.092.916.325 1.332.137.3.47.506.851.524.378-.02.706-.225.839-.524a2.31 2.31 0 0 0 .338-1.31 2.31 2.31 0 0 0-.338-1.31c-.115-.307-.455-.517-.839-.517-.383 0-.723.21-.838.518-.242.397-.359.84-.338 1.287z"/>
        <path fill="#586FAF" stroke="#586FAF" stroke-width=".5" d="M17.096 8.706H16L16.519 8H18v5h-.948zM7.096 8.706H6L6.519 8H8v5h-.948z"/>
        <path fill="#586FAF" fill-rule="nonzero" stroke="#586FAF" stroke-width=".5" d="M20.005 10.483c-.043-.662.181-1.316.636-1.857.307-.377.809-.61 1.352-.626.545.011 1.049.245 1.352.626.464.542.693 1.201.65 1.868.045.67-.184 1.334-.65 1.88-.308.377-.81.61-1.352.626-.541-.022-1.04-.253-1.352-.626-.455-.554-.678-1.219-.636-1.891zm.852 0c-.02.46.092.916.325 1.332.14.299.471.503.851.524.368-.028.683-.232.812-.524a2.31 2.31 0 0 0 .338-1.31 2.31 2.31 0 0 0-.338-1.31c-.115-.307-.455-.517-.839-.517-.383 0-.723.21-.838.518-.233.4-.34.843-.311 1.287z"/>
        <path fill="#586FAF" stroke="#586FAF" stroke-width=".5" d="M26.081 8.706H25L25.519 8H27v5h-.948z"/>
        <path fill="#586FAF" fill-rule="nonzero" stroke="#586FAF" stroke-width=".5" d="M29.005 10.483a2.644 2.644 0 0 1 .625-1.857C29.936 8.235 30.45 8 31 8c.55 0 1.064.235 1.37.626.446.546.666 1.203.625 1.868a2.693 2.693 0 0 1-.625 1.88c-.306.391-.82.626-1.37.626-.55 0-1.064-.235-1.37-.626a2.732 2.732 0 0 1-.625-1.891zm.838 0c-.005.465.127.924.386 1.333.113.308.447.518.824.518.378 0 .711-.21.825-.518.24-.405.354-.856.332-1.31a2.342 2.342 0 0 0-.332-1.31c-.114-.309-.447-.518-.825-.518-.377 0-.711.21-.824.518-.257.393-.39.836-.386 1.287z"/>
        <path fill="#586FAF" stroke="#586FAF" stroke-width=".5" d="M35.081 8.706H34L34.519 8H36v5h-.948zM44.081 8.706H43L43.519 8H45v5h-.948z"/>
        <path fill="#586FAF" fill-rule="nonzero" stroke="#586FAF" stroke-width=".5" d="M38.006 10.483c-.046-.664.184-1.32.649-1.857.303-.381.807-.615 1.352-.626.544.015 1.046.248 1.352.626.453.546.677 1.203.636 1.868.043.669-.18 1.33-.636 1.88-.308.377-.81.61-1.352.626-.543-.019-1.043-.25-1.352-.626-.465-.55-.694-1.217-.65-1.891zm.852 0c-.016.46.1.917.338 1.332.132.299.46.504.838.524.38-.021.712-.225.852-.524.45-.831.45-1.787 0-2.62-.14-.298-.472-.502-.852-.523-.376.023-.703.227-.838.524-.237.4-.353.841-.338 1.287z"/>
        <path fill="#586FAF" stroke="#586FAF" stroke-width=".5" d="M12.088 16.706H11l.53-.706H13v5h-.941z"/>
        <path fill="#586FAF" fill-rule="nonzero" stroke="#586FAF" stroke-width=".5" d="M15.006 18.472a2.645 2.645 0 0 1 .625-1.846c.306-.391.82-.626 1.37-.626.549 0 1.063.235 1.369.626.448.55.668 1.21.625 1.88.04.665-.18 1.322-.625 1.868-.306.391-.82.626-1.37.626-.55 0-1.063-.235-1.37-.626a2.731 2.731 0 0 1-.624-1.902zm.837 0c-.017.463.092.923.32 1.344.144.292.468.49.837.512.368-.018.69-.218.825-.512.24-.41.354-.864.332-1.322a2.342 2.342 0 0 0-.332-1.31c-.114-.308-.447-.518-.825-.518-.377 0-.71.21-.824.518-.238.398-.353.841-.333 1.288zM5.006 18.472a2.645 2.645 0 0 1 .625-1.846C5.937 16.235 6.45 16 7 16c.549 0 1.063.235 1.369.626.448.55.668 1.21.625 1.88.04.665-.18 1.322-.625 1.868-.306.391-.82.626-1.37.626-.55 0-1.063-.235-1.37-.626a2.731 2.731 0 0 1-.624-1.902zm.837 0c-.017.463.092.923.32 1.344.144.292.468.49.837.512.368-.018.69-.218.825-.512.24-.41.354-.864.332-1.322a2.342 2.342 0 0 0-.332-1.31c-.114-.308-.447-.518-.825-.518-.377 0-.71.21-.824.518-.238.398-.353.841-.333 1.288z"/>
        <path fill="#586FAF" stroke="#586FAF" stroke-width=".5" d="M22.081 16.706H21l.519-.706H23v5h-.948z"/>
        <path fill="#586FAF" fill-rule="nonzero" stroke="#586FAF" stroke-width=".5" d="M25.006 18.472c-.042-.66.187-1.312.65-1.846.302-.381.806-.615 1.351-.626.544.015 1.046.248 1.352.626.455.55.68 1.211.636 1.88.041.665-.183 1.322-.636 1.868-.306.378-.808.611-1.352.626-.545-.011-1.049-.245-1.352-.626-.468-.553-.697-1.225-.649-1.902zm.852 0c-.02.464.096.926.338 1.343.137.295.464.495.838.513.376-.022.705-.22.852-.513.233-.412.344-.865.325-1.32a2.424 2.424 0 0 0-.325-1.31c-.14-.299-.472-.503-.852-.524-.376.023-.703.227-.838.524-.236.399-.352.84-.338 1.287zM10.006 26.472c-.04-.658.184-1.308.635-1.846.306-.378.809-.611 1.352-.626.545.011 1.05.245 1.352.626.466.546.695 1.21.65 1.88.043.667-.186 1.326-.65 1.868-.303.381-.807.615-1.352.626-.543-.017-1.044-.25-1.352-.626-.457-.557-.68-1.227-.635-1.902zm.852 0c-.018.463.093.923.324 1.343.143.297.473.5.852.524.376-.023.703-.227.838-.524.244-.409.36-.863.338-1.32a2.31 2.31 0 0 0-.338-1.333c-.115-.309-.455-.518-.838-.518-.384 0-.723.21-.838.518a2.262 2.262 0 0 0-.338 1.31zM10.006 42.472c-.04-.658.184-1.308.635-1.846.306-.378.809-.611 1.352-.626.545.011 1.05.245 1.352.626.466.546.695 1.21.65 1.88.043.667-.186 1.326-.65 1.868-.303.381-.807.615-1.352.626-.543-.017-1.044-.25-1.352-.626-.457-.557-.68-1.227-.635-1.902zm.852 0c-.018.463.093.923.324 1.343.143.297.473.5.852.524.376-.023.703-.227.838-.524.244-.409.36-.863.338-1.32a2.31 2.31 0 0 0-.338-1.333c-.115-.309-.455-.518-.838-.518-.384 0-.723.21-.838.518a2.262 2.262 0 0 0-.338 1.31z"/>
        <path fill="#586FAF" stroke="#586FAF" stroke-width=".5" d="M17.096 24.706H16l.519-.706H18v5h-.948zM17.096 40.706H16l.519-.706H18v5h-.948zM7.096 24.706H6L6.519 24H8v5h-.948zM7.096 40.706H6L6.519 40H8v5h-.948z"/>
        <path fill="#586FAF" fill-rule="nonzero" stroke="#586FAF" stroke-width=".5" d="M20.006 26.472c-.04-.658.184-1.308.635-1.846.308-.377.81-.61 1.352-.626.545.011 1.05.245 1.352.626.466.546.695 1.21.65 1.88.043.667-.186 1.326-.65 1.868-.303.381-.807.615-1.352.626-.543-.017-1.044-.25-1.352-.626-.457-.557-.68-1.227-.635-1.902zm.852 0c-.018.463.093.923.324 1.343.145.296.474.498.852.524.376-.023.703-.227.838-.524.244-.409.36-.863.338-1.32a2.319 2.319 0 0 0-.365-1.333c-.115-.309-.455-.518-.838-.518-.384 0-.723.21-.839.518a2.253 2.253 0 0 0-.31 1.31z"/>
        <path fill="#586FAF" stroke="#586FAF" stroke-width=".5" d="M12.088 32.706H11l.53-.706H13v5h-.941z"/>
        <path fill="#586FAF" fill-rule="nonzero" stroke="#586FAF" stroke-width=".5" d="M15.006 34.472a2.643 2.643 0 0 1 .625-1.846c.307-.391.821-.626 1.371-.626s1.065.235 1.371.626c.836 1.147.836 2.6 0 3.748-.306.391-.82.626-1.37.626-.551 0-1.065-.235-1.372-.626a2.73 2.73 0 0 1-.625-1.902zm.838 0c-.019.463.09.924.32 1.344.143.295.466.497.838.524.37-.023.693-.227.826-.524a2.765 2.765 0 0 0 0-2.632c-.114-.308-.448-.518-.826-.518-.377 0-.711.21-.825.518-.238.398-.353.841-.333 1.288zM5.006 34.472a2.643 2.643 0 0 1 .625-1.846c.307-.391.821-.626 1.371-.626s1.065.235 1.371.626c.836 1.147.836 2.6 0 3.748-.306.391-.82.626-1.37.626-.551 0-1.065-.235-1.372-.626a2.73 2.73 0 0 1-.625-1.902zm.838 0c-.019.463.09.924.32 1.344.143.295.466.497.838.524.37-.023.693-.227.826-.524a2.765 2.765 0 0 0 0-2.632c-.114-.308-.448-.518-.826-.518-.377 0-.711.21-.825.518-.238.398-.353.841-.333 1.288z"/>
        <path fill="url(#a)" fill-rule="nonzero" d="M48.214 49.588l1.572-1.538L60.8 59.31c.347.348.808.554 1.303.578 2.655.15 4.105-.799 3.741-3.817a1.934 1.934 0 0 0-.554-1.188L53.914 43.787l1.536-1.574 11.383 11.102a4.119 4.119 0 0 1 1.198 2.522c.562 4.65-2.21 6.464-6.044 6.248a4.17 4.17 0 0 1-2.753-1.23l-11.02-11.267z" transform="translate(5 8)"/>
        <path fill="url(#a)" fill-rule="nonzero" d="M38 53.1c-12.758 0-23.1-10.342-23.1-23.1C14.9 17.242 25.242 6.9 38 6.9c12.758 0 23.1 10.342 23.1 23.1 0 12.758-10.342 23.1-23.1 23.1zm0-2.2c11.543 0 20.9-9.357 20.9-20.9S49.543 9.1 38 9.1 17.1 18.457 17.1 30 26.457 50.9 38 50.9z" transform="translate(5 8)"/>
        <g fill="#586FAF" stroke="#586FAF" stroke-width=".5">
            <path fill-rule="nonzero" d="M33.204 27.376a5.007 5.007 0 0 1 .957-3.204 2.468 2.468 0 0 1 2.074-1.117c.842 0 1.625.422 2.075 1.117a5.113 5.113 0 0 1 .957 3.264 5.056 5.056 0 0 1-.994 3.252 2.468 2.468 0 0 1-2.074 1.117 2.468 2.468 0 0 1-2.074-1.117 5.146 5.146 0 0 1-.92-3.312zm1.227 0c-.032.8.137 1.595.491 2.316.196.51.673.864 1.228.912a1.469 1.469 0 0 0 1.227-.912 4.71 4.71 0 0 0 .49-2.268 4.71 4.71 0 0 0-.49-2.292 1.323 1.323 0 0 0-1.264-.906c-.579 0-1.09.367-1.264.906a4.575 4.575 0 0 0-.369 2.256l-.049-.012z"/>
            <path d="M41.955 24.4H40.47l.711-1.2h2.074v8.4h-1.3z"/>
            <path fill-rule="nonzero" d="M45.698 27.376a5.007 5.007 0 0 1 .957-3.204 2.468 2.468 0 0 1 2.074-1.117c.841 0 1.624.422 2.074 1.117.688.951 1.03 2.1.97 3.264a5.054 5.054 0 0 1-.958 3.252 2.556 2.556 0 0 1-2.061 1.08 2.594 2.594 0 0 1-2.087-1.08 5.148 5.148 0 0 1-.97-3.312zm1.227 0c-.032.8.137 1.595.49 2.316.175.54.687.906 1.265.906.578 0 1.09-.367 1.264-.906a4.717 4.717 0 0 0 .601-2.256 4.71 4.71 0 0 0-.503-2.292 1.457 1.457 0 0 0-1.227-.9 1.445 1.445 0 0 0-1.227.9 4.459 4.459 0 0 0-.614 2.244l-.049-.012zM26.86 40.744a5.008 5.008 0 0 1 .956-3.144 2.544 2.544 0 0 1 2.074-1.08c.83.011 1.602.413 2.075 1.08a5.089 5.089 0 0 1 .957 3.264 5.077 5.077 0 0 1-.957 3.252 2.468 2.468 0 0 1-2.075 1.117 2.468 2.468 0 0 1-2.074-1.117 5.17 5.17 0 0 1-.957-3.372zm1.226 0c-.026.8.146 1.595.504 2.316.195.51.672.864 1.227.912a1.469 1.469 0 0 0 1.227-.912 4.71 4.71 0 0 0 .491-2.28 4.71 4.71 0 0 0-.49-2.28 1.47 1.47 0 0 0-1.228-.9 1.445 1.445 0 0 0-1.227.9 4.58 4.58 0 0 0-.467 2.256l-.037-.012z"/>
            <path d="M35.61 37.792h-1.485l.711-1.2h2.074v8.4h-1.3z"/>
            <path fill-rule="nonzero" d="M39.353 40.744a5.008 5.008 0 0 1 .957-3.144 2.47 2.47 0 0 1 2.05-1.08 2.47 2.47 0 0 1 2.05 1.08 5.089 5.089 0 0 1 .956 3.264 5.078 5.078 0 0 1-.957 3.192 2.557 2.557 0 0 1-2.074 1.08 2.594 2.594 0 0 1-2.074-1.08 5.169 5.169 0 0 1-.908-3.312zm1.227 0c-.03.8.138 1.594.49 2.316.175.54.687.906 1.265.906.578 0 1.09-.367 1.264-.906a4.71 4.71 0 0 0 .503-2.28 4.71 4.71 0 0 0-.503-2.28 1.457 1.457 0 0 0-1.227-.9 1.445 1.445 0 0 0-1.227.9 4.453 4.453 0 0 0-.516 2.256l-.049-.012z"/>
            <path d="M48.09 37.792h-1.472l.712-1.2h2.074v8.4h-1.313z"/>
        </g>
        <path fill="url(#a)" fill-rule="nonzero" d="M38 47.6c-9.72 0-17.6-7.88-17.6-17.6 0-9.72 7.88-17.6 17.6-17.6 9.72 0 17.6 7.88 17.6 17.6 0 9.72-7.88 17.6-17.6 17.6zm0-2.2c8.505 0 15.4-6.895 15.4-15.4S46.505 14.6 38 14.6 22.6 21.495 22.6 30 29.495 45.4 38 45.4z" transform="translate(5 8)"/>
    </g>
</svg>
