<svg xmlns="http://www.w3.org/2000/svg" width="79" height="79" viewBox="0 0 79 79">
    <defs>
        <linearGradient id="a" x1="2.288%" x2="59.875%" y1="-30.575%" y2="66.667%">
            <stop offset="0%" stop-color="#4FA4BD"/>
            <stop offset="36%" stop-color="#4FA8BC"/>
            <stop offset="74%" stop-color="#51B5BA"/>
            <stop offset="100%" stop-color="#52C2B8"/>
        </linearGradient>
        <linearGradient id="b" x1="309.91%" x2="1832.511%" y1="757%" y2="4106%">
            <stop offset="0%" stop-color="#4FA4BD"/>
            <stop offset="36%" stop-color="#4FA8BC"/>
            <stop offset="74%" stop-color="#51B5BA"/>
            <stop offset="100%" stop-color="#52C2B8"/>
        </linearGradient>
        <linearGradient id="c" x1="274.938%" x2="1353.435%" y1="639%" y2="3988%">
            <stop offset="0%" stop-color="#4FA4BD"/>
            <stop offset="36%" stop-color="#4FA8BC"/>
            <stop offset="74%" stop-color="#51B5BA"/>
            <stop offset="100%" stop-color="#52C2B8"/>
        </linearGradient>
    </defs>
    <g fill="none" fill-rule="nonzero" transform="translate(3 7)">
        <path fill="#9EBCCA" d="M72.76 57.386h-1.115V19.928a5.117 5.117 0 0 0-1.95-4.002v-.073h-.083a5.128 5.128 0 0 0-3.127-1.043H49.33v-.375l1.5-.771a1.24 1.24 0 0 0 .595-1.543l-1.032-2.74a1.24 1.24 0 0 0-1.407-.803l-1.647.406a10.87 10.87 0 0 0-2.084-2.178l.5-1.595a1.24 1.24 0 0 0-.667-1.511L42.43 2.45a1.24 1.24 0 0 0-1.574.49l-.938 1.552c-.92-.12-1.852-.12-2.772 0l-.823-1.615a1.24 1.24 0 0 0-1.543-.594l-2.741 1.042a1.24 1.24 0 0 0-.771 1.407l.458 1.855a11.131 11.131 0 0 0-1.865 1.751l-1.845-.594a1.24 1.24 0 0 0-1.511.667l-1.21 2.668a1.24 1.24 0 0 0 .49 1.574l1.647 1.042c-.057.37-.095.742-.115 1.115H9.527a5.117 5.117 0 0 0-3.128 1.043h-.145v.135a5.117 5.117 0 0 0-1.866 3.94v37.458H3.24a1.126 1.126 0 0 0-1.156 1.116v1.125a4.492 4.492 0 0 0 4.481 4.482h62.827a4.492 4.492 0 0 0 4.482-4.482v-1.125a1.126 1.126 0 0 0-1.115-1.116zm-37.188-45.42a4.805 4.805 0 0 1 6.483 3.866h-9.547a4.826 4.826 0 0 1 3.064-3.867z" opacity=".3"/>
        <path fill="#FFF" d="M4.117 14.8H67.58v41.252H4.117z"/>
        <path fill="#FFF" d="M2.001 56.042H70.76v4.232H2z"/>
        <path fill="url(#a)" d="M63.921 17.145H7.848c-.622 0-1.125.504-1.125 1.126v33.633c0 .622.503 1.126 1.125 1.126h56.073a1.126 1.126 0 0 0 1.116-1.126V18.26a1.126 1.126 0 0 0-1.126-1.125l.01.01zM62.796 50.78h-7.848V32.84a1.126 1.126 0 0 0-2.241 0V50.78h-6.733V45.17a1.126 1.126 0 1 0-2.241 0v5.608H37.01V37.323a1.126 1.126 0 1 0-2.24 0V50.78h-6.733v-4.482a1.126 1.126 0 0 0-2.241 0v4.482h-6.733a1.126 1.126 0 1 0-2.241 0H8.974V19.386h53.822v31.393z"/>
        <path fill="url(#b)" d="M70.644 55.24h-1.115V17.811a5.211 5.211 0 0 0-5.212-5.149H7.41a5.211 5.211 0 0 0-5.21 5.15v37.426H1.125A1.126 1.126 0 0 0 0 56.386v1.126a4.492 4.492 0 0 0 4.482 4.481h62.795a4.492 4.492 0 0 0 4.482-4.481v-1.126a1.126 1.126 0 0 0-1.115-1.147zM4.482 17.811A2.918 2.918 0 0 1 7.4 14.904h56.96a2.918 2.918 0 0 1 2.928 2.908V55.24H4.482V17.812zm62.795 41.94H4.482a2.24 2.24 0 0 1-2.241-2.24h29.183c0 .621.504 1.125 1.126 1.125h6.733c.621 0 1.125-.504 1.125-1.125h29.183a2.24 2.24 0 0 1-2.24 2.24h-.074z"/>
        <path fill="url(#c)" d="M17.937 48.475a3.366 3.366 0 0 0 3.367-3.366 3.45 3.45 0 0 0 0-.417l3.304-1.647a3.366 3.366 0 0 0 5.367-3.867l4.482-4.481a3.356 3.356 0 0 0 3.127-.105l4.169 3.68a3.366 3.366 0 1 0 5.899-.657l5.211-7.202a3.366 3.366 0 1 0-1.793-1.334l-5.21 7.202a3.356 3.356 0 0 0-2.606.292l-4.17-3.68a3.366 3.366 0 1 0-6.16.209l-4.48 4.482a3.366 3.366 0 0 0-4.9 3.064 3.45 3.45 0 0 0 0 .417l-3.272 1.667a3.366 3.366 0 1 0-2.335 5.785v-.042zm35.885-22.419a1.126 1.126 0 1 1 0 2.252 1.126 1.126 0 0 1 0-2.252zm-9.005 12.33a1.126 1.126 0 1 1 .167 2.245 1.126 1.126 0 0 1-.167-2.245zm-8.932-7.848a1.126 1.126 0 1 1 0 2.251 1.126 1.126 0 0 1 0-2.251zm-8.974 8.963a1.126 1.126 0 1 1-1.115 1.147c0-.622.504-1.126 1.125-1.126l-.01-.02zm-8.974 4.482a1.126 1.126 0 1 1 0 2.251 1.126 1.126 0 0 1 0-2.25z"/>
        <path fill="#FFF" d="M18.959 11.621h33.852v8.463H18.959zM14.685 48.642h5.285v2.116h-5.285z"/>
        <circle cx="36.229" cy="13.257" r="6.879" fill="#FFF"/>
        <path fill="#586FAF" d="M29.803 4.423a11.131 11.131 0 0 0-1.866 1.762l-1.824-.594a1.24 1.24 0 0 0-1.521.656l-1.21 2.668a1.24 1.24 0 0 0 .49 1.574l1.647 1.043a10.944 10.944 0 0 0-.114 2.668l-1.73.896a1.24 1.24 0 0 0-.595 1.543l1.043 2.74c.22.591.847.923 1.459.772l1.824-.459a11.058 11.058 0 0 0 1.918 2.085l-.563 1.772a1.24 1.24 0 0 0 .646 1.459l2.668 1.209a1.24 1.24 0 0 0 1.574-.49l.948-1.563c.926.156 1.869.191 2.804.104l.803 1.563a1.24 1.24 0 0 0 1.542.594l2.741-1.042c.59-.22.922-.847.771-1.46l-.469-1.667a10.881 10.881 0 0 0 2.085-1.876l1.626.521a1.24 1.24 0 0 0 1.5-.667l1.21-2.657a1.24 1.24 0 0 0-.49-1.574l-1.418-.855c.17-.963.208-1.945.115-2.918l1.49-.771a1.24 1.24 0 0 0 .595-1.543l-1.043-2.741A1.24 1.24 0 0 0 47 6.404l-1.647.406a10.87 10.87 0 0 0-2.084-2.178l.563-1.626a1.24 1.24 0 0 0-.667-1.511L40.507.285a1.24 1.24 0 0 0-1.574.49l-.938 1.553a10.673 10.673 0 0 0-2.783 0L34.39.671a1.24 1.24 0 0 0-1.532-.594L30.116 1.12a1.24 1.24 0 0 0-.772 1.46l.459 1.844zm11.142 7.15a4.836 4.836 0 1 1-6.254-2.835 4.846 4.846 0 0 1 6.254 2.835z"/>
    </g>
</svg>
