<svg xmlns="http://www.w3.org/2000/svg" xmlns:xlink="http://www.w3.org/1999/xlink" viewBox="0 0 114.36 90.41"><defs><style>.cls-1{fill:#9ebcca;opacity:0.2;}.cls-2{fill:url(#linear-gradient);}.cls-3{fill:url(#linear-gradient-2);}.cls-4{fill:url(#linear-gradient-3);}.cls-5{fill:url(#linear-gradient-4);}.cls-6{fill:url(#linear-gradient-5);}.cls-7{fill:url(#linear-gradient-6);}.cls-8{fill:#fff;}.cls-9{fill:url(#linear-gradient-7);}.cls-10{fill:#586faf;}</style><linearGradient id="linear-gradient" x1="85.48" y1="112.27" x2="8.82" y2="-5.56" gradientUnits="userSpaceOnUse"><stop offset="0" stop-color="#52c2b8"/><stop offset="0.51" stop-color="#559ab4"/><stop offset="1" stop-color="#586faf"/></linearGradient><linearGradient id="linear-gradient-2" x1="61.56" y1="122.83" x2="-15.1" y2="5" xlink:href="#linear-gradient"/><linearGradient id="linear-gradient-3" x1="69.9" y1="117.41" x2="-6.77" y2="-0.42" xlink:href="#linear-gradient"/><linearGradient id="linear-gradient-4" x1="140.99" y1="81.35" x2="64.33" y2="-36.47" xlink:href="#linear-gradient"/><linearGradient id="linear-gradient-5" x1="124.79" y1="86.9" x2="48.12" y2="-30.93" xlink:href="#linear-gradient"/><linearGradient id="linear-gradient-6" x1="137.99" y1="78.31" x2="61.33" y2="-39.52" xlink:href="#linear-gradient"/><linearGradient id="linear-gradient-7" x1="84.59" y1="80.48" x2="29.59" y2="-1.02" xlink:href="#linear-gradient"/></defs><title>Asset 22</title><g id="Layer_2" data-name="Layer 2"><g id="Layer_1-2" data-name="Layer 1"><path class="cls-1" d="M89.88,16H90a2,2,0,0,0,1.37-.61l9.24-9.64a1.75,1.75,0,0,0-.16-2.59A2.11,2.11,0,0,0,99,2.66a2,2,0,0,0-1.38.61L88.4,12.91a1.75,1.75,0,0,0,.16,2.59A2.06,2.06,0,0,0,89.88,16Z"/><path class="cls-1" d="M96.47,44.1a2.05,2.05,0,0,0-1.41-.54h0a2,2,0,0,0-1.41.54,1.75,1.75,0,0,0,0,2.59l9.81,9.13a2.1,2.1,0,0,0,2.82,0,1.75,1.75,0,0,0,0-2.59Z"/><path class="cls-1" d="M112.37,22.68H98.49a1.84,1.84,0,1,0,0,3.68h13.88a1.84,1.84,0,1,0,0-3.68Z"/><path class="cls-1" d="M22,17.41a2,2,0,0,0,1.37.61h.11a2.06,2.06,0,0,0,1.32-.47A1.75,1.75,0,0,0,25,15L15.74,5.33a2,2,0,0,0-1.37-.61,2.09,2.09,0,0,0-1.44.47,1.75,1.75,0,0,0-.16,2.59Z"/><path class="cls-1" d="M17.89,41.39,8.07,50.52a1.75,1.75,0,0,0,0,2.59,2.1,2.1,0,0,0,2.82,0L20.7,44a1.75,1.75,0,0,0,0-2.59A2.16,2.16,0,0,0,17.89,41.39Z"/><path class="cls-1" d="M19.85,25.55v-.06a1.91,1.91,0,0,0-2-1.81H4a1.84,1.84,0,1,0,0,3.68H17.86A1.91,1.91,0,0,0,19.85,25.55Z"/><path class="cls-2" d="M21,14.41a2,2,0,0,0,1.37.61h.11a2.06,2.06,0,0,0,1.32-.47A1.75,1.75,0,0,0,24,12L14.74,2.33a2,2,0,0,0-1.37-.61,2.09,2.09,0,0,0-1.44.47,1.75,1.75,0,0,0-.16,2.59Z"/><path class="cls-3" d="M15.89,41.39,6.07,50.52a1.75,1.75,0,0,0,0,2.59,2.1,2.1,0,0,0,2.82,0L18.7,44a1.75,1.75,0,0,0,0-2.59A2.16,2.16,0,0,0,15.89,41.39Z"/><path class="cls-4" d="M17.85,23.73v-.06a1.91,1.91,0,0,0-2-1.81H2a1.84,1.84,0,1,0,0,3.68H15.86A1.91,1.91,0,0,0,17.85,23.73Z"/><path class="cls-5" d="M88.88,15H89a2,2,0,0,0,1.37-.61l9.24-9.64a1.75,1.75,0,0,0-.16-2.59A2.11,2.11,0,0,0,98,1.71a2,2,0,0,0-1.38.61L87.4,12a1.75,1.75,0,0,0,.16,2.59A2.06,2.06,0,0,0,88.88,15Z"/><path class="cls-6" d="M95.5,41.39a2.05,2.05,0,0,0-1.41-.54h0a2,2,0,0,0-1.41.54,1.75,1.75,0,0,0,0,2.59l9.81,9.13a2.1,2.1,0,0,0,2.82,0,1.75,1.75,0,0,0,0-2.59Z"/><path class="cls-7" d="M109.4,21.86H95.52a1.84,1.84,0,1,0,0,3.68H109.4a1.84,1.84,0,1,0,0-3.68Z"/><path class="cls-8" d="M85.7,31.75A29.58,29.58,0,1,0,38.31,55.37l1.27,3,5,6v17l2,2,3,3,2,2h7l5-5,3-1,6-14,1-11,3-4.31h0A29.48,29.48,0,0,0,85.7,31.75Z"/><path class="cls-1" d="M56.87,1c-19.3,0-30.9,16-31,31.38A31.75,31.75,0,0,0,35.8,55.52c4.68,4.42,7.52,7.56,7.52,13.83v4.35a4.93,4.93,0,0,0,1,2.95,4.91,4.91,0,0,0,3.61,7.86,7.8,7.8,0,0,0,7.51,5.9h2.9a7.8,7.8,0,0,0,7.51-5.9,4.91,4.91,0,0,0,3.61-7.86,4.91,4.91,0,0,0,1-2.95V69.35c0-6.33,2.8-9.41,7.42-13.73a31.74,31.74,0,0,0,10-23.11C87.83,14.25,74.81,1,56.87,1Zm4.78,83.52a3.85,3.85,0,0,1-3.33,2h-2.9a3.85,3.85,0,0,1-3.33-2Zm4.87-10.81a1,1,0,0,1-.95,1H48.17a1,1,0,0,1-.95-1v-1h19.3ZM48.17,78.63h17.4a1,1,0,0,1,0,1.95H48.17a1,1,0,0,1,0-1.95ZM39,39.81a.95.95,0,1,1-.95-1A1,1,0,0,1,39,39.81Zm5.8-14.74a.95.95,0,1,1-.95-1A1,1,0,0,1,44.77,25.08Zm31.46,7.37a.95.95,0,1,1,.95,1A1,1,0,0,1,76.23,32.44ZM64.63,68.79V34.42h8.12a4.92,4.92,0,1,0,0-3.94H62.68a2,2,0,0,0-2,2V68.79h-1.9V25.08a2,2,0,0,0-2-2H48.25a4.92,4.92,0,1,0,0,3.94h6.67V68.79H53v-29a2,2,0,0,0-2-2H42.45a4.92,4.92,0,1,0,0,3.94h6.67v27h-1.9c-.17-7.47-3.75-11.42-8.75-16.15a27.77,27.77,0,0,1-8.64-20.25A26.92,26.92,0,0,1,54.92,5.05V16.24a2,2,0,0,0,2,2H64a4.92,4.92,0,1,0,0-3.94H58.83V5c15,.89,25.1,11.87,25.1,27.47a27.77,27.77,0,0,1-8.73,20.22c-5,4.63-8.5,8.52-8.66,16.06Zm4.8-52.55a.95.95,0,1,1-.95-1A1,1,0,0,1,69.43,16.24Z"/><path class="cls-9" d="M55.87,0c-19.3,0-30.9,16-31,31.55A32,32,0,0,0,34.8,54.82c4.68,4.44,7.52,7.6,7.52,13.91v4.38a5,5,0,0,0,1,3A4.95,4.95,0,0,0,46.92,84a7.81,7.81,0,0,0,7.51,5.93h2.9A7.81,7.81,0,0,0,64.83,84,4.91,4.91,0,0,0,69.43,79a5,5,0,0,0-1-3,5,5,0,0,0,1-3V68.72c0-6.37,2.8-9.46,7.42-13.8a32,32,0,0,0,10-23.24C86.83,13.32,73.81,0,55.87,0Zm4.78,84a3.84,3.84,0,0,1-3.33,2h-2.9a3.85,3.85,0,0,1-3.33-2Zm4.87-10.87a1,1,0,0,1-.95,1H47.17a1,1,0,0,1-.95-1v-1h19.3ZM47.17,78.05h17.4a1,1,0,0,1,0,2H47.17a1,1,0,0,1,0-2ZM38,39A.95.95,0,1,1,37,38,1,1,0,0,1,38,39Zm5.8-14.82a.95.95,0,1,1-.95-1A1,1,0,0,1,43.77,24.21Zm31.46,7.41a.95.95,0,1,1,.95,1A1,1,0,0,1,75.23,31.62ZM63.63,68.16V33.6h8.12a4.86,4.86,0,0,0,4.43,3,4.95,4.95,0,0,0,0-9.89,4.86,4.86,0,0,0-4.43,3H61.68a2,2,0,0,0-2,2V68.16h-1.9v-44a2,2,0,0,0-2-2H47.25a4.85,4.85,0,0,0-4.43-3,4.95,4.95,0,0,0,0,9.89,4.85,4.85,0,0,0,4.43-3h6.67v42H52V39a2,2,0,0,0-2-2H41.45a4.85,4.85,0,0,0-4.43-3A4.95,4.95,0,0,0,37,44a4.85,4.85,0,0,0,4.43-3h6.67V68.16h-1.9c-.17-7.51-3.75-11.48-8.75-16.24a28,28,0,0,1-8.64-20.36C28.89,14.73,41.7,4.92,53.92,4.07V15.32a2,2,0,0,0,2,2H63a4.85,4.85,0,0,0,4.43,3,4.95,4.95,0,0,0,0-9.89,4.85,4.85,0,0,0-4.43,3H57.83V4.06c15,.9,25.1,11.94,25.1,27.62A28,28,0,0,1,74.19,52c-5,4.66-8.5,8.57-8.66,16.15Zm4.8-52.84a.95.95,0,1,1-.95-1A1,1,0,0,1,68.43,15.32Z"/><path class="cls-8" d="M76.75,50.87A26,26,0,0,0,52.61,67.52a25.82,25.82,0,0,0,48.27,0A26,26,0,0,0,76.75,50.87Z"/><circle class="cls-8" cx="76.7" cy="67.52" r="10.91"/><path class="cls-10" d="M76.7,54.41A21.8,21.8,0,0,0,56.42,67.52a22.23,22.23,0,0,0,40.54,0A21.8,21.8,0,0,0,76.7,54.41Zm0,21.85a8.75,8.75,0,1,1,9.21-8.74,9,9,0,0,1-9.21,8.74Zm0-14a5.25,5.25,0,1,0,5.53,5.24,5.38,5.38,0,0,0-5.53-5.24Zm0,0"/></g></g></svg>