<?xml version="1.0" encoding="UTF-8"?>
<svg width="50px" height="50px" viewBox="0 0 50 50" version="1.1" xmlns="http://www.w3.org/2000/svg" xmlns:xlink="http://www.w3.org/1999/xlink">
    <!-- Generator: sketchtool 51.2 (57519) - http://www.bohemiancoding.com/sketch -->
    <title>32E63D56-53F6-4C93-B6D2-B679B9D6E19A</title>
    <desc>Created with sketchtool.</desc>
    <defs>
        <polygon id="path-1" points="0 0.0647868774 0 46.9348659 46.9864104 46.9348659 46.9864104 0.0647868774 2.27173587e-20 0.0647868774"></polygon>
    </defs>
    <g id="01-HomePage" stroke="none" stroke-width="1" fill="none" fill-rule="evenodd">
        <g id="homepage-mobile-en" transform="translate(-68.000000, -2025.000000)">
            <g id="03-Workflow" transform="translate(0.000000, 1915.000000)">
                <g id="process" transform="translate(68.000000, 91.000000)">
                    <g id="icon-copy">
                        <g id="icon/reserch" transform="translate(0.000000, 19.000000)">
                            <g id="icon/workflow/research">
                                <rect id="Rectangle" x="0" y="0" width="50.2873563" height="50.2873563"></rect>
                                <g id="research" stroke-width="1" fill-rule="evenodd">
                                    <polygon id="Fill-1" fill="#FFFFFF" points="32.8787117 16.0125206 37.1890565 16.0125206 37.1890565 5.11916769 32.8787117 5.11916769"></polygon>
                                    <polygon id="Fill-2" fill="#FFFFFF" points="39.4278616 16.0125206 43.7382064 16.0125206 43.7382064 3.37617096 39.4278616 3.37617096"></polygon>
                                    <polygon id="Fill-3" fill="#FFFFFF" points="45.9770115 15.6869706 50.2873563 15.6869706 50.2873563 0 45.9770115 0"></polygon>
                                    <polygon id="Fill-4" fill="#FFFFFF" points="8.990625 31.3857639 16.9393798 23.4370091 15.6168223 22.1144516 7.66806753 30.0632064"></polygon>
                                    <g id="Group-14" transform="translate(0.000000, 1.088135)">
                                        <path d="M7.86192529,21.6875958 C7.86192529,21.1713123 8.28098659,20.752251 8.79643199,20.752251 C9.31271552,20.752251 9.73177682,21.1713123 9.73177682,21.6875958 C9.73177682,22.2038793 9.31271552,22.6229406 8.79643199,22.6229406 C8.28098659,22.6229406 7.86192529,22.2038793 7.86192529,21.6875958 M11.6024665,21.6875958 C11.6024665,20.1404215 10.3436063,18.8815613 8.79643199,18.8815613 C7.25093391,18.8815613 5.99207375,20.1404215 5.99207375,21.6875958 C5.99207375,23.233932 7.25093391,24.4927921 8.79643199,24.4927921 C10.3436063,24.4927921 11.6024665,23.233932 11.6024665,21.6875958" id="Fill-5" fill="#FFFFFF"></path>
                                        <path d="M17.2138649,29.1689296 C17.2138649,29.6852131 16.7948036,30.1042744 16.2785201,30.1042744 C15.7622366,30.1042744 15.3440134,29.6852131 15.3440134,29.1689296 C15.3440134,28.6526461 15.7622366,28.2335848 16.2785201,28.2335848 C16.7948036,28.2335848 17.2138649,28.6526461 17.2138649,29.1689296 M13.4724856,29.1689296 C13.4724856,30.7161039 14.7313458,31.9749641 16.2785201,31.9749641 C17.8248563,31.9749641 19.0837165,30.7161039 19.0837165,29.1689296 C19.0837165,27.6217553 17.8248563,26.3628951 16.2785201,26.3628951 C14.7313458,26.3628951 13.4724856,27.6217553 13.4724856,29.1689296" id="Fill-7" fill="#FFFFFF"></path>
                                        <path d="M45.6355244,18.7607878 L29.493283,18.7607878 L29.493283,2.61938458 C30.3020714,2.66883381 31.1024784,2.779466 31.8936662,2.9428999 L31.8936662,0.809039751 C30.7596863,0.602023467 29.6072677,0.484686303 28.4414392,0.484686303 L27.6477371,0.484686303 C27.5060943,0.484686303 27.3904334,0.600347222 27.3904334,0.74115182 L27.3904334,20.6063338 C27.3904334,20.7479765 27.5060943,20.8627993 27.6477371,20.8627993 L47.5120809,20.8627993 C47.6545618,20.8627993 47.7693846,20.7479765 47.7693846,20.6063338 L47.7693846,19.8117936 C47.7693846,18.7683309 47.6746767,17.7148108 47.498671,16.6638051 L45.3664871,16.6638051 C45.4980723,17.3636375 45.591942,18.0634698 45.6355244,18.7607878" id="Fill-9" fill="#FFFFFF"></path>
                                        <g id="Group-13" transform="translate(0.000000, 1.676245)">
                                            <mask id="mask-2" fill="white">
                                                <use xlink:href="#path-1"></use>
                                            </mask>
                                            <g id="Clip-12"></g>
                                            <path d="M44.2122246,42.3505867 C43.9121767,42.6506346 43.4243894,42.6489583 43.1243415,42.3505867 L37.7611949,36.9874401 C38.1685225,36.6706298 38.5331058,36.3060465 38.8490781,35.8987189 L44.2122246,41.2618654 C44.5114344,41.5619133 44.5114344,42.0505388 44.2122246,42.3505867 M34.0332256,35.7143319 C32.0795618,35.7143319 30.4904813,34.1252514 30.4904813,32.1707495 C30.4904813,30.2170857 32.0795618,28.6288434 34.0332256,28.6288434 C35.9877275,28.6288434 37.5759698,30.2170857 37.5759698,32.1707495 C37.5759698,34.1252514 35.9877275,35.7143319 34.0332256,35.7143319 M23.4351652,44.3855484 C11.9185225,44.3855484 2.5491499,35.0161758 2.5491499,23.5003712 C2.5491499,15.2876078 7.50413075,7.76294301 14.9684507,4.43894875 L14.9542026,4.4146432 C14.9542026,4.4146432 18.2907687,2.71995929 21.3985273,2.7241499 C21.6658884,2.69565374 21.9206777,2.67051006 22.1603807,2.65458573 L22.1603807,24.463374 C22.1603807,24.6351892 22.2995091,24.7743175 22.4721624,24.7743175 L44.2826269,24.7743175 C44.0739344,28.243307 42.9885656,31.6167505 41.1287716,34.5744852 L39.9872486,33.432124 C40.0786039,33.0055196 40.1255388,32.5822677 40.1255388,32.1707495 C40.1255388,28.8123922 37.392421,26.0792744 34.0332256,26.0792744 C30.6740302,26.0792744 27.9417505,28.8123922 27.9417505,32.1707495 C27.9417505,35.530783 30.6740302,38.2630627 34.0332256,38.2630627 C34.4447438,38.2630627 34.8679957,38.216966 35.293762,38.1256106 L36.7353329,39.5663434 C32.9855723,42.6774545 28.2761614,44.3855484 23.4351652,44.3855484 M46.0141882,39.4599018 L42.9684507,36.4133261 C45.5213721,32.5629909 46.8699114,28.1041786 46.8699114,23.5003712 L46.8699114,22.5365302 C46.8699114,22.364715 46.730783,22.2255867 46.5589679,22.2255867 L24.7091116,22.2255867 L24.7091116,0.375730364 C24.7091116,0.20391523 24.5699832,0.0647868774 24.3981681,0.0647868774 L23.4351652,0.0647868774 C23.1150024,0.0647868774 22.7831058,0.0765205939 22.4394756,0.0949592912 L22.4394756,0.170390326 C20.9635417,0.206429598 19.5798012,0.405902778 18.306693,0.688350096 C17.643738,0.835021552 17.0092792,1.00264607 16.4142122,1.18787117 C15.1846863,1.57005508 14.1102131,2.01174569 13.220965,2.43332136 C12.9024784,2.58418343 12.6049449,2.73169301 12.3359076,2.87333573 C12.2738865,2.90602251 12.2194085,2.93619492 12.1599018,2.9688817 C4.70647749,7.05640565 -0.000419061303,14.8869852 -0.000419061303,23.5003712 C-0.000419061303,36.4225455 10.5129909,46.9351173 23.4351652,46.9351173 C28.9516882,46.9351173 34.3056154,44.9630148 38.5448396,41.375012 L41.3215398,44.1525503 C41.9476173,44.7786279 42.7807112,45.1239344 43.6691212,45.1239344 C44.5558549,45.1239344 45.3889488,44.7786279 46.0141882,44.1525503 C46.6402658,43.5264727 46.9864104,42.694217 46.9864104,41.8074832 C46.9864104,40.9190733 46.6402658,40.0859794 46.0141882,39.4599018" id="Fill-11" fill="#FFFFFF" mask="url(#mask-2)"></path>
                                        </g>
                                    </g>
                                </g>
                            </g>
                        </g>
                    </g>
                </g>
            </g>
        </g>
    </g>
</svg>