<svg xmlns="http://www.w3.org/2000/svg" xmlns:xlink="http://www.w3.org/1999/xlink" viewBox="0 0 90.85 90.85"><defs><style>.cls-1{opacity:0.2;}.cls-2{fill:#9ebcca;}.cls-3{fill:url(#linear-gradient);}.cls-4{fill:#586faf;}</style><linearGradient id="linear-gradient" x1="16.24" y1="9.15" x2="78.24" y2="81.81" gradientUnits="userSpaceOnUse"><stop offset="0" stop-color="#586faf"/><stop offset="0.17" stop-color="#577fb1"/><stop offset="0.72" stop-color="#53afb6"/><stop offset="1" stop-color="#52c2b8"/></linearGradient></defs><title>Asset 14</title><g id="Layer_2" data-name="Layer 2"><g id="Layer_1-2" data-name="Layer 1"><g class="cls-1"><path class="cls-2" d="M89,68.48H79.67V22.91l6.12-6.14a1.86,1.86,0,0,0,0-2.57L90.23,10a1.86,1.86,0,0,0,0-2.63h0L85.09,2.05a1.86,1.86,0,0,0-2.6,0l-3.2,3A5.59,5.59,0,0,0,74.08,1.5h-41a1.86,1.86,0,0,0-.5.1H32.4a1.86,1.86,0,0,0-.56.38L13.22,20.57a1.86,1.86,0,0,0-.38.55v.17a1.86,1.86,0,0,0-.1.49l-.1.21v46.5H3.35A1.86,1.86,0,0,0,1.5,70.34h0v7.45a5.59,5.59,0,0,0,5.59,5.59h5.59v1.87a5.59,5.59,0,0,0,5.59,5.59H74.08a5.59,5.59,0,0,0,5.59-5.59V83.4h5.59a5.59,5.59,0,0,0,5.59-5.59V70.37A1.86,1.86,0,0,0,89,68.48ZM83.73,6l2.59,2.6L83.19,11.5,80.63,8.94Zm-1.86,9.41L79.29,18,74.08,12.8l2.59-2.6ZM55.82,31.2l15.6-15.74,5.2,5.23L61.06,36.42Zm1.86,7.2L51.38,41l2.54-6.44ZM31.28,7.84V20.11H19Zm-14.88,16H33.17A1.86,1.86,0,0,0,34.94,22V5.2H74.08A1.86,1.86,0,0,1,75.58,6l-.28.18L51.92,29.87h0a1.86,1.86,0,0,0-.34.52h0L46.37,43.51a1.86,1.86,0,0,0,2.42,2.42l13-5.26h0a1.86,1.86,0,0,0,.52-.35h0L75.95,26.65V68.48H16.39ZM76,85.26a1.86,1.86,0,0,1-1.84,1.87H18.17a1.86,1.86,0,0,1-1.78-1.87V83.4H76Zm11.18-7.45a1.86,1.86,0,0,1-1.86,1.86H7.09a1.86,1.86,0,0,1-1.86-1.86h0V72.22h5.59v5.59h3.72V72.22H22v3.72H25.7v-3.7h7.45v5.59h3.72V72.23h7.44v3.72H48V72.23h7.46v5.59H59.2V72.23h7.45v3.72h3.72V72.23h7.45v5.59h3.72V72.23h5.59Z"/><path class="cls-2" d="M67.31,47.39,65.2,46.21a15.91,15.91,0,0,0,.11-3.12l-9.7,3.77a7,7,0,1,1-10.71-8.55L48.4,27.77a6.79,6.79,0,0,0-1.4.1l-1.27-2.33a1.82,1.82,0,0,0-2.28-.81l-4,1.61a1.82,1.82,0,0,0-1.06,2.17l.74,2.7a16.27,16.27,0,0,0-2.66,2.64L33.8,33a1.82,1.82,0,0,0-2.18,1L30,38a1.82,1.82,0,0,0,.8,2.31l2.45,1.4a16,16,0,0,0,0,3.9L30.69,47a1.82,1.82,0,0,0-.81,2.28l1.61,4a1.82,1.82,0,0,0,2.17,1.06l2.66-.74a16.17,16.17,0,0,0,2.82,2.94l-.75,2.6a1.82,1.82,0,0,0,1,2.18L43.33,63a1.8,1.8,0,0,0,2.28-.78l1.33-2.32a15.79,15.79,0,0,0,4.11,0l1.23,2.25a1.82,1.82,0,0,0,2.28.81l4-1.61a1.82,1.82,0,0,0,1.06-2.17l-.67-2.45a15.91,15.91,0,0,0,2.89-2.8l2.39.7a1.82,1.82,0,0,0,2.18-1L68,49.66A1.82,1.82,0,0,0,67.31,47.39Z"/></g><path class="cls-3" d="M87.49,67H78.18V21.41l6.11-6.16a1.86,1.86,0,0,0,0-2.57l4.44-4.19a1.86,1.86,0,0,0,0-2.63h0L83.59.56a1.86,1.86,0,0,0-2.6,0l-3.2,3A5.59,5.59,0,0,0,72.59,0h-41a1.86,1.86,0,0,0-.5.1h-.15a1.86,1.86,0,0,0-.56.38l-18.6,18.6a1.86,1.86,0,0,0-.38.55v.17a1.86,1.86,0,0,0-.1.49l-.07.2V67H1.86A1.86,1.86,0,0,0,0,68.88H0v7.44A5.59,5.59,0,0,0,5.59,81.9h5.59v1.86a5.59,5.59,0,0,0,5.59,5.59H72.68a5.59,5.59,0,0,0,5.59-5.59V81.9h5.59a5.59,5.59,0,0,0,5.59-5.59V68.88A1.86,1.86,0,0,0,87.59,67ZM82.24,4.47l2.59,2.6L81.69,10,79.13,7.45ZM80.38,14l-2.59,2.6-5.2-5.28,2.59-2.6ZM54.31,29.69,69.88,14l5.2,5.23L59.57,34.94Zm1.86,7.2-6.3,2.57L52.41,33ZM29.78,6.35V18.62H17.51Zm-14.9,16H31.66a1.86,1.86,0,0,0,1.89-1.83s0,0,0-.06V3.7H72.68a1.86,1.86,0,0,1,1.51.84l-.28.18L50.43,28.37h0a1.86,1.86,0,0,0-.34.52h0L44.88,42a1.86,1.86,0,0,0,2.42,2.42l13-5.3h0a1.86,1.86,0,0,0,.52-.35h0L74.45,25.16V67H14.88Zm59.57,61.5a1.86,1.86,0,0,1-1.86,1.86H16.77a1.86,1.86,0,0,1-1.86-1.86h0v-2H74.45Zm11.18-7.45a1.86,1.86,0,0,1-1.86,1.86H5.59a1.86,1.86,0,0,1-1.88-1.84s0-.08,0-.11V70.72H9.31v5.59H13V70.72h7.45v3.72h3.72v-3.7h7.45v5.59h3.72V70.73h7.45v3.72h3.73V70.73H54v5.59h3.72V70.73h7.45v3.72h3.72V70.73h7.44v5.59H80V70.73h5.59Z"/><path class="cls-4" d="M65.82,45.9,63.7,44.72a15.91,15.91,0,0,0,.11-3.12l-9.7,3.77a7,7,0,1,1-10.71-8.55L46.9,26.29a6.79,6.79,0,0,0-1.4.1l-1.27-2.33A1.82,1.82,0,0,0,42,23.24l-4,1.61A1.82,1.82,0,0,0,36.93,27l.81,2.7a16.27,16.27,0,0,0-2.66,2.64l-2.71-.8a1.82,1.82,0,0,0-2.18,1l-1.68,4a1.82,1.82,0,0,0,.84,2.28l2.45,1.4a16,16,0,0,0,0,3.9l-2.5,1.4a1.82,1.82,0,0,0-.81,2.28L30,51.71a1.82,1.82,0,0,0,2.17,1.06L34.8,52a16.17,16.17,0,0,0,2.94,3L37,57.62a1.82,1.82,0,0,0,1,2.18l3.91,1.69a1.8,1.8,0,0,0,2.28-.78l1.33-2.32a15.79,15.79,0,0,0,4.11,0l1.23,2.25a1.82,1.82,0,0,0,2.24.85l4-1.61a1.82,1.82,0,0,0,1.06-2.17l-.67-2.45a15.91,15.91,0,0,0,2.89-2.8l2.39.7a1.82,1.82,0,0,0,2.18-1l1.66-3.93A1.82,1.82,0,0,0,65.82,45.9Z"/></g></g></svg>