<svg xmlns="http://www.w3.org/2000/svg" xmlns:xlink="http://www.w3.org/1999/xlink" viewBox="0 0 99.32 88.15"><defs><style>.cls-1{opacity:0.2;}.cls-2{fill:#9ebcca;}.cls-3{fill:url(#linear-gradient);}.cls-4{fill:url(#linear-gradient-2);}.cls-5{fill:url(#linear-gradient-3);}.cls-6{fill:url(#linear-gradient-4);}.cls-7{fill:#586faf;}.cls-8{fill:#fff;}</style><linearGradient id="linear-gradient" x1="86.4" y1="8.34" x2="8.65" y2="70.34" gradientTransform="matrix(1, 0, 0, -1, 0, 78.38)" gradientUnits="userSpaceOnUse"><stop offset="0" stop-color="#52c2b8"/><stop offset="0.19" stop-color="#52bcb7"/><stop offset="0.45" stop-color="#54a9b5"/><stop offset="0.76" stop-color="#568cb2"/><stop offset="1" stop-color="#586faf"/></linearGradient><linearGradient id="linear-gradient-2" x1="86.25" y1="8.15" x2="8.5" y2="70.15" xlink:href="#linear-gradient"/><linearGradient id="linear-gradient-3" x1="88.42" y1="10.88" x2="10.67" y2="72.88" xlink:href="#linear-gradient"/><linearGradient id="linear-gradient-4" x1="90.59" y1="13.59" x2="12.84" y2="75.59" xlink:href="#linear-gradient"/></defs><title>Asset 17</title><g id="Layer_2" data-name="Layer 2"><g id="Layer_1-2" data-name="Layer 1"><g class="cls-1"><path class="cls-2" d="M87.56,1H1.17A.17.17,0,0,0,1,1.17V72.29a.17.17,0,0,0,.17.17H35.89v6.8A8.54,8.54,0,0,0,52.95,80q0-.36,0-.72V72.41H87.56a.17.17,0,0,0,.17-.17h0V1.17A.17.17,0,0,0,87.56,1ZM38.92,75.2h10.8v4a5.4,5.4,0,0,1-10.8,0Zm0-3.14V51.51h10.8V72.06Zm5.4-29.26a1.21,1.21,0,1,1,1.21-1.21h0a1.21,1.21,0,0,1-1.17,1.21ZM42.8,33.22v4.32a4.35,4.35,0,1,0,3.14,0V33.22l6.45,7.37-2.23,7.8H38.58l-2.23-7.8Zm13,6.51L46.7,29.35A25,25,0,0,1,69.25,52.57H66.66a.17.17,0,0,0-.17.17h0v8.36a.17.17,0,0,0,.17.17H75a.17.17,0,0,0,.17-.17h0V52.74a.17.17,0,0,0-.17-.17H72.29A28,28,0,0,0,57.12,29.21h9.31v2.61a.17.17,0,0,0,.17.17H75a.17.17,0,0,0,.17-.17h0V23.46A.17.17,0,0,0,75,23.3H66.66a.17.17,0,0,0-.17.17h0v2.61H22.23V23.46a.17.17,0,0,0-.17-.17H13.71a.17.17,0,0,0-.17.17v8.36a.17.17,0,0,0,.17.17h8.36a.17.17,0,0,0,.17-.17h0V29.21h9.31A28,28,0,0,0,16.41,52.57h-2.7a.17.17,0,0,0-.17.17h0v8.36a.17.17,0,0,0,.17.17h8.36a.17.17,0,0,0,.17-.17h0V52.74a.17.17,0,0,0-.17-.17H19.55A25,25,0,0,1,42,29.35l-9.1,10.37a.17.17,0,0,0,0,.17l3,10.27V63.7H9.71V20.85H79V63.7H52.9V50.16l2.93-10.27A.18.18,0,0,0,55.8,39.72ZM16.67,28.86V26.44h2.44v2.44Zm0,29.26V55.69h2.44v2.44Zm52.95,0V55.69h2.44v2.44Zm0-29.26V26.44h2.44v2.44ZM82,17.68H6.75a.17.17,0,0,0-.17.17V66.66a.17.17,0,0,0,.17.17H35.89v2.43H4.14v-54H84.6v54H52.9V66.84H82a.17.17,0,0,0,.17-.17h0V17.9a.17.17,0,0,0-.11-.21ZM4.14,12.15v-8H84.6v8Z"/><rect class="cls-2" x="6.57" y="6.57" width="3.14" height="3.14" rx="0.17" ry="0.17"/><rect class="cls-2" x="12.15" y="6.57" width="3.14" height="3.14" rx="0.17" ry="0.17"/><rect class="cls-2" x="17.71" y="6.57" width="3.14" height="3.14" rx="0.17" ry="0.17"/></g><path class="cls-3" d="M86.56,0H.17A.17.17,0,0,0,0,.17V71.29a.17.17,0,0,0,.17.17H34.89v6.8A8.54,8.54,0,0,0,51.95,79q0-.36,0-.72V71.41H86.56a.17.17,0,0,0,.17-.17h0V.17A.17.17,0,0,0,86.56,0ZM37.92,74.2h10.8v4a5.4,5.4,0,0,1-10.8,0Zm0-3.14V50.51h10.8V71.06Zm5.4-29.26a1.21,1.21,0,1,1,1.21-1.21h0a1.21,1.21,0,0,1-1.17,1.21ZM41.8,32.22v4.32a4.35,4.35,0,1,0,3.14,0V32.22l6.45,7.37-2.23,7.8H37.58l-2.23-7.8Zm13,6.51L45.7,28.35A25,25,0,0,1,68.25,51.57H65.66a.17.17,0,0,0-.17.17h0v8.36a.17.17,0,0,0,.17.17H74a.17.17,0,0,0,.17-.17h0V51.74a.17.17,0,0,0-.17-.17H71.29A28,28,0,0,0,56.12,28.21h9.31v2.61a.17.17,0,0,0,.17.17H74a.17.17,0,0,0,.17-.17h0V22.46A.17.17,0,0,0,74,22.3H65.66a.17.17,0,0,0-.17.17h0v2.61H21.23V22.46a.17.17,0,0,0-.17-.17H12.71a.17.17,0,0,0-.17.17v8.36a.17.17,0,0,0,.17.17h8.36a.17.17,0,0,0,.17-.17h0V28.21h9.31A28,28,0,0,0,15.41,51.57h-2.7a.17.17,0,0,0-.17.17h0v8.36a.17.17,0,0,0,.17.17h8.36a.17.17,0,0,0,.17-.17h0V51.74a.17.17,0,0,0-.17-.17H18.55A25,25,0,0,1,41,28.35l-9.1,10.37a.17.17,0,0,0,0,.17l3,10.27V62.7H8.71V19.85H78V62.7H51.9V49.16l2.93-10.27A.18.18,0,0,0,54.8,38.72ZM15.67,27.86V25.44h2.44v2.44Zm0,29.26V54.69h2.44v2.44Zm52.95,0V54.69h2.44v2.44Zm0-29.26V25.44h2.44v2.44ZM81,16.68H5.75a.17.17,0,0,0-.17.17V65.66a.17.17,0,0,0,.17.17H34.89v2.43H3.14v-54H83.6v54H51.9V65.84H81a.17.17,0,0,0,.17-.17h0V16.9a.17.17,0,0,0-.11-.21ZM3.14,11.15v-8H83.6v8Z"/><rect class="cls-4" x="5.57" y="5.57" width="3.14" height="3.14" rx="0.17" ry="0.17"/><rect class="cls-5" x="11.15" y="5.57" width="3.14" height="3.14" rx="0.17" ry="0.17"/><rect class="cls-6" x="16.71" y="5.57" width="3.14" height="3.14" rx="0.17" ry="0.17"/><path class="cls-7" d="M81.78,81.3a3.28,3.28,0,0,1-3-2l-.45-1.07A15.55,15.55,0,0,1,76.74,78l-.68,1a3.29,3.29,0,0,1-4.26,1l-3.21-1.79a3.28,3.28,0,0,1-1.46-4.12l.48-1.21q-.44-.52-.84-1.08L65.56,72a3.1,3.1,0,0,1-.6.06h0A3.31,3.31,0,0,1,61.8,69.7l-1-3.47a3.29,3.29,0,0,1,1.9-4l1.14-.49q0-.59.12-1.18l-1-.7a3.3,3.3,0,0,1-1-4.28l1.79-3.21a3.29,3.29,0,0,1,4.12-1.46l1,.41a15,15,0,0,1,1.17-1l-.19-1.12a3.26,3.26,0,0,1,2.31-3.75l3.47-1a3.28,3.28,0,0,1,4,1.9l.38.89a15.31,15.31,0,0,1,1.73.17l.5-.76a3.29,3.29,0,0,1,4.28-1l3.21,1.79a3.28,3.28,0,0,1,1.46,4.12l-.36.89a15.38,15.38,0,0,1,1,1.31l.9-.16a3.14,3.14,0,0,1,.61-.06,3.31,3.31,0,0,1,3.16,2.36l1,3.47a3.29,3.29,0,0,1-1.9,4l-.89.38q0,.73-.16,1.46l.84.58a3.3,3.3,0,0,1,1,4.22l-1.8,3.24a3.29,3.29,0,0,1-4.12,1.46l-1-.39q-.56.51-1.17,1l.18,1.18a3.25,3.25,0,0,1-2.31,3.73l-3.47,1A3.31,3.31,0,0,1,81.78,81.3ZM79.23,58.46a4.24,4.24,0,1,0,2.2.61L81.26,59A4.2,4.2,0,0,0,79.23,58.46Z"/><path class="cls-8" d="M76.45,46.1a1.54,1.54,0,0,1,1.42,1l.84,2h.54a13.49,13.49,0,0,1,3.16.38l1.15-1.73a1.54,1.54,0,0,1,2-.47L88.75,49a1.54,1.54,0,0,1,.69,1.93l-.78,1.95a13.53,13.53,0,0,1,2.27,2.83l2-.36a1.54,1.54,0,0,1,1.78,1.08l1,3.47a1.54,1.54,0,0,1-.89,1.85l-1.95.83a13.49,13.49,0,0,1-.38,3.41l1.78,1.24a1.54,1.54,0,0,1,.49,2L93,72.34a1.54,1.54,0,0,1-1.93.69l-2-.82a13.41,13.41,0,0,1-2.67,2.18l.36,2.28a1.54,1.54,0,0,1-1.08,1.78l-3.48,1a1.54,1.54,0,0,1-1.85-.89l-.89-2.12h-.2a13.72,13.72,0,0,1-3.3-.4L74.63,78a1.54,1.54,0,0,1-2,.47l-3.19-1.78a1.54,1.54,0,0,1-.69-1.93l.89-2.24a13.58,13.58,0,0,1-2-2.63l-2.35.41a1.54,1.54,0,0,1-1.78-1.08l-1-3.48a1.54,1.54,0,0,1,.89-1.85l2.2-.93a13.81,13.81,0,0,1,.32-3.17l-2-1.33a1.54,1.54,0,0,1-.47-2l1.78-3.19a1.54,1.54,0,0,1,1.93-.69l2.09.85a13.24,13.24,0,0,1,2.67-2.22L71.47,49a1.54,1.54,0,0,1,1.08-1.78l3.48-1a1.54,1.54,0,0,1,.43-.06m2.77,22.62a6,6,0,0,0,2.89-11.27h0a6,6,0,1,0-2.87,11.27M76.45,42.6h0a5,5,0,0,0-1.4.2l-3.5,1A5,5,0,0,0,68,49.17a5,5,0,0,0-5.88,2.43l-1.76,3.16a5.05,5.05,0,0,0,1.06,6.2,5,5,0,0,0-2.3,5.76l1,3.5A5.06,5.06,0,0,0,65,73.82l.41,0a5,5,0,0,0,2.4,6l3.16,1.76a5,5,0,0,0,6.35-1.24,5,5,0,0,0,5.9,2.57l3.5-1a5,5,0,0,0,3.58-5.36A5,5,0,0,0,96.1,74l1.76-3.16,0,0,0,0a5.05,5.05,0,0,0-1.14-6.1,5,5,0,0,0,2.34-5.78l-1-3.49a5.06,5.06,0,0,0-4.83-3.62l-.43,0a5,5,0,0,0-2.42-5.92l-3.16-1.76a5.1,5.1,0,0,0-2.43-.63,5,5,0,0,0-3.89,1.83,5,5,0,0,0-4.48-2.72Zm2.77,22.62a2.47,2.47,0,0,1-1.2-.31,2.5,2.5,0,0,1,1.21-4.69,2.48,2.48,0,0,1,1.19.3l.18.1a2.51,2.51,0,0,1-1.38,4.6Z"/><path class="cls-7" d="M65.86,59.78a13.81,13.81,0,0,0-.32,3.17l-2.2.93a1.54,1.54,0,0,0-.89,1.85l1,3.48a1.54,1.54,0,0,0,1.78,1.08l2.35-.41a13.58,13.58,0,0,0,2,2.63l-.89,2.24a1.54,1.54,0,0,0,.69,1.93l3.19,1.78a1.54,1.54,0,0,0,2-.47L76,76.08a13.72,13.72,0,0,0,3.5.4l.89,2.12a1.54,1.54,0,0,0,1.85.89l3.48-1a1.54,1.54,0,0,0,1.08-1.78l-.36-2.28a13.41,13.41,0,0,0,2.67-2.18l2,.82A1.54,1.54,0,0,0,93,72.34l1.78-3.19a1.54,1.54,0,0,0-.49-2l-1.78-1.24a13.5,13.5,0,0,0,.38-3.41l1.95-.83a1.54,1.54,0,0,0,.89-1.85l-1-3.47A1.54,1.54,0,0,0,93,55.31l-2,.36a13.53,13.53,0,0,0-2.27-2.83l.78-1.95A1.54,1.54,0,0,0,88.75,49l-3.19-1.78a1.54,1.54,0,0,0-2,.47l-1.15,1.73a13.49,13.49,0,0,0-3.7-.36l-.84-2A1.54,1.54,0,0,0,76,46.16l-3.48,1A1.54,1.54,0,0,0,71.47,49l.38,2.22a13.24,13.24,0,0,0-2.67,2.22l-2.09-.85a1.54,1.54,0,0,0-1.93.69l-1.78,3.19a1.54,1.54,0,0,0,.47,2Zm16.25-2.34A6,6,0,1,1,74,59.84a6,6,0,0,1,8.16-2.4Z"/><circle class="cls-8" cx="79.11" cy="62.8" r="8.03"/><path class="cls-7" d="M73.6,63.28l2.13,1.48a.55.55,0,0,0,.62-.89l-1.49-1,1.54-1.06a.55.55,0,0,0-.62-.89L73.6,62.37a.55.55,0,0,0,0,.89Z"/><path class="cls-7" d="M81.83,63.85a.55.55,0,1,0,.62.89l2.17-1.46a.55.55,0,0,0,0-.89L82.46,60.9a.55.55,0,1,0-.62.89l1.49,1Z"/><path class="cls-7" d="M77.73,65.28a.55.55,0,0,0,.75-.21h0l2.22-3.95a.55.55,0,0,0-1-.54h0l-2.24,3.95a.55.55,0,0,0,.21.75Z"/></g></g></svg>