<svg xmlns="http://www.w3.org/2000/svg" xmlns:xlink="http://www.w3.org/1999/xlink" viewBox="0 0 100.56 79"><defs><style>.cls-1{opacity:0.2;}.cls-2{fill:#9ebcca;}.cls-3{fill:url(#linear-gradient);}.cls-4{fill:url(#linear-gradient-2);}.cls-5{fill:url(#linear-gradient-3);}.cls-6{fill:url(#linear-gradient-4);}.cls-7{fill:url(#linear-gradient-5);}.cls-8{fill:url(#linear-gradient-6);}.cls-9{fill:url(#linear-gradient-7);}.cls-10{fill:#fff;}.cls-11{fill:#586faf;}</style><linearGradient id="linear-gradient" x1="-3.09" y1="-215.64" x2="72.91" y2="-286.4" gradientTransform="matrix(1, 0, 0, -1, 0, -208)" gradientUnits="userSpaceOnUse"><stop offset="0.03" stop-color="#4fa4bd"/><stop offset="1" stop-color="#52c2b8"/></linearGradient><linearGradient id="linear-gradient-2" x1="77.65" y1="64.51" x2="13.15" y2="6.51" gradientUnits="userSpaceOnUse"><stop offset="0" stop-color="#52c2b8"/><stop offset="0.51" stop-color="#559ab4"/><stop offset="1" stop-color="#586faf"/></linearGradient><linearGradient id="linear-gradient-3" x1="174.27" y1="-46.21" x2="191.77" y2="-21.96" xlink:href="#linear-gradient"/><linearGradient id="linear-gradient-4" x1="174.32" y1="-46.25" x2="191.82" y2="-22" xlink:href="#linear-gradient"/><linearGradient id="linear-gradient-5" x1="192.18" y1="-59.14" x2="209.68" y2="-34.89" xlink:href="#linear-gradient"/><linearGradient id="linear-gradient-6" x1="197.22" y1="-62.77" x2="214.72" y2="-38.52" xlink:href="#linear-gradient"/><linearGradient id="linear-gradient-7" x1="199.4" y1="-64.35" x2="216.9" y2="-40.1" xlink:href="#linear-gradient"/></defs><title>Asset 16</title><g id="Layer_2" data-name="Layer 2"><g id="Layer_1-2" data-name="Layer 1"><g class="cls-1"><path class="cls-2" d="M49.57,44.55l-2.47-1.42a14.31,14.31,0,0,0,0-6l2.47-1.42a1.83,1.83,0,0,0,.66-2.48l-3.7-6.4A1.85,1.85,0,0,0,44,26.13l-2.44,1.41a16.61,16.61,0,0,0-5.25-3V21.63a1.85,1.85,0,0,0-1.85-1.85H27.08a1.85,1.85,0,0,0-1.85,1.85v2.85a16.61,16.61,0,0,0-5.25,3l-2.44-1.41a1.85,1.85,0,0,0-2.52.67l-3.7,6.4A1.85,1.85,0,0,0,12,35.66l2.47,1.42a14.31,14.31,0,0,0,0,6L12,44.54a1.85,1.85,0,0,0-.67,2.52l3.7,6.4a1.85,1.85,0,0,0,2.52.67L20,52.72a16.61,16.61,0,0,0,5.25,3v2.85a1.85,1.85,0,0,0,1.85,1.85h7.39a1.85,1.85,0,0,0,1.85-1.85V55.72a16.61,16.61,0,0,0,5.25-3L44,54.14a1.85,1.85,0,0,0,2.52-.67l3.7-6.4A1.85,1.85,0,0,0,49.57,44.55ZM44.27,50l-2-1.17A1.85,1.85,0,0,0,40,49.1a12.91,12.91,0,0,1-6,3.42,1.85,1.85,0,0,0-1.34,1.78v2.37H28.93V54.35a1.85,1.85,0,0,0-1.34-1.78,12.91,12.91,0,0,1-6-3.42,1.85,1.85,0,0,0-2.24-.31l-2,1.17-1.85-3.2,2-1.25a1.85,1.85,0,0,0,.86-2.09,11.43,11.43,0,0,1,0-6.86,1.85,1.85,0,0,0-.86-2.09l-2.06-1.19,1.85-3.2,2,1.17A1.85,1.85,0,0,0,21.56,31a12.91,12.91,0,0,1,6-3.42,1.85,1.85,0,0,0,1.34-1.78V23.48h3.7v2.37a1.85,1.85,0,0,0,1.34,1.78,12.91,12.91,0,0,1,6,3.42,1.85,1.85,0,0,0,2.24.31l2-1.17L46,33.39,44,34.58a1.85,1.85,0,0,0-.78,2.09,11.43,11.43,0,0,1,0,6.86,1.85,1.85,0,0,0,.86,2l2.06,1.19Z"/><path class="cls-2" d="M30.56,30.2a9.23,9.23,0,1,0,9.24,9.23A9.23,9.23,0,0,0,30.56,30.2ZM30.63,45h-.07v-.07a3.92,3.92,0,1,1,.07.07Z"/><circle class="cls-2" cx="30.56" cy="39.47" r="1.85"/><path class="cls-2" d="M57.2,25.31H76.62a2.3,2.3,0,0,1,2.3,2.3v.05A2.31,2.31,0,0,1,76.62,30H57.2a2.31,2.31,0,0,1-2.31-2.31v0A2.31,2.31,0,0,1,57.2,25.31Z"/><path class="cls-2" d="M100,32.92H89V7.26a6,6,0,0,0-6-6H7.25a6,6,0,0,0-6,6V63.64a6,6,0,0,0,6,6h56l.36,4.08a1.19,1.19,0,0,0,.81,1l15.11,4.21a3.26,3.26,0,0,0,1.48,0l15.17-4.21a1.19,1.19,0,0,0,.81-1l3.57-40A.69.69,0,0,0,100,32.92ZM93,42v0c-.11-.19-.22-.38-.34-.56A.65.65,0,0,1,93,42Zm-25.36.06a.66.66,0,0,1,.48-.64c-.17.25-.32.52-.47.78ZM30.82,5.19H83a2,2,0,0,1,2,2s0,.06,0,.1v2H30.82ZM5.18,7.26a2,2,0,0,1,2-2H26.84V9.33H5.18ZM7.25,65.65a2,2,0,0,1-2-2V13.27H85V32.92H60.75a.69.69,0,0,0-.71.67.7.7,0,0,0,0,.1l.23,2.54H56.76a2.33,2.33,0,0,0-2.33,2.33v.05A2.33,2.33,0,0,0,56.76,41h3.94l.52,5.9H56.76a2.33,2.33,0,0,0-2.33,2.33v.05a2.33,2.33,0,0,0,2.33,2.33h4.88l1.25,14.07Z"/></g><circle class="cls-3" cx="29.89" cy="38.34" r="1.87"/><path class="cls-4" d="M81.9,0H6A6,6,0,0,0,0,6v56.4a6,6,0,0,0,6,6H81.9a6,6,0,0,0,6-6V6A6,6,0,0,0,81.9,0Zm2,6V8H29.63V4.07H81.87A2,2,0,0,1,83.9,6ZM6,4.07H25.66V8.14H4.07V6A2,2,0,0,1,6,4.07ZM81.9,64.39H6a2,2,0,0,1-1.94-2V12H83.9V62.41A2,2,0,0,1,81.9,64.39Z"/><path class="cls-5" d="M29.85,29a9.35,9.35,0,1,0,9.35,9.35h0A9.36,9.36,0,0,0,29.85,29Zm0,14.92a5.62,5.62,0,1,1,5.62-5.62h0A5.62,5.62,0,0,1,29.89,44h0Z"/><path class="cls-6" d="M49.77,32.71a1.87,1.87,0,0,0-.19-1.36l-3.74-6.49a1.87,1.87,0,0,0-2.55-.68l-2.47,1.42a16.81,16.81,0,0,0-5.32-3v-3a1.87,1.87,0,0,0-1.87-1.87H26.15a1.87,1.87,0,0,0-1.87,1.87v2.89a16.81,16.81,0,0,0-5.28,3l-2.47-1.42a1.87,1.87,0,0,0-2.55.68L10.2,31.3a1.87,1.87,0,0,0,.65,2.55l2.52,1.42a14.5,14.5,0,0,0,0,6.11l-2.52,1.45a1.87,1.87,0,0,0-.68,2.55l3.74,6.49a1.87,1.87,0,0,0,2.55.68L19,51.14a16.81,16.81,0,0,0,5.32,3V57a1.87,1.87,0,0,0,1.87,1.87h7.48A1.87,1.87,0,0,0,35.51,57V54.16a16.81,16.81,0,0,0,5.32-3l2.47,1.42a1.87,1.87,0,0,0,2.55-.68l3.74-6.49a1.87,1.87,0,0,0-.68-2.55L46.4,41.4a14.5,14.5,0,0,0,0-6.11l2.44-1.44A1.87,1.87,0,0,0,49.77,32.71Zm-7.31,2.16a11.66,11.66,0,0,1,0,6.95,1.87,1.87,0,0,0,.87,2.12l2.09,1.21-1.87,3.24-2-1.18a1.87,1.87,0,0,0-2.27.31A13.07,13.07,0,0,1,33.16,51a1.87,1.87,0,0,0-1.36,1.8v2.4H28v-2.4A1.87,1.87,0,0,0,26.66,51a13.07,13.07,0,0,1-6.11-3.49,1.87,1.87,0,0,0-2.27-.31l-2,1.21-1.9-3.24,2.09-1.21a1.87,1.87,0,0,0,.87-2.12,11.66,11.66,0,0,1,0-6.95,1.87,1.87,0,0,0-.87-2.12l-2.09-1.21,1.9-3.24,2,1.18a1.87,1.87,0,0,0,2.27-.31,13.07,13.07,0,0,1,6-3.39A1.87,1.87,0,0,0,28,24V21.51h3.74v2.4a1.87,1.87,0,0,0,1.36,1.8,13.07,13.07,0,0,1,6.06,3.46,1.87,1.87,0,0,0,2.27.31l2-1.18,1.87,3.24-2.09,1.21A1.87,1.87,0,0,0,42.45,34.87Z"/><rect class="cls-7" x="53.29" y="24.37" width="24.33" height="4.72" rx="2.33" ry="2.33"/><rect class="cls-8" x="53.29" y="34.99" width="24.33" height="4.72" rx="2.33" ry="2.33"/><rect class="cls-9" x="53.29" y="45.6" width="15.64" height="4.72" rx="2.33" ry="2.33"/><rect class="cls-10" x="64.52" y="33.73" width="29.46" height="38.71" rx="14.53" ry="14.53"/><path class="cls-11" d="M59.63,31.67a.69.69,0,0,0-.71.77l3.57,40a1.19,1.19,0,0,0,.81,1l15.14,4.21a3.27,3.27,0,0,0,1.48,0l15.2-4.21a1.19,1.19,0,0,0,.81-1l3.57-40a.69.69,0,0,0-.61-.77H59.63Zm32.28,9.19-.14,1.45-.09,1-.12,1.36v.57H72.78a.69.69,0,0,0-.71.77l.33,3.69a.85.85,0,0,0,.84.77H90.36a.61.61,0,0,1,.62.68l-.08,1.44L89.85,64.52l-.11,1.19c0,.23-.37.53-.79.64l-9,2.48-.76.2-.76-.2-9-2.48a1.19,1.19,0,0,1-.81-1l-.58-6.47a.69.69,0,0,1,.61-.77h3.68a.85.85,0,0,1,.84.77l.23,2.54a1.19,1.19,0,0,0,.81,1l4.19,1.13.75.2.75-.2,4.14-1.11a1.19,1.19,0,0,0,.81-1l.46-5.07a.69.69,0,0,0-.61-.77H68.59a.85.85,0,0,1-.84-.76L66.63,42.32l-.15-1.47a.66.66,0,0,1,.65-.68H91.2a.66.66,0,0,1,.7.62S91.91,40.83,91.91,40.85Z"/></g></g></svg>