<svg xmlns="http://www.w3.org/2000/svg" xmlns:xlink="http://www.w3.org/1999/xlink" viewBox="0 0 87.51 88"><defs><style>.cls-1{fill:#9ebcca;opacity:0.2;isolation:isolate;}.cls-2{fill:#fff;}.cls-3{fill:url(#linear-gradient);}.cls-4{fill:url(#linear-gradient-2);}.cls-5{fill:#586faf;}</style><linearGradient id="linear-gradient" x1="1.75" y1="13.34" x2="40.38" y2="62.71" gradientUnits="userSpaceOnUse"><stop offset="0" stop-color="#586faf"/><stop offset="1" stop-color="#52c2b8"/></linearGradient><linearGradient id="linear-gradient-2" x1="-147.11" y1="77.95" x2="-108.48" y2="127.33" gradientTransform="matrix(1, 0, 0, -1, 0, 362.17)" gradientUnits="userSpaceOnUse"><stop offset="0" stop-color="#4fa4bd"/><stop offset="0.33" stop-color="#50afbb"/><stop offset="1" stop-color="#52c2b8"/></linearGradient></defs><title>Asset 15</title><g id="Layer_2" data-name="Layer 2"><g id="Layer_1-2" data-name="Layer 1"><path class="cls-1" d="M83.34,41.28v-.68h2.8a1.37,1.37,0,0,0,1.37-1.36V31a1.37,1.37,0,0,0-1.37-1.36H77.78A1.37,1.37,0,0,0,76.41,31v2.75H75.8a1.36,1.36,0,0,0-.69.2H71.47a1.36,1.36,0,0,0-.69-.2H68.72A1.36,1.36,0,0,0,68,34H63.41a1.36,1.36,0,0,0-.69-.2h-2A1.36,1.36,0,0,0,60,34H55.86a1.36,1.36,0,0,0-.69-.2H53.1a1.36,1.36,0,0,0-.69.2h-6.7v-.43l.41-.3a1.11,1.11,0,0,0,.31-1.45l-.72-1.26V8.8a5.9,5.9,0,0,0-5.71-6H7.11a5.9,5.9,0,0,0-5.72,6V74.67a5.9,5.9,0,0,0,5.71,6H28.25v5.92A1.37,1.37,0,0,0,29.62,88H38a1.37,1.37,0,0,0,1.37-1.36V83.89H40a1.37,1.37,0,0,0,1.37-1.36,1.33,1.33,0,0,0-.1-.52h3a1.32,1.32,0,0,0-.1.52,1.37,1.37,0,0,0,1.37,1.36h2.06a1.37,1.37,0,0,0,1.37-1.36,1.32,1.32,0,0,0-.1-.52h3a1.32,1.32,0,0,0-.1.52A1.37,1.37,0,0,0,53,83.89h2.06a1.37,1.37,0,0,0,1.37-1.36,1.32,1.32,0,0,0-.1-.52h3a1.32,1.32,0,0,0-.1.52,1.37,1.37,0,0,0,1.37,1.36h2.06A1.37,1.37,0,0,0,64,82.53a1.32,1.32,0,0,0-.1-.52h3a1.32,1.32,0,0,0-.1.52,1.37,1.37,0,0,0,1.37,1.36h2.06a1.37,1.37,0,0,0,1.47-1.27s0-.06,0-.09a1.32,1.32,0,0,0-.1-.52h3a1.33,1.33,0,0,0-.1.52,1.37,1.37,0,0,0,1.37,1.36h.69v2.75A1.37,1.37,0,0,0,77.78,88h8.36a1.37,1.37,0,0,0,1.37-1.36V78.42a1.37,1.37,0,0,0-1.37-1.36h-2.8v-.6a1.35,1.35,0,0,0-1.09-1.26V72.35a1.35,1.35,0,0,0,1.09-1.26V69a1.35,1.35,0,0,0-1.09-1.26V64.91a1.35,1.35,0,0,0,1.09-1.26v-2a1.35,1.35,0,0,0-1.09-1.26V57.46a1.35,1.35,0,0,0,1.09-1.26V54.15a1.35,1.35,0,0,0-1.09-1.26V50a1.35,1.35,0,0,0,1.09-1.26V46.7a1.35,1.35,0,0,0-1.09-1.26V42.59A1.35,1.35,0,0,0,83.34,41.28Zm-4.14-8.9h5.61V37.9H82.3v-4H79.2ZM5,8.8a2.09,2.09,0,0,1,2-2.12H40A2.09,2.09,0,0,1,42,8.8v4.07H5Zm0,8h.44V61.11H5ZM5,65h.44V76A2.21,2.21,0,0,1,5,74.72ZM36.61,85.3H31V80.73h2.44V82h3.17Zm48.16-5.52V85.3H79.2V82h3.08V79.78Z"/><rect class="cls-2" x="2.88" y="1.99" width="38.72" height="73.91"/><rect class="cls-2" x="2.67" y="12.11" width="37.55" height="63.79"/><path class="cls-3" d="M38,0H5.62A5.86,5.86,0,0,0,0,6V71.91a5.86,5.86,0,0,0,5.62,6H38a5.88,5.88,0,0,0,5.62-6.07V6A5.86,5.86,0,0,0,38,0Zm2,71.88A2.07,2.07,0,0,1,38,74H5.62a2.07,2.07,0,0,1-2-2.15h0V62.22H40Zm0-13.55H3.62V14H40Zm0-48.21H3.62V6a2.07,2.07,0,0,1,2-2.15H38A2.07,2.07,0,0,1,40,6h0Z"/><path class="cls-4" d="M18.12,70.26h7.35a2,2,0,0,0,0-3.92H18.12a2,2,0,0,0,0,3.92Z"/><rect class="cls-2" x="32.92" y="32.61" width="48.02" height="48.02"/><path class="cls-5" d="M52.28,35.11h2a1.36,1.36,0,0,0,0-2.7h-2a1.36,1.36,0,0,0,0,2.7Z"/><path class="cls-5" d="M69.15,79.79H67.08a1.36,1.36,0,0,0,0,2.7h2.06a1.36,1.36,0,0,0,0-2.7Z"/><path class="cls-5" d="M46.79,79.79h-2a1.36,1.36,0,0,0,0,2.7h2a1.36,1.36,0,0,0,0-2.7Z"/><path class="cls-5" d="M39.35,79.79h-.6V77a1.36,1.36,0,0,0-1.36-1.36H34.64V75a1.36,1.36,0,0,0-2.7,0v.68H29.17A1.36,1.36,0,0,0,27.81,77h0v8.22a1.36,1.36,0,0,0,1.36,1.36h8.22a1.36,1.36,0,0,0,1.36-1.36h0V82.51h.6a1.36,1.36,0,0,0,0-2.7ZM36,83.9H30.53V78.4H36Z"/><path class="cls-5" d="M59.72,35.11h2a1.36,1.36,0,0,0,0-2.7h-2a1.36,1.36,0,0,0,0,2.7Z"/><path class="cls-5" d="M67.64,35.11h2a1.36,1.36,0,1,0,.26-2.7H67.64a1.36,1.36,0,0,0,0,2.7Z"/><path class="cls-5" d="M61.68,79.79h-2a1.36,1.36,0,0,0,0,2.7h2a1.36,1.36,0,0,0,0-2.7Z"/><path class="cls-5" d="M33.28,58.77a1.36,1.36,0,0,0-1.36,1.36h0v2a1.36,1.36,0,1,0,2.7,0v-2A1.36,1.36,0,0,0,33.28,58.77Z"/><path class="cls-5" d="M33.28,66.7a1.36,1.36,0,0,0-1.36,1.36h0v2a1.36,1.36,0,1,0,2.7,0V68A1.36,1.36,0,0,0,33.28,66.7Z"/><path class="cls-5" d="M54.24,79.79h-2a1.36,1.36,0,0,0,0,2.7h2a1.36,1.36,0,0,0,0-2.7Z"/><path class="cls-5" d="M79.32,54.79a1.36,1.36,0,0,0,2.7,0v-2a1.36,1.36,0,0,0-2.7,0Z"/><path class="cls-5" d="M79.32,62.23a1.36,1.36,0,0,0,2.7,0v-2a1.36,1.36,0,0,0-2.7,0Z"/><path class="cls-5" d="M80.67,48.69A1.36,1.36,0,0,0,82,47.33h0V45.26a1.36,1.36,0,0,0-2.7,0v2a1.36,1.36,0,0,0,1.31,1.41Z"/><path class="cls-5" d="M33.28,51.33a1.36,1.36,0,0,0-1.36,1.36h0v2a1.36,1.36,0,1,0,2.7,0v-2A1.36,1.36,0,0,0,33.28,51.33Z"/><path class="cls-5" d="M79.32,69.66a1.36,1.36,0,0,0,2.7,0v-2a1.36,1.36,0,0,0-2.7,0Z"/><path class="cls-5" d="M84.78,75.68H82v-.6a1.36,1.36,0,1,0-2.7,0v.6H76.56A1.36,1.36,0,0,0,75.21,77h0v2.75h-.68a1.36,1.36,0,0,0-.26,2.7h.94v2.75a1.36,1.36,0,0,0,1.35,1.37h8.23a1.36,1.36,0,0,0,1.36-1.36h0V77A1.36,1.36,0,0,0,84.78,75.68ZM83.43,83.9H77.95V78.4h5.52Z"/><path class="cls-5" d="M84.78,28.3H76.56a1.36,1.36,0,0,0-1.36,1.36h0v2.75h-.6a1.36,1.36,0,1,0-.26,2.7h.86v2.75a1.36,1.36,0,0,0,1.36,1.36h2.75v.68a1.36,1.36,0,0,0,2.7,0v-.68h2.75a1.36,1.36,0,0,0,1.36-1.36h0V29.66A1.36,1.36,0,0,0,84.78,28.3Zm-1.36,8.22H77.95V31h5.52Z"/><path class="cls-5" d="M68.43,60.59l.52-.52a1.37,1.37,0,0,0,0-1.92l-4.49-4.49a1.36,1.36,0,0,0-1.92,0h0l-.19.19.45-3.12a1.37,1.37,0,0,0-1-1.51l-14.75-4h-.67a1.36,1.36,0,0,0-.3.13h0l-.11.08h0l-.13.11-.11.13h0l-.08.1h0a1.36,1.36,0,0,0-.13.3h0v.13h0a1.36,1.36,0,0,0,0,.15h0a1.38,1.38,0,0,0,0,.16h0v.13h0l3.95,14.75a1.37,1.37,0,0,0,1.26,1h.2L54.06,62l-.19.19a1.36,1.36,0,0,0,0,1.92h0l4.49,4.49a1.36,1.36,0,0,0,1.92,0h0L60.8,68l2,2a1.36,1.36,0,0,0,1.92,0h0l5.68-5.52a1.36,1.36,0,0,0,0-1.92h0Zm-16.77-.78-2.33-8.66,2.21,2.19a1.36,1.36,0,0,0,1.92-1.92l-2.19-2.19,8.64,2.31-.83,5.53L57.14,59Zm5,3.57,6.81-6.81L66,59.09l-6.83,6.83Zm7,4-1-1,3.86-3.86,1,1Z"/><path class="cls-5" d="M24.66,35.41a10.06,10.06,0,0,0,.3,2.3l-1.4,1a1.12,1.12,0,0,0-.3,1.48l1.26,2.28a1.11,1.11,0,0,0,1.41.47l1.58-.68a9.83,9.83,0,0,0,1.89,1.47l-.26,1.73a1.12,1.12,0,0,0,.8,1.26l2.51.69a1.12,1.12,0,0,0,1.32-.67l.63-1.57a9.92,9.92,0,0,0,2.51-.3l1,1.35a1.12,1.12,0,0,0,1.45.3l2.28-1.26a1.11,1.11,0,0,0,.47-1.41l-.64-1.51a9.71,9.71,0,0,0,1.65-2.15l1.56.24a1.12,1.12,0,0,0,1.26-.8l.69-2.51a1.12,1.12,0,0,0-.67-1.32l-1.46-.63a9.77,9.77,0,0,0-.3-2.51l1.26-.92a1.12,1.12,0,0,0,.3-1.45L44.48,28A1.11,1.11,0,0,0,43,27.66l-1.37.59a9.79,9.79,0,0,0-2.07-1.61l.23-1.51a1.12,1.12,0,0,0-.8-1.24l-2.51-.69a1.12,1.12,0,0,0-1.32.67l-.57,1.41a9.77,9.77,0,0,0-2.67.36L31,24.38a1.12,1.12,0,0,0-1.45-.3l-2.28,1.26a1.11,1.11,0,0,0-.47,1.41l.64,1.5a9.58,9.58,0,0,0-1.48,2L24.35,30a1.12,1.12,0,0,0-1.26.8l-.69,2.51a1.12,1.12,0,0,0,.67,1.32ZM35.71,31a4.35,4.35,0,1,1-5.33,3.07h0A4.35,4.35,0,0,1,35.71,31Z"/></g></g></svg>