<?xml version="1.0" encoding="UTF-8"?>
<svg width="50px" height="50px" viewBox="0 0 50 50" version="1.1" xmlns="http://www.w3.org/2000/svg" xmlns:xlink="http://www.w3.org/1999/xlink">
    <!-- Generator: sketchtool 51.2 (57519) - http://www.bohemiancoding.com/sketch -->
    <title>89F2EA97-E871-4641-835A-A26273023B40</title>
    <desc>Created with sketchtool.</desc>
    <defs></defs>
    <g id="01-HomePage" stroke="none" stroke-width="1" fill="none" fill-rule="evenodd">
        <g id="homepage-mobile-en" transform="translate(-68.000000, -2292.000000)">
            <g id="03-Workflow" transform="translate(0.000000, 1915.000000)">
                <g id="process" transform="translate(68.000000, 91.000000)">
                    <g id="icon-copy-7" transform="translate(0.000000, 267.000000)">
                        <g id="icon/reserch" transform="translate(0.000000, 19.000000)">
                            <g id="icon/workflow/support">
                                <rect id="Rectangle" x="0" y="0" width="50.2873563" height="50.2873563"></rect>
                                <g id="server" stroke-width="1" fill-rule="evenodd" transform="translate(1.436782, 4.310345)" fill="#FFFFFF">
                                    <path d="M43.3778904,0 L3.94347819,0 C1.76660281,0.00228408489 0.00258788734,1.55921424 0,3.48053751 L0,38.2856678 C0.00258788734,40.2069095 1.76660281,41.7638397 3.94347819,41.7661238 L43.3779828,41.7661238 C45.5547657,41.7638397 47.3187807,40.2069095 47.321461,38.2855863 L47.321461,3.48053751 C47.3187807,1.55921424 45.5547657,0.00228408489 43.3778904,0 Z M45.7439588,38.2855863 C45.7439588,39.438886 44.6846811,40.3738925 43.3778904,40.3738925 L3.94347819,40.3738925 C2.63677993,40.3738925 1.57740976,39.4389676 1.57740976,38.2855863 L1.57740976,6.96099344 L45.7440512,6.96099344 L45.7440512,38.2855863 L45.7439588,38.2855863 Z M45.7440512,6.3265112 L1.57740976,6.3265112 L1.57740976,3.95408109 C1.57740976,2.64386949 2.63677993,1.58165097 3.94347819,1.58165097 L43.3779828,1.58165097 C44.6846811,1.58165097 45.7440512,2.64386949 45.7440512,3.95408109 L45.7440512,6.3265112 Z" id="Shape" stroke="#FFFFFF" stroke-width="0.812807882" fill-rule="nonzero"></path>
                                    <path d="M5.52079552,3.16320927 L4.73213686,3.16320927 C4.29653996,3.16320927 3.94347819,3.51722032 3.94347819,3.95398841 C3.94347819,4.39075651 4.29653996,4.74486023 4.73213686,4.74486023 L5.52079552,4.74486023 C5.95639242,4.74486023 6.30945419,4.39084918 6.30945419,3.95408109 C6.30945419,3.517313 5.95639242,3.16320927 5.52079552,3.16320927 Z" id="Shape" fill-rule="nonzero"></path>
                                    <path d="M8.52570243,3.17905636 C8.47348256,3.18637753 8.4228339,3.20240997 8.37588223,3.22650496 C8.32541843,3.24392749 8.27745009,3.26783714 8.23308631,3.29767786 C8.19214223,3.32705522 8.15295422,3.3587494 8.11561471,3.39257507 C7.8106137,3.70441989 7.8106137,4.20364961 8.11561471,4.51549443 C8.26672884,4.65997172 8.46673556,4.7418947 8.67561504,4.74486023 C8.88541877,4.74699172 9.08727398,4.66432735 9.23561538,4.51558711 C9.38395678,4.36684686 9.46639948,4.16444891 9.46427371,3.95408109 C9.4612237,3.74473266 9.3795204,3.54428085 9.23552295,3.39257507 C9.04864052,3.2081557 8.78301237,3.12827153 8.52570243,3.17905636 Z" id="Shape" fill-rule="nonzero"></path>
                                    <path d="M12.3903425,3.39257507 C12.3508772,3.36097356 12.3115043,3.32927937 12.264183,3.29767786 C12.2238859,3.26644704 12.1785054,3.24244472 12.1300749,3.22650496 C12.082846,3.20250264 12.0319201,3.1864702 11.9794229,3.17905636 C11.7223903,3.13207112 11.4584258,3.21149193 11.2696024,3.39257507 C11.2000067,3.4694937 11.1439974,3.55771845 11.1039776,3.65354238 C11.060076,3.74742018 11.0387259,3.85037994 11.0416835,3.95408109 C11.0410365,4.16417089 11.1232943,4.3660128 11.2704342,4.51558711 C11.4215484,4.66006439 11.6215551,4.74198737 11.8304346,4.74495291 C12.0402383,4.74708439 12.2420935,4.66442003 12.3904349,4.51567978 C12.5387763,4.36693953 12.621219,4.16454159 12.6190932,3.95417376 C12.6178917,3.85084331 12.5964492,3.7487176 12.5559673,3.65363505 C12.5159474,3.55771845 12.4599382,3.4694937 12.3903425,3.39257507 Z" id="Shape" fill-rule="nonzero"></path>
                                    <path d="M42.5892317,3.16320927 L15.7738203,3.16320927 C15.3382234,3.16320927 14.9851617,3.51722032 14.9851617,3.95398841 C14.9851617,4.39075651 15.3382234,4.74476756 15.7738203,4.74476756 L42.5892317,4.74476756 C43.0248286,4.74476756 43.3778904,4.39075651 43.3778904,3.95398841 C43.3778904,3.51722032 43.0248286,3.16320927 42.5892317,3.16320927 Z" id="Shape" fill-rule="nonzero"></path>
                                    <path d="M11.0416835,37.4041345 L36.2797775,37.4041345 C37.5864758,37.4041345 38.6458459,36.3420087 38.6458459,35.0317044 L38.6458459,31.8684952 C38.6458459,30.5582836 37.5864758,29.496065 36.2797775,29.496065 L36.2797775,27.9144141 C37.5864758,27.9144141 38.6458459,26.8522882 38.6458459,25.541984 L38.6458459,22.3787747 C38.6458459,21.0685631 37.5864758,20.0063446 36.2797775,20.0063446 L36.2797775,18.4246936 C37.5864758,18.4246936 38.6458459,17.3624751 38.6458459,16.0522635 L38.6458459,12.8890542 C38.6458459,11.5788426 37.5864758,10.5166241 36.2797775,10.5166241 L11.0416835,10.5166241 C9.73498521,10.5166241 8.67561504,11.5788426 8.67561504,12.8890542 L8.67561504,16.0522635 C8.67561504,17.3624751 9.73489279,18.4246936 11.0416835,18.4246936 L11.0416835,20.0063446 C9.73498521,20.0063446 8.67561504,21.0684704 8.67561504,22.3787747 L8.67561504,25.541984 C8.67561504,26.8521956 9.73489279,27.9144141 11.0416835,27.9144141 L11.0416835,29.496065 C9.73498521,29.496065 8.67561504,30.5581909 8.67561504,31.8684952 L8.67561504,35.0317044 C8.67561504,36.3420087 9.73489279,37.4041345 11.0416835,37.4041345 Z M10.2529324,16.0522635 L10.2529324,12.8890542 C10.2529324,12.4522861 10.6059942,12.0982751 11.041591,12.0982751 L36.2796851,12.0982751 C36.715282,12.0982751 37.0683438,12.4522861 37.0683438,12.8890542 L37.0683438,16.0522635 C37.0683438,16.4890316 36.7151896,16.8430426 36.2796851,16.8430426 L11.0416835,16.8430426 C10.6060866,16.8430426 10.2529324,16.4890316 10.2529324,16.0522635 Z M34.7023677,18.4246936 L34.7023677,20.0063446 L12.6190008,20.0063446 L12.6190008,18.4246936 L34.7023677,18.4246936 Z M10.2529324,25.541984 L10.2529324,22.3787747 C10.2529324,21.9420066 10.6059942,21.5879955 11.041591,21.5879955 L36.2796851,21.5879955 C36.715282,21.5879955 37.0683438,21.9420993 37.0683438,22.3787747 L37.0683438,25.541984 C37.0683438,25.978752 36.7151896,26.3327631 36.2796851,26.3327631 L11.0416835,26.3327631 C10.6060866,26.3327631 10.2529324,25.978752 10.2529324,25.541984 Z M34.7023677,27.9144141 L34.7023677,29.496065 L12.6190008,29.496065 L12.6190008,27.9144141 L34.7023677,27.9144141 Z M10.2529324,31.8684952 C10.2529324,31.4317271 10.6059942,31.077716 11.041591,31.077716 L36.2796851,31.077716 C36.715282,31.077716 37.0683438,31.4317271 37.0683438,31.8684952 L37.0683438,35.0317044 C37.0683438,35.4684725 36.7151896,35.8224836 36.2796851,35.8224836 L11.0416835,35.8224836 C10.6060866,35.8224836 10.2530248,35.4684725 10.2530248,35.0317044 L10.2530248,31.8684952 L10.2529324,31.8684952 Z" id="Shape" fill-rule="nonzero"></path>
                                    <path d="M12.6190008,15.2614843 C12.6690025,15.2601869 12.7189117,15.2549045 12.7680816,15.2456372 C12.8205787,15.2382234 12.8715047,15.222191 12.9187336,15.1981886 C12.9671641,15.1822489 13.0124521,15.1582466 13.0528416,15.1270157 C13.0979448,15.0996772 13.1402753,15.0678903 13.1790011,15.0321185 C13.4882537,14.7220345 13.4882537,14.2192832 13.1790011,13.9091992 C12.8697486,13.5991151 12.3683454,13.5991151 12.0590929,13.9091992 C11.8315437,14.1354141 11.7632419,14.4771923 11.8860741,14.7739314 C12.0089064,15.0706705 12.2986573,15.2633378 12.6190008,15.2614843 Z" id="Shape" fill-rule="nonzero"></path>
                                    <path d="M15.7738203,15.2614843 C15.823822,15.2601869 15.8737313,15.2549045 15.9229011,15.2456372 C15.9753983,15.2382234 16.0263242,15.222191 16.0735531,15.1981886 C16.1219836,15.1822489 16.1672716,15.1582466 16.2076612,15.1270157 C16.2527643,15.0996772 16.2950948,15.0678903 16.3338207,15.0321185 C16.6430732,14.7220345 16.6430732,14.2192832 16.3338207,13.9091992 C16.0245681,13.5991151 15.523165,13.5991151 15.2139124,13.9091992 C14.9863632,14.1354141 14.9180614,14.4771923 15.0408937,14.7739314 C15.1636335,15.0706705 15.4533844,15.2633378 15.7738203,15.2614843 Z" id="Shape" fill-rule="nonzero"></path>
                                    <path d="M12.6190008,24.7512048 C12.6690025,24.7499074 12.7189117,24.744625 12.7680816,24.7353577 C12.8205787,24.7279439 12.8715047,24.7119114 12.9187336,24.6879091 C12.9671641,24.6719693 13.0124521,24.647967 13.0528416,24.6167362 C13.0979448,24.5893977 13.1402753,24.5576108 13.1790011,24.521839 C13.4882537,24.211755 13.4882537,23.7090037 13.1790011,23.3989196 C12.8697486,23.0888356 12.3683454,23.0888356 12.0590929,23.3989196 C11.8315437,23.6251346 11.7632419,23.9669128 11.8860741,24.2636519 C12.0089064,24.560391 12.2986573,24.7530583 12.6190008,24.7512048 Z" id="Shape" fill-rule="nonzero"></path>
                                    <path d="M15.7738203,24.7512048 C15.823822,24.7499074 15.8737313,24.744625 15.9229011,24.7353577 C15.9753983,24.7279439 16.0263242,24.7119114 16.0735531,24.6879091 C16.1219836,24.6719693 16.1672716,24.647967 16.2076612,24.6167362 C16.2527643,24.5893977 16.2950948,24.5576108 16.3338207,24.521839 C16.6430732,24.211755 16.6430732,23.7090037 16.3338207,23.3989196 C16.0245681,23.0888356 15.523165,23.0888356 15.2139124,23.3989196 C14.9863632,23.6251346 14.9180614,23.9669128 15.0408937,24.2636519 C15.1636335,24.560391 15.4533844,24.7530583 15.7738203,24.7512048 Z" id="Shape" fill-rule="nonzero"></path>
                                    <path d="M12.6190008,34.2409253 C12.6690025,34.2396278 12.7189117,34.2343455 12.7680816,34.2250782 C12.8205787,34.2176643 12.8715047,34.2016319 12.9187336,34.1776296 C12.9671641,34.1616898 13.0124521,34.1376875 13.0528416,34.1064567 C13.0979448,34.0791181 13.1402753,34.0473313 13.1790011,34.0115595 C13.4882537,33.7014754 13.4882537,33.1987241 13.1790011,32.8886401 C12.8697486,32.5785561 12.3683454,32.5785561 12.0590929,32.8886401 C11.8315437,33.114855 11.7632419,33.4566332 11.8860741,33.7533723 C12.0089064,34.0501115 12.2986573,34.2427787 12.6190008,34.2409253 Z" id="Shape" fill-rule="nonzero"></path>
                                    <path d="M15.7738203,34.2409253 C15.823822,34.2396278 15.8737313,34.2343455 15.9229011,34.2250782 C15.9753983,34.2176643 16.0263242,34.2016319 16.0735531,34.1776296 C16.1219836,34.1616898 16.1672716,34.1376875 16.2076612,34.1064567 C16.2527643,34.0791181 16.2950948,34.0473313 16.3338207,34.0115595 C16.5339198,33.8109223 16.6120186,33.5185388 16.5388183,33.2445973 C16.4656181,32.9705631 16.2521174,32.756581 15.978818,32.6830913 C15.7055186,32.6096942 15.4139191,32.6880029 15.2139124,32.8886401 C14.9863632,33.114855 14.9180614,33.4566332 15.0408937,33.7533723 C15.1637259,34.0501115 15.4533844,34.2427787 15.7738203,34.2409253 Z" id="Shape" fill-rule="nonzero"></path>
                                    <path d="M23.6606843,15.2614843 L34.7023677,15.2614843 C35.1379646,15.2614843 35.4910264,14.9074733 35.4910264,14.4707052 C35.4910264,14.0339371 35.1379646,13.679926 34.7023677,13.679926 L23.6606843,13.679926 C23.2250874,13.679926 22.8720256,14.0339371 22.8720256,14.4707052 C22.8720256,14.9074733 23.2250874,15.2614843 23.6606843,15.2614843 Z" id="Shape" fill-rule="nonzero"></path>
                                    <path d="M23.6606843,24.7512048 L34.7023677,24.7512048 C35.1379646,24.7512048 35.4910264,24.3971937 35.4910264,23.9604257 C35.4910264,23.5236576 35.1379646,23.1696465 34.7023677,23.1696465 L23.6606843,23.1696465 C23.2250874,23.1696465 22.8720256,23.5236576 22.8720256,23.9604257 C22.8720256,24.3971937 23.2250874,24.7512048 23.6606843,24.7512048 Z" id="Shape" fill-rule="nonzero"></path>
                                    <path d="M23.6606843,34.2409253 L34.7023677,34.2409253 C35.1379646,34.2409253 35.4910264,33.8868215 35.4910264,33.4501461 C35.4910264,33.013378 35.1379646,32.659367 34.7023677,32.659367 L23.6606843,32.659367 C23.2250874,32.659367 22.8720256,33.0134707 22.8720256,33.4501461 C22.8720256,33.8868215 23.2250874,34.2409253 23.6606843,34.2409253 Z" id="Shape" fill-rule="nonzero"></path>
                                </g>
                            </g>
                        </g>
                    </g>
                </g>
            </g>
        </g>
    </g>
</svg>