<svg xmlns="http://www.w3.org/2000/svg" width="256" height="256" viewBox="0 0 256 256">
    <defs>
        <linearGradient id="a" x1="13.32%" x2="97.39%" y1="16.927%" y2="93.473%">
            <stop offset="0%" stop-color="#586FAF"/>
            <stop offset="100%" stop-color="#58AAB6"/>
        </linearGradient>
    </defs>
    <g fill="url(#a)" fill-rule="nonzero" stroke="url(#a)" transform="translate(-350 -1262)">
        <path stroke-width=".976" d="M477.713 1330.835c-25.974 0-47.104 21.13-47.104 47.104 0 16.934 8.961 32.338 23.552 40.757v4.436c-2.371 1.794-3.926 4.608-3.926 7.804 0 2.217.766 4.244 2.01 5.888-1.245 1.64-2.01 3.667-2.01 5.884 0 5.413 4.4 9.814 9.814 9.814h35.328c5.413 0 9.813-4.4 9.813-9.814 0-2.217-.765-4.244-2.01-5.888 1.245-1.645 2.01-3.67 2.01-5.888 0-3.195-1.554-6.01-3.925-7.804v-4.436c14.59-8.42 23.552-23.819 23.552-40.757 0-25.97-21.13-47.1-47.104-47.1zm17.665 113.835H460.05a1.968 1.968 0 0 1-1.963-1.963c0-1.08.883-1.962 1.963-1.962h35.328c1.08 0 1.962.882 1.962 1.962.001 1.08-.883 1.963-1.962 1.963zm0-11.775H460.05a1.968 1.968 0 0 1-1.963-1.963c0-1.08.883-1.963 1.963-1.963h35.328c1.08 0 1.962.883 1.962 1.963s-.883 1.963-1.962 1.963zm.172-20.028l-2.135 1.099v7.151h-11.776v-28.035c6.755-1.755 11.776-7.85 11.776-15.144 0-8.659-7.042-15.701-15.702-15.701s-15.702 7.042-15.702 15.701c0 7.294 5.02 13.39 11.777 15.144v28.035H462.01v-7.151l-2.135-1.096c-13.209-6.76-21.416-20.145-21.416-34.932 0-21.644 17.609-39.253 39.253-39.253s39.254 17.61 39.254 39.253c0 14.788-8.207 28.173-21.417 34.929zm-17.837-27.077c-4.33 0-7.85-3.52-7.85-7.85s3.52-7.852 7.85-7.852 7.851 3.521 7.851 7.851-3.52 7.851-7.85 7.851z"/>
        <path stroke-width="2.928" d="M596.574 1414.04c-2.751-12.572-7.415-25.26-13.71-37.687 9.153-31.332 5.09-60.383-13.159-78.629-16.255-16.25-41.16-21.71-70.181-15.363-2.823.616-5.648 1.37-8.48 2.194-12.422-6.289-25.098-10.948-37.662-13.695-32.076-7.023-59.624-1.002-77.574 16.95-17.952 17.95-23.968 45.502-16.954 77.576 2.751 12.573 7.41 25.26 13.707 37.688-9.323 31.768-4.894 60.58 13.158 78.632 11.835 11.835 28.259 17.943 47.513 17.943 7.191 0 14.78-.856 22.665-2.58 2.822-.616 5.648-1.37 8.479-2.194 12.423 6.29 25.099 10.948 37.663 13.696 8.734 1.907 17.13 2.854 25.09 2.854 21.277 0 39.423-6.744 52.486-19.808 17.955-17.946 23.972-45.499 16.96-77.576zm-32.42-110.765c14.705 14.705 18.869 37.617 13.256 63.057-8.84-15.093-20.094-29.644-33.385-42.932-13.287-13.291-27.838-24.545-42.932-33.385 25.213-5.554 48.207-1.593 63.061 13.26zm-197.63 60.435c-6.426-29.37-1.159-54.354 14.833-70.35 11.549-11.55 27.78-17.503 46.975-17.503 7.383 0 15.21.882 23.375 2.669 9.539 2.088 19.164 5.33 28.683 9.605-22.037 8.392-43.748 22.727-62.64 41.62a198.695 198.695 0 0 0-18.764 21.727c-1.786-.613-3.674-1.017-5.668-1.017-9.739 0-17.664 7.925-17.664 17.665 0 5.02 2.127 9.53 5.499 12.75-1.853 3.87-3.545 7.724-5.009 11.548-4.282-9.531-7.532-19.164-9.62-28.714zm36.608 4.416c0 5.409-4.4 9.813-9.813 9.813-5.414 0-9.814-4.404-9.814-9.813 0-5.41 4.4-9.814 9.814-9.814 5.413 0 9.813 4.405 9.813 9.814zm-11.86 108.03c-14.503-14.505-18.9-37.249-13.216-62.99 8.832 15.069 20.074 29.592 33.346 42.86 13.291 13.295 27.842 24.553 42.943 33.393-25.22 5.559-48.214 1.598-63.072-13.264zm25.68-25.68c-14.83-14.83-27.019-31.25-35.98-48.192 1.837-5.715 4.192-11.54 6.975-17.42 1.704.55 3.486.926 5.37.926 9.738 0 17.664-7.925 17.664-17.664 0-4.907-2.018-9.342-5.256-12.55a191.94 191.94 0 0 1 17.578-20.274c20.714-20.714 44.357-35.128 66.935-42.355 16.961 8.962 33.393 21.158 48.239 36.004 14.842 14.841 27.037 31.277 36.003 48.234-4.38 13.618-11.434 27.697-21.063 41.476a17.49 17.49 0 0 0-7.01-1.468c-9.739 0-17.665 7.925-17.665 17.664 0 3.588 1.087 6.916 2.932 9.703-20.604 20.475-44.062 34.747-66.476 41.923-16.961-8.965-33.4-21.161-48.247-36.007zm139.269-15.62c0 5.414-4.4 9.814-9.814 9.814-5.413 0-9.813-4.4-9.813-9.814 0-5.413 4.4-9.813 9.813-9.813 5.414 0 9.814 4.4 9.814 9.813zm17.85 51.215c-15.989 15.992-40.962 21.267-70.351 14.834-9.539-2.088-19.16-5.331-28.683-9.605 21.923-8.35 43.525-22.587 62.347-41.339 2.649 1.59 5.715 2.56 9.024 2.56 9.739 0 17.665-7.925 17.665-17.665 0-4.408-1.68-8.396-4.361-11.493 8.412-12.008 14.952-24.27 19.572-36.357 4.282 9.535 7.533 19.167 9.62 28.718 6.425 29.366 1.157 54.355-14.834 70.347z"/>
    </g>
</svg>
