<svg xmlns="http://www.w3.org/2000/svg" width="256" height="256" viewBox="0 0 256 256">
    <defs>
        <linearGradient id="a" x1="13.32%" x2="97.39%" y1="16.927%" y2="93.473%">
            <stop offset="0%" stop-color="#586FAF"/>
            <stop offset="100%" stop-color="#58AAB6"/>
        </linearGradient>
    </defs>
    <g fill="none" fill-rule="evenodd">
        <path d="M-91-81h452v452H-91z"/>
        <g fill="url(#a)" fill-rule="nonzero" transform="translate(3 17)">
            <path stroke="url(#a)" stroke-width="3.571" d="M228.72 0H20.793C9.315.012.013 8.238 0 18.389v183.886c.014 10.15 9.315 18.377 20.793 18.389H228.72c11.478-.012 20.779-8.238 20.793-18.39V18.39C249.5 8.238 240.198.012 228.72 0zm12.475 202.275c0 6.093-5.585 11.033-12.475 11.033H20.793c-6.89 0-12.476-4.94-12.476-11.033V36.777h232.879v165.498zm0-168.85H8.318V20.891c0-6.923 5.586-12.535 12.476-12.535H228.72c6.89 0 12.476 5.612 12.476 12.535v12.534zM29.11 16.712H24.95c-2.297 0-4.158 1.87-4.158 4.178s1.861 4.179 4.158 4.179h4.159c2.296 0 4.158-1.87 4.158-4.178s-1.862-4.179-4.158-4.179zm15.844.084a2.483 2.483 0 0 0-.79.25 3.245 3.245 0 0 0-.753.377 7.009 7.009 0 0 0-.62.501 4.25 4.25 0 0 0 0 5.933 4.358 4.358 0 0 0 2.953 1.212 4.107 4.107 0 0 0 2.953-1.212 4.147 4.147 0 0 0 1.206-2.966 4.407 4.407 0 0 0-1.207-2.967 4.17 4.17 0 0 0-3.742-1.128zm20.377 1.128c-.208-.167-.416-.334-.665-.501a2.355 2.355 0 0 0-.707-.376 2.533 2.533 0 0 0-.795-.251 4.286 4.286 0 0 0-3.742 1.128 4.83 4.83 0 0 0-.874 1.379 3.519 3.519 0 0 0-.328 1.588 4.217 4.217 0 0 0 1.206 2.966 4.358 4.358 0 0 0 2.953 1.212 4.107 4.107 0 0 0 2.952-1.211 4.147 4.147 0 0 0 .873-4.555 4.825 4.825 0 0 0-.873-1.379zm159.23-1.212H83.171c-2.297 0-4.158 1.87-4.158 4.178s1.861 4.178 4.158 4.178h141.39c2.297 0 4.159-1.87 4.159-4.178 0-2.307-1.862-4.178-4.159-4.178z"/>
            <path d="M58.22 197.618h133.073c6.89 0 12.476-5.612 12.476-12.534V168.37c0-6.922-5.586-12.534-12.476-12.534v-8.356c6.89 0 12.476-5.612 12.476-12.535v-16.712c0-6.922-5.586-12.534-12.476-12.534v-8.357c6.89 0 12.476-5.612 12.476-12.534V68.097c0-6.922-5.586-12.534-12.476-12.534H58.22c-6.89 0-12.476 5.612-12.476 12.534v16.712c0 6.922 5.585 12.534 12.476 12.534v8.357c-6.89 0-12.476 5.611-12.476 12.534v16.712c0 6.923 5.585 12.535 12.476 12.535v8.356c-6.89 0-12.476 5.612-12.476 12.534v16.713c0 6.922 5.585 12.534 12.476 12.534zM54.06 84.809V68.097c0-2.308 1.863-4.178 4.16-4.178h133.073c2.297 0 4.158 1.87 4.158 4.178v16.712c0 2.308-1.862 4.178-4.158 4.178H58.22c-2.297 0-4.16-1.87-4.16-4.178zm128.916 12.534v8.357H66.536v-8.357h116.44zM54.061 134.946v-16.712c0-2.307 1.862-4.178 4.158-4.178h133.074c2.297 0 4.158 1.871 4.158 4.178v16.712c0 2.308-1.862 4.178-4.158 4.178H58.22c-2.297 0-4.16-1.87-4.16-4.178zm128.915 12.535v8.356H66.536v-8.356h116.44zM54.061 168.37c0-2.307 1.862-4.178 4.158-4.178h133.074c2.297 0 4.158 1.87 4.158 4.178v16.713c0 2.307-1.862 4.177-4.158 4.177H58.22c-2.297 0-4.159-1.87-4.159-4.177V168.37zm12.476-87.74c.263-.007.526-.035.786-.083.276-.04.545-.124.794-.251a2.36 2.36 0 0 0 .707-.376c.238-.145.461-.313.665-.502a4.21 4.21 0 0 0 0-5.932 4.162 4.162 0 0 0-5.905 0c-1.2 1.195-1.56 3-.912 4.568a4.158 4.158 0 0 0 3.865 2.576zm16.634 0c.264-.007.527-.035.786-.083.277-.04.545-.124.794-.251a2.36 2.36 0 0 0 .708-.376c.237-.145.46-.313.665-.502a4.21 4.21 0 0 0 0-5.932 4.162 4.162 0 0 0-5.905 0c-1.2 1.195-1.56 3-.912 4.568a4.157 4.157 0 0 0 3.864 2.576zm-16.634 50.137c.263-.006.526-.034.786-.083.276-.04.545-.124.794-.251a2.36 2.36 0 0 0 .707-.376c.238-.144.461-.312.665-.501a4.21 4.21 0 0 0 0-5.933 4.162 4.162 0 0 0-5.905 0c-1.2 1.195-1.56 3-.912 4.569a4.158 4.158 0 0 0 3.865 2.575zm16.634 0c.264-.006.527-.034.786-.083.277-.04.545-.124.794-.251a2.36 2.36 0 0 0 .708-.376c.237-.144.46-.312.665-.501a4.21 4.21 0 0 0 0-5.933 4.162 4.162 0 0 0-5.905 0c-1.2 1.195-1.56 3-.912 4.569a4.157 4.157 0 0 0 3.864 2.575zm-16.634 50.138c.263-.007.526-.035.786-.084.276-.04.545-.124.794-.25a2.36 2.36 0 0 0 .707-.377c.238-.144.461-.312.665-.501a4.21 4.21 0 0 0 0-5.933 4.162 4.162 0 0 0-5.905 0c-1.2 1.195-1.56 3-.912 4.569a4.158 4.158 0 0 0 3.865 2.576zm16.634 0c.264-.007.527-.035.786-.084.277-.04.545-.124.794-.25a2.36 2.36 0 0 0 .708-.377c.237-.144.46-.312.665-.501a4.209 4.209 0 0 0 1.08-4.052 4.186 4.186 0 0 0-2.952-2.967 4.162 4.162 0 0 0-4.033 1.086c-1.2 1.195-1.56 3-.912 4.569a4.158 4.158 0 0 0 3.864 2.576zM124.756 80.63h58.22c2.297 0 4.159-1.87 4.159-4.178 0-2.307-1.862-4.178-4.159-4.178h-58.22c-2.296 0-4.158 1.87-4.158 4.178s1.862 4.178 4.158 4.178zm0 50.137h58.22c2.297 0 4.159-1.87 4.159-4.178 0-2.307-1.862-4.177-4.159-4.177h-58.22c-2.296 0-4.158 1.87-4.158 4.177 0 2.308 1.862 4.178 4.158 4.178zm0 50.138h58.22c2.297 0 4.159-1.871 4.159-4.178 0-2.308-1.862-4.178-4.159-4.178h-58.22c-2.296 0-4.158 1.87-4.158 4.178 0 2.307 1.862 4.178 4.158 4.178z"/>
        </g>
    </g>
</svg>
