<svg xmlns="http://www.w3.org/2000/svg" xmlns:xlink="http://www.w3.org/1999/xlink" viewBox="0 0 60.73 61.3"><defs><style>.cls-1{opacity:0.2;}.cls-2{fill:#9ebcca;}.cls-3{fill:#586faf;}.cls-4{fill:url(#linear-gradient);}.cls-5{fill:url(#linear-gradient-2);}.cls-6{fill:url(#linear-gradient-3);}.cls-7{fill:url(#linear-gradient-4);}.cls-8{fill:url(#linear-gradient-5);}</style><linearGradient id="linear-gradient" x1="-8.7" y1="6.03" x2="52.89" y2="76.86" gradientTransform="translate(27.58 -0.74) rotate(45)" gradientUnits="userSpaceOnUse"><stop offset="0" stop-color="#6a5daf"/><stop offset="0.43" stop-color="#5f8ab3"/><stop offset="1" stop-color="#52c2b8"/></linearGradient><linearGradient id="linear-gradient-2" x1="-8.74" y1="6.06" x2="52.86" y2="76.89" gradientTransform="matrix(1, 0, 0, 1, 0, 0)" xlink:href="#linear-gradient"/><linearGradient id="linear-gradient-3" x1="-8.07" y1="5.48" x2="53.52" y2="76.31" gradientTransform="matrix(1, 0, 0, 1, 0, 0)" xlink:href="#linear-gradient"/><linearGradient id="linear-gradient-4" x1="12.5" y1="-12.41" x2="74.09" y2="58.42" gradientTransform="matrix(1, 0, 0, 1, 0, 0)" xlink:href="#linear-gradient"/><linearGradient id="linear-gradient-5" x1="-3.12" y1="1.17" x2="58.48" y2="72" gradientTransform="matrix(1, 0, 0, 1, 0, 0)" xlink:href="#linear-gradient"/></defs><title>Asset 20</title><g id="Layer_2" data-name="Layer 2"><g id="Layer_1-2" data-name="Layer 1"><g class="cls-1"><rect class="cls-2" x="40.23" y="7.36" width="5.81" height="14.46"/><rect class="cls-2" x="47.57" y="5.05" width="5.81" height="16.78"/><rect class="cls-2" x="54.92" y="1" width="5.81" height="20.83"/><rect class="cls-2" x="8.97" y="32.8" width="13.41" height="2.23" transform="translate(-19.39 21.02) rotate(-45)"/><path class="cls-2" d="M14.84,29.17a3.35,3.35,0,1,0-3.35,3.35A3.35,3.35,0,0,0,14.84,29.17Zm-4.46,0a1.12,1.12,0,1,1,1.12,1.12A1.12,1.12,0,0,1,10.38,29.17Z"/><path class="cls-2" d="M17.08,38.1a3.35,3.35,0,1,0,3.35-3.35A3.35,3.35,0,0,0,17.08,38.1Zm4.46,0A1.12,1.12,0,1,1,20.42,37,1.12,1.12,0,0,1,21.54,38.1Z"/><path class="cls-2" d="M55.45,25.68H36.19V6.42a20.28,20.28,0,0,1,2.86.39V4.26a23,23,0,0,0-4.12-.39H34a.31.31,0,0,0-.31.31v23.7a.31.31,0,0,0,.31.31h23.7a.31.31,0,0,0,.31-.31v-.95a22.7,22.7,0,0,0-.32-3.76H55.13A20.27,20.27,0,0,1,55.45,25.68Z"/><path class="cls-2" d="M55.9,52.38l-3.64-3.64a27.78,27.78,0,0,0,4.66-15.41V32.19a.37.37,0,0,0-.37-.37H30.48V5.75a.37.37,0,0,0-.37-.37H29c-.38,0-.78,0-1.19,0V5.5a25.66,25.66,0,0,0-4.93.62c-.79.18-1.55.37-2.26.6A29.2,29.2,0,0,0,16.77,8.2l-1.06.53-.21.11A27.94,27.94,0,1,0,47,54.66L50.3,58a4,4,0,0,0,5.6-5.6ZM29,58.26a24.9,24.9,0,0,1-10.1-47.66l0,0a20,20,0,0,1,7.69-2l.91-.08v26a.37.37,0,0,0,.37.37h26a24.79,24.79,0,0,1-3.76,11.69l-1.36-1.36a7.18,7.18,0,0,0,.16-1.5A7.27,7.27,0,1,0,41.61,51a7.17,7.17,0,0,0,1.5-.16l1.72,1.72A24.88,24.88,0,0,1,29,58.26ZM41.61,47.91a4.23,4.23,0,1,1,4.23-4.23A4.23,4.23,0,0,1,41.61,47.91Zm12.15,7.92a.92.92,0,0,1-1.3,0l-6.4-6.4a7.28,7.28,0,0,0,1.3-1.3l6.4,6.4A.92.92,0,0,1,53.75,55.83Z"/></g><rect class="cls-3" x="39.23" y="6.36" width="5.81" height="14.46"/><rect class="cls-3" x="46.57" y="4.05" width="5.81" height="16.78"/><rect class="cls-3" x="53.92" width="5.81" height="20.83"/><rect class="cls-4" x="7.97" y="31.8" width="13.41" height="2.23" transform="translate(-18.98 20.02) rotate(-45)"/><path class="cls-5" d="M13.84,28.17a3.35,3.35,0,1,0-3.35,3.35A3.35,3.35,0,0,0,13.84,28.17Zm-4.46,0a1.12,1.12,0,1,1,1.12,1.12A1.12,1.12,0,0,1,9.38,28.17Z"/><path class="cls-6" d="M16.08,37.1a3.35,3.35,0,1,0,3.35-3.35A3.35,3.35,0,0,0,16.08,37.1Zm4.46,0A1.12,1.12,0,1,1,19.42,36,1.12,1.12,0,0,1,20.54,37.1Z"/><path class="cls-7" d="M54.45,24.68H35.19V5.42a20.28,20.28,0,0,1,2.86.39V3.26a23,23,0,0,0-4.12-.39H33a.31.31,0,0,0-.31.31v23.7a.31.31,0,0,0,.31.31h23.7a.31.31,0,0,0,.31-.31v-.95a22.7,22.7,0,0,0-.32-3.76H54.13A20.27,20.27,0,0,1,54.45,24.68Z"/><path class="cls-8" d="M54.9,51.38l-3.64-3.64a27.78,27.78,0,0,0,4.66-15.41V31.19a.37.37,0,0,0-.37-.37H29.48V4.75a.37.37,0,0,0-.37-.37H28c-.38,0-.78,0-1.19,0V4.5a25.66,25.66,0,0,0-4.93.62c-.79.18-1.55.37-2.26.6A29.2,29.2,0,0,0,15.77,7.2l-1.06.53-.21.11A27.94,27.94,0,1,0,46,53.66L49.3,57a4,4,0,0,0,5.6-5.6ZM28,57.26A24.9,24.9,0,0,1,17.86,9.59l0,0a20,20,0,0,1,7.69-2l.91-.08v26a.37.37,0,0,0,.37.37h26a24.79,24.79,0,0,1-3.76,11.69l-1.36-1.36a7.18,7.18,0,0,0,.16-1.5A7.27,7.27,0,1,0,40.61,50a7.17,7.17,0,0,0,1.5-.16l1.72,1.72A24.88,24.88,0,0,1,28,57.26ZM40.61,46.91a4.23,4.23,0,1,1,4.23-4.23A4.23,4.23,0,0,1,40.61,46.91Zm12.15,7.92a.92.92,0,0,1-1.3,0l-6.4-6.4a7.28,7.28,0,0,0,1.3-1.3l6.4,6.4A.92.92,0,0,1,52.75,54.83Z"/></g></g></svg>