<svg xmlns="http://www.w3.org/2000/svg" width="256" height="256" viewBox="0 0 256 256">
    <defs>
        <linearGradient id="a" x1="-9.475%" x2="94.865%" y1="-7.28%" y2="87.804%">
            <stop offset="18%" stop-color="#52C2B8" stop-opacity=".5"/>
            <stop offset="40%" stop-color="#52C2B8" stop-opacity=".65"/>
            <stop offset="80%" stop-color="#52C2B8" stop-opacity=".9"/>
            <stop offset="100%" stop-color="#52C2B8"/>
        </linearGradient>
        <linearGradient id="b" x1="-173%" x2="3505%" y1="-279.242%" y2="2878.003%">
            <stop offset="18%" stop-color="#52C2B8" stop-opacity=".5"/>
            <stop offset="40%" stop-color="#52C2B8" stop-opacity=".65"/>
            <stop offset="80%" stop-color="#52C2B8" stop-opacity=".9"/>
            <stop offset="100%" stop-color="#52C2B8"/>
        </linearGradient>
        <linearGradient id="c" x1="-4%" x2="3674%" y1="-647%" y2="4982%">
            <stop offset="18%" stop-color="#52C2B8" stop-opacity=".5"/>
            <stop offset="40%" stop-color="#52C2B8" stop-opacity=".65"/>
            <stop offset="80%" stop-color="#52C2B8" stop-opacity=".9"/>
            <stop offset="100%" stop-color="#52C2B8"/>
        </linearGradient>
    </defs>
    <g fill="none" fill-rule="evenodd">
        <path d="M-90-100h452v452H-90z"/>
        <g transform="translate(-1 17)">
            <g fill="#9EBCCA" fill-rule="nonzero" opacity=".2" transform="translate(3 5.62)">
                <path d="M124.595 13.42V.86H18.718A18.605 18.605 0 0 0 .33 19.718v176.643a18.605 18.605 0 0 0 18.388 18.822h105.877v-12.56H18.718a6.19 6.19 0 0 1-6.153-6.262V38.54h112.211V25.98H90.823V13.42h33.772zM78.588 25.98H12.565v-6.262a6.19 6.19 0 0 1 6.153-6.298h59.87v12.56z"/>
                <path d="M108.668 62.395a5.792 5.792 0 0 0-5.719-5.864H80.254a5.792 5.792 0 0 0-5.72 5.864v9.05a50.966 50.966 0 0 0-16.216 9.483l-7.529-4.453a5.61 5.61 0 0 0-7.782 2.136L31.46 98.918a6.009 6.009 0 0 0-.58 4.452 5.864 5.864 0 0 0 2.643 3.62l7.601 4.524a46.622 46.622 0 0 0 0 19.112l-7.601 4.525a5.828 5.828 0 0 0-2.642 3.62 6.009 6.009 0 0 0 .579 4.452l11.402 20.307a5.61 5.61 0 0 0 7.782 2.135l7.53-4.452a50.966 50.966 0 0 0 16.216 9.484v9.05a5.792 5.792 0 0 0 5.864 5.718h22.84a5.792 5.792 0 0 0 5.72-5.864v-9.049a50.966 50.966 0 0 0 15.926-9.267v-13.284a5.61 5.61 0 0 0-4.597 1.701 39.817 39.817 0 0 1-18.497 10.86 5.828 5.828 0 0 0-4.271 5.683v7.529H85.828v-7.53a5.828 5.828 0 0 0-4.271-5.682 39.817 39.817 0 0 1-18.497-10.86 5.61 5.61 0 0 0-6.914-.977l-6.226 3.62-5.864-10.027 6.371-3.62a5.936 5.936 0 0 0 2.787-6.768 37.21 37.21 0 0 1 0-21.719 5.936 5.936 0 0 0-2.642-6.624l-6.516-3.873 5.72-10.135L56 93.199a5.61 5.61 0 0 0 7.059-1.086 39.817 39.817 0 0 1 18.497-10.86 5.828 5.828 0 0 0 4.27-5.682v-7.312H97.23v7.529a5.828 5.828 0 0 0 4.271 5.683 39.817 39.817 0 0 1 18.57 10.642 5.61 5.61 0 0 0 4.596 1.7V80.712a50.966 50.966 0 0 0-15.926-9.267l-.073-9.05z"/>
                <path d="M91.547 91.715a29.32 29.32 0 1 0 28.523 29.355c.222-15.98-12.544-29.117-28.523-29.355zm0 47.056a17.592 17.592 0 1 1 17.121-17.7c.08 9.553-7.568 17.38-17.121 17.519v.18z"/>
                <ellipse cx="91.547" cy="120.998" rx="5.719" ry="5.864"/>
            </g>
            <rect width="107.144" height="214.324" x="149.313" y="6.479" fill="#9EBCCA" fill-rule="nonzero" opacity=".2" rx="2.43"/>
            <rect width="107.144" height="214.324" x="142.798" fill="#586FAF" fill-rule="nonzero" rx="2.43"/>
            <path fill="#FFF" fill-rule="nonzero" d="M161.838 69.68l14.117 9.664a3.62 3.62 0 0 0 4.054-5.972l-9.882-6.697 9.773-6.66a3.62 3.62 0 0 0-4.054-5.973l-14.117 9.665a3.62 3.62 0 0 0 0 5.973h.109zM215.482 73.372a3.62 3.62 0 1 0 4.054 5.972l14.117-9.664a3.62 3.62 0 0 0 0-5.973l-14.117-9.665a3.62 3.62 0 1 0-4.054 5.973l9.773 6.66-9.773 6.697zM188.768 82.71a3.62 3.62 0 0 0 4.923-1.375l14.479-25.772a3.632 3.632 0 0 0-6.298-3.62l-14.48 25.772a3.62 3.62 0 0 0 1.376 4.996z"/>
            <path d="M12.56 18.823v6.298h67.798V12.56H18.823a6.298 6.298 0 0 0-6.263 6.262zM103.886 80.575a5.864 5.864 0 0 1-4.38-5.683v-7.493H87.778v7.53a5.864 5.864 0 0 1-4.524 5.646 40.939 40.939 0 0 0-19.004 10.86 5.864 5.864 0 0 1-7.24.976l-6.406-3.62-5.864 10.136 6.551 3.62a5.864 5.864 0 0 1 3.005 6.696 40.324 40.324 0 0 0-1.665 10.86 40.324 40.324 0 0 0 1.665 10.858 5.864 5.864 0 0 1-2.715 6.588l-6.552 3.62 5.864 10.135 6.407-3.62a5.864 5.864 0 0 1 7.24.978 40.939 40.939 0 0 0 19.003 10.859 5.864 5.864 0 0 1 4.38 5.683v7.529h11.728v-7.384a5.864 5.864 0 0 1 4.38-5.683 40.939 40.939 0 0 0 19.003-10.86 5.828 5.828 0 0 1 4.706-1.7v-53.97a5.828 5.828 0 0 1-4.706-1.702 40.939 40.939 0 0 0-19.148-10.86zM93.642 149.35c-16.193 0-29.32-13.127-29.32-29.32 0-16.193 13.127-29.32 29.32-29.32 16.193 0 29.32 13.127 29.32 29.32a29.32 29.32 0 0 1-29.32 29.392v-.072z"/>
            <path d="M93.642 102.547c-9.716 0-17.592 7.876-17.592 17.591 0 9.716 7.876 17.592 17.592 17.592 9.716 0 17.592-7.876 17.592-17.592 0-9.715-7.876-17.591-17.592-17.591zm0 23.455a5.864 5.864 0 1 1 0-11.727 5.864 5.864 0 0 1 0 11.727z"/>
            <path fill="url(#a)" fill-rule="nonzero" d="M127.595 12.56V0H18.823C8.435.02.02 8.435 0 18.823v176.642c.02 10.387 8.435 18.802 18.823 18.822h108.591v-12.524H18.823a6.298 6.298 0 0 1-6.263-6.298V37.68h115.035v-12.56H92.918V12.56h34.677zM80.54 25.12H12.56v-6.297a6.298 6.298 0 0 1 6.263-6.263h61.535l.18 12.56z"/>
            <path fill="url(#b)" fill-rule="nonzero" d="M111.234 61.535a5.864 5.864 0 0 0-5.864-5.864H81.914a5.864 5.864 0 0 0-5.9 5.864v9.05a52.667 52.667 0 0 0-16.65 9.483l-7.747-4.452a5.864 5.864 0 0 0-8 2.136L31.963 98.058a5.864 5.864 0 0 0 2.136 8l7.818 4.524a45.427 45.427 0 0 0 0 19.113l-7.818 4.524a5.864 5.864 0 0 0-2.136 8l11.728 20.306a5.864 5.864 0 0 0 8 2.136l7.746-4.452a52.667 52.667 0 0 0 16.578 9.483v9.05a5.864 5.864 0 0 0 5.9 5.864h23.456a5.864 5.864 0 0 0 5.864-5.864v-9.05a52.667 52.667 0 0 0 16.361-9.266v-13.284a5.828 5.828 0 0 0-4.706 1.7 40.939 40.939 0 0 1-19.003 10.86 5.864 5.864 0 0 0-4.38 5.683v7.529H87.778v-7.565a5.864 5.864 0 0 0-4.524-5.647 40.939 40.939 0 0 1-19.004-10.86 5.864 5.864 0 0 0-7.24-.977l-6.406 3.62-5.864-10.135 6.551-3.62a5.864 5.864 0 0 0 3.005-6.732 40.324 40.324 0 0 1-1.665-10.86 40.324 40.324 0 0 1 1.665-10.859 5.864 5.864 0 0 0-2.715-6.624l-6.552-3.62L50.893 88.9l6.407 3.62a5.864 5.864 0 0 0 7.24-.977 40.939 40.939 0 0 1 19.003-10.86 5.864 5.864 0 0 0 4.38-5.682v-7.602h11.728v7.53a5.864 5.864 0 0 0 4.38 5.682 40.939 40.939 0 0 1 19.003 10.86 5.828 5.828 0 0 0 4.706 1.7v-13.32a52.667 52.667 0 0 0-16.361-9.266l-.145-9.05z"/>
            <path fill="url(#c)" fill-rule="nonzero" d="M93.642 90.819c-16.193 0-29.32 13.127-29.32 29.32 0 16.192 13.127 29.32 29.32 29.32 16.193 0 29.32-13.128 29.32-29.32a29.32 29.32 0 0 0-29.32-29.32zm0 47.056c-9.716 0-17.592-7.876-17.592-17.592 0-9.715 7.876-17.592 17.592-17.592 9.716 0 17.592 7.877 17.592 17.592-.178 9.588-8.002 17.268-17.592 17.266v.326z"/>
            <circle cx="93.642" cy="120.138" r="5.864" fill="url(#c)" fill-rule="nonzero"/>
            <rect width="74.675" height="9.737" x="159.195" y="103.922" fill="#FFF" fill-rule="nonzero" rx="1.27"/>
            <rect width="74.675" height="9.737" x="159.195" y="126.654" fill="#FFF" fill-rule="nonzero" rx="1.27"/>
            <rect width="74.675" height="9.737" x="159.195" y="149.35" fill="#FFF" fill-rule="nonzero" rx="1.27"/>
        </g>
    </g>
</svg>
